<svg width="327" height="200" viewBox="0 0 327 200" fill="none" xmlns="http://www.w3.org/2000/svg">
<path d="M242.668 20.4662H234.135V29.5522H242.668V20.4662Z" fill="#FEDBCF"/>
<path d="M238.86 19.3468H237.943V21.6285H238.86V19.3468Z" fill="#F84D11"/>
<path d="M228.833 20.4662V38.9222C228.833 39.7466 228.526 40.5372 227.978 41.1202C227.431 41.7031 226.688 42.0306 225.914 42.0306H210.912C211.66 41.9916 212.365 41.6478 212.881 41.0703C213.397 40.4927 213.685 39.7259 213.685 38.9286V20.4662H228.833Z" fill="#D6EAF2"/>
<path d="M221.254 19.3468H220.337V21.6285H221.254V19.3468Z" fill="#F84D11"/>
<path d="M216.592 24.927H225.563" stroke="#639AD6" stroke-width="0.5" stroke-miterlimit="10"/>
<path d="M216.592 27.2962H225.563" stroke="#639AD6" stroke-width="0.5" stroke-miterlimit="10"/>
<path d="M216.592 29.6633H225.563" stroke="#639AD6" stroke-width="0.5" stroke-miterlimit="10"/>
<path d="M216.592 32.0325H225.563" stroke="#639AD6" stroke-width="0.5" stroke-miterlimit="10"/>
<path d="M216.592 34.4017H225.563" stroke="#639AD6" stroke-width="0.5" stroke-miterlimit="10"/>
<path d="M172.101 139.681L160.795 198.155H161.876L177.004 139.696" fill="#D6EAF2"/>
<path d="M212.198 138.301L223.727 198.155H222.68L207.566 139.67" fill="#D6EAF2"/>
<path d="M196.496 139.681L207.801 198.155H206.719L191.591 139.696" fill="#D6EAF2"/>
<path d="M224.544 110.962L217.723 132.55C217.031 134.742 215.709 136.646 213.945 137.995C212.181 139.343 210.064 140.068 207.893 140.066H169.271C167.099 140.067 164.982 139.343 163.218 137.994C161.455 136.646 160.133 134.741 159.44 132.55L153.823 114.793C153.596 114.074 153.533 113.309 153.639 112.559C153.745 111.81 154.017 111.098 154.432 110.482C154.847 109.866 155.394 109.365 156.028 109.019C156.661 108.673 157.363 108.493 158.074 108.493H162.398C163.386 108.497 164.343 108.12 165.09 107.431C165.837 106.742 166.325 105.788 166.462 104.745L168.982 85.6998C169.272 83.4996 170.3 81.4852 171.874 80.0277C173.449 78.5701 175.466 77.7675 177.552 77.7675H212.327C213.565 77.7676 214.788 78.0506 215.915 78.5972C217.042 79.1439 218.045 79.9415 218.858 80.9363C219.67 81.9311 220.273 83.1 220.625 84.364C220.977 85.628 221.07 86.9577 220.899 88.2634L218.736 104.696C218.674 105.168 218.707 105.649 218.834 106.106C218.961 106.563 219.179 106.985 219.472 107.345C219.766 107.705 220.128 107.993 220.535 108.191C220.942 108.389 221.384 108.492 221.832 108.493H222.875C223.154 108.492 223.43 108.562 223.678 108.697C223.927 108.833 224.142 109.029 224.305 109.271C224.468 109.512 224.575 109.792 224.617 110.086C224.658 110.38 224.633 110.68 224.544 110.962V110.962Z" fill="#D6EAF2"/>
<path d="M221.631 108.262H218.774C216.907 108.245 215.081 108.855 213.558 110.006C212.034 111.156 210.889 112.788 210.286 114.671L205.393 129.147C204.766 131.129 203.571 132.852 201.976 134.073C200.381 135.294 198.466 135.95 196.502 135.951H160.905" stroke="white" stroke-width="0.5" stroke-miterlimit="10"/>
<path d="M191.294 29.2893C200.083 29.5029 196.494 39.343 201.481 41.067C205.012 42.2869 209.454 44.0836 209.359 51.627C209.281 57.8502 208.774 58.7176 213.233 61.3752C219.344 65.007 217.695 77.2483 205.375 76.8125" stroke="#41465A" stroke-width="0.5" stroke-miterlimit="10"/>
<path d="M177.897 36.3714C178.112 35.7475 179.903 27.5012 191.573 28.9539C200.304 30.0413 196.789 40.5586 200.922 42.0434C204.055 43.1671 208.872 44.874 208.356 52.3983C207.931 58.6044 207.375 59.4482 211.679 62.3729C217.577 66.3978 215.245 78.5024 202.972 77.2847C190.698 76.0669 172.328 76.5348 171.497 74.0011C170.896 72.1425 165.706 61.1424 173.255 56.3783C175.526 54.9448 179.719 53.2037 179.273 50.4179C178.371 44.7779 175.646 42.9043 177.897 36.3714Z" fill="#252954"/>
<path d="M192.562 47.9568C192.562 47.9568 191.914 56.8825 195.27 59.6191L186.134 59.444C186.134 59.444 186.349 49.559 186.134 47.9611L192.562 47.9568Z" fill="#FFB3A4"/>
<path d="M188.187 55.2225C191.649 55.2225 194.456 53.0389 194.456 50.3452C194.456 47.6516 191.649 45.4679 188.187 45.4679C184.724 45.4679 181.917 47.6516 181.917 50.3452C181.917 53.0389 184.724 55.2225 188.187 55.2225Z" fill="#242854"/>
<path d="M194.853 44.6903C194.853 44.6903 193.023 53.1973 186.439 52.8982C182.062 52.6995 179.799 44.6561 179.48 40.8043C179.213 37.5891 183.149 35.1173 186.032 35.7689C189.583 36.5722 189.775 42.8466 193.507 42.4813L194.853 44.6903Z" fill="#FFB3A4"/>
<path d="M184.192 41.3517C182.676 41.7636 181.198 42.3243 179.779 43.0266C179.557 42.2314 179.405 41.4162 179.323 40.5912C179.123 38.2412 181.171 36.295 183.41 35.6648C183.645 35.7459 183.887 35.8357 184.142 35.9361C185.3 36.3911 183.454 38.7497 184.192 41.3517Z" fill="#EA786C"/>
<path d="M185.577 35.6066C186.794 36.0851 184.104 38.5975 184.692 41.3747C182.111 41.9681 179.562 42.7076 177.055 43.5901C177.055 43.5901 174.749 39.8194 176.571 37.2494C178.393 34.6794 181.663 34.0684 185.577 35.6066Z" fill="#252954"/>
<path d="M193.555 45.1026C194.777 45.1026 195.768 44.0476 195.768 42.7462C195.768 41.4448 194.777 40.3898 193.555 40.3898C192.333 40.3898 191.342 41.4448 191.342 42.7462C191.342 44.0476 192.333 45.1026 193.555 45.1026Z" fill="#FFB3A4"/>
<path d="M174.974 64.035C177.963 62.4285 181.225 64.6054 179.608 69.6664C178.437 73.3303 167.983 94.9737 166.797 96.8537C159.597 101.143 131.354 96.2747 131.354 96.2747C131.354 96.2747 127.426 98.0586 126.287 98.0735C125.787 98.0735 122.748 97.4668 122.748 97.4668C122.748 97.4668 122.65 97.0929 123.117 96.6272C123.585 96.1615 126.853 96.687 125.693 95.559C125.178 95.0613 122.483 96.0184 121.28 97.1549C120.076 98.2914 119.564 97.3279 119.564 97.3279C119.564 97.3279 120.754 95.1788 121.169 94.7985C121.585 94.4182 124.285 92.8416 126.08 92.6621C127.382 92.5318 130.494 92.9206 132.115 93.4141C138.422 92.111 151.302 90.31 159.663 90.8377C159.651 90.8484 168.334 67.6049 174.974 64.035Z" fill="#FFB3A4"/>
<path d="M194.831 56.4723C194.831 56.4723 196.757 60.213 207.329 64.0777C207.329 64.0777 207.291 68.9187 205.576 75.285C202.862 85.3601 199.357 99.4472 199.409 104.995C199.409 104.995 188.008 108.492 176.248 104.995C176.248 104.995 176.336 88.1864 175.335 87.4259C174.334 86.6654 171.748 79.6154 172.605 76.1182C173.462 72.621 176.872 63.4881 176.872 63.4881C176.872 63.4881 183.851 61.2641 184.449 56.8526C187.911 57.1927 191.399 57.0649 194.831 56.4723V56.4723Z" fill="#FFF4DE"/>
<path d="M135.622 169.466C133.796 176.693 127.884 183.611 128.249 185.164C128.614 186.717 130.891 188.621 130.295 191.069C129.878 192.778 126.536 191.949 123.946 193.323C121.356 194.696 122.204 196.124 118.044 196.277C113.883 196.431 110.378 196.277 110.378 196.277C110.378 196.277 110.45 194.568 112.348 194.179C114.246 193.791 120.441 189.907 122.339 182.056C124.096 174.792 124.674 169.466 124.674 169.466H135.622Z" fill="#FFB3A4"/>
<path d="M135.621 169.466C135.082 171.602 134.141 173.705 133.194 175.662C128.965 175.328 126.048 174.228 124.134 173.23C124.521 170.88 124.674 169.477 124.674 169.477L135.621 169.466Z" fill="#3A193F"/>
<path d="M176.332 102.947L173.351 106.134C172.256 106.444 142.555 116.47 138.541 122.298C134.526 128.126 121.464 170.477 121.464 170.477C121.464 170.477 127.009 174.623 140.44 173.062C140.44 173.062 148.1 156.026 149.195 132.633C149.195 132.633 183.129 135.122 188.092 126.416C193.056 117.711 188.829 104.579 188.829 104.579C188.829 104.579 180.092 104.166 176.332 102.947Z" fill="#A1CBE2"/>
<path d="M129.854 196.352H108.236C107.696 196.352 107.259 196.818 107.259 197.393V197.497C107.259 198.072 107.696 198.538 108.236 198.538H129.854C130.393 198.538 130.831 198.072 130.831 197.497V197.393C130.831 196.818 130.393 196.352 129.854 196.352Z" fill="#F97141"/>
<path d="M121.27 196.352C121.27 196.352 118.545 192.962 118.034 189.616C117.853 188.433 114.399 190.148 112.457 190.998C107.178 193.308 108.284 196.352 108.284 196.352H121.27Z" fill="#F97141"/>
<path d="M160.478 169.791C161.784 172.829 165.609 182.938 165.694 186.331C165.83 191.325 157.531 195.592 156.969 196.089C156.036 196.916 157.139 197.555 157.139 197.555C157.139 197.555 172.657 195.675 174.392 194.82C176.128 193.966 172.131 189.249 171.728 185.779C171.325 182.31 171.905 172.675 171.189 168.383L160.478 169.791Z" fill="#FFB3A4"/>
<path d="M171.58 174.73C169.21 175.557 166.115 176.463 163.154 176.798C162.129 173.873 161.055 171.137 160.476 169.791L171.199 168.383C171.465 169.964 171.554 172.273 171.58 174.73Z" fill="#3A193F"/>
<path d="M199.427 102.947C199.427 102.947 209.036 121.054 201.959 130.065C194.317 139.796 162.48 136.139 162.48 136.139C162.48 136.139 172.767 148.024 174.3 173.591C174.3 173.591 163.782 175.691 157.364 173.903C157.364 173.903 148.124 141.004 147.37 131.787C146.423 120.2 181.524 112.426 181.524 112.426L182.943 104.094C182.943 104.094 190.173 105.19 199.427 102.947Z" fill="#A1CBE2"/>
<path d="M175.573 194.886L154.117 197.704C153.582 197.774 153.201 198.293 153.267 198.863L153.279 198.967C153.345 199.538 153.833 199.943 154.368 199.873L175.824 197.055C176.36 196.985 176.74 196.465 176.674 195.895L176.662 195.791C176.596 195.221 176.108 194.816 175.573 194.886Z" fill="#FB9470"/>
<path d="M167.042 196.012C167.042 196.012 165.036 190.885 160.153 191.526C155.27 192.167 154.154 197.707 154.154 197.707L167.042 196.012Z" fill="#FB9470"/>
<path d="M215.372 99.0178C209.897 102.716 183.274 91.2051 183.274 91.2051C183.274 91.2051 181.669 93.6641 179.897 93.6641C178.126 93.6641 176.487 92.9292 175.564 93.6897C174.641 94.4502 173.678 95.6851 172.972 95.794C172.126 95.9414 171.258 95.8569 170.45 95.5483C170.45 95.5483 171.052 94.4075 171.684 93.3094C171.12 93.7132 170.354 94.6126 169.927 94.9651C169.76 95.1147 169.551 95.2007 169.333 95.2096C169.115 95.2185 168.9 95.1497 168.723 95.0142C168.723 95.0142 169.959 93.1919 170.436 92.7091C170.914 92.2263 172.27 91.6003 173.129 91.2649C174.071 90.8761 179.526 88.6073 182.218 88.274C185.075 87.9194 208.34 90.3527 208.34 90.3527C208.34 90.3527 203.042 76.2955 202.699 72.653C202.194 67.2801 204.338 64.0179 206.912 64.0136C211.494 63.9944 219.912 95.9521 215.372 99.0178Z" fill="#FFB3A4"/>
<path d="M171.309 95.7748C171.289 95.7754 171.269 95.7694 171.253 95.7577C171.241 95.7499 171.231 95.7397 171.223 95.7277C171.215 95.7157 171.21 95.7022 171.207 95.6879C171.204 95.6736 171.203 95.6588 171.206 95.6444C171.208 95.63 171.213 95.6162 171.221 95.6039C171.405 95.2962 173.04 92.5809 173.618 92.2754C174.621 91.7499 175.927 91.0556 175.927 91.0556L176.021 91.2564L173.712 92.4763C173.267 92.7113 171.891 94.901 171.397 95.7235C171.388 95.7394 171.375 95.7525 171.359 95.7615C171.344 95.7705 171.327 95.7751 171.309 95.7748V95.7748Z" fill="#DB7800"/>
<path d="M172.456 95.7748C172.438 95.7747 172.419 95.7692 172.403 95.7588C172.387 95.7484 172.373 95.7335 172.365 95.7158C172.356 95.698 172.352 95.678 172.353 95.6579C172.354 95.6379 172.36 95.6184 172.37 95.6017C172.434 95.4992 173.965 93.1193 174.551 92.8117C175.554 92.284 176.86 91.5918 176.86 91.5918L176.954 91.7905C176.954 91.7905 175.646 92.4848 174.645 93.0103C174.198 93.2453 172.976 95.0506 172.543 95.7278C172.533 95.7423 172.52 95.7542 172.505 95.7624C172.49 95.7705 172.473 95.7748 172.456 95.7748V95.7748Z" fill="#DB7800"/>
<path d="M265 99.9749H62V104.609H265V99.9749Z" fill="#FEDBCF"/>
<path d="M259.375 182.511H234.097V185.76H259.375V182.511Z" fill="#F4E8CE"/>
<path d="M255.86 104.762H237.578V109.069H255.86V104.762Z" fill="#FEDBCF"/>
<path d="M262.936 198.536C262.501 198.536 262.081 198.374 261.747 198.078C261.413 197.782 261.187 197.371 261.108 196.916L247.139 115.983C247.121 115.878 247.069 115.783 246.992 115.715C246.916 115.647 246.819 115.61 246.719 115.61C246.619 115.61 246.522 115.647 246.445 115.715C246.369 115.783 246.317 115.878 246.299 115.983L232.328 196.916C232.249 197.371 232.024 197.783 231.69 198.078C231.356 198.374 230.935 198.536 230.5 198.536V198.536C230.228 198.536 229.959 198.472 229.712 198.349C229.466 198.226 229.247 198.047 229.073 197.824C228.899 197.601 228.772 197.34 228.703 197.06C228.634 196.779 228.624 196.486 228.673 196.201L243.739 108.918H249.697L264.763 196.201C264.813 196.486 264.803 196.779 264.734 197.06C264.665 197.341 264.538 197.602 264.364 197.825C264.189 198.048 263.971 198.227 263.724 198.35C263.477 198.473 263.208 198.536 262.936 198.536Z" fill="#FEDBCF"/>
<path d="M92.9388 182.511H67.6614V185.76H92.9388V182.511Z" fill="#F4E8CE"/>
<path d="M89.422 104.762H71.14V109.069H89.422V104.762Z" fill="#FEDBCF"/>
<path d="M96.4997 198.536C96.0653 198.536 95.6446 198.374 95.3107 198.078C94.9768 197.782 94.7509 197.371 94.672 196.916L80.7012 115.985C80.6832 115.88 80.6313 115.785 80.5545 115.717C80.4777 115.649 80.3809 115.612 80.281 115.612C80.181 115.612 80.0842 115.649 80.0074 115.717C79.9306 115.785 79.8787 115.88 79.8607 115.985L65.8919 196.916C65.8131 197.371 65.5871 197.782 65.2532 198.078C64.9193 198.374 64.4986 198.536 64.0643 198.536C63.7918 198.536 63.5226 198.473 63.2757 198.35C63.0289 198.227 62.8105 198.048 62.636 197.825C62.4616 197.602 62.3354 197.341 62.2663 197.06C62.1973 196.779 62.1872 196.486 62.2367 196.201L77.3008 108.918H83.2611L98.3272 196.201C98.3764 196.486 98.366 196.779 98.2968 197.06C98.2277 197.34 98.1014 197.601 97.927 197.824C97.7526 198.047 97.5344 198.226 97.2877 198.349C97.0411 198.472 96.772 198.536 96.4997 198.536V198.536Z" fill="#FEDBCF"/>
<path d="M118.457 61.2086C119.524 61.2086 120.262 60.102 120.262 58.9377V52.4175C120.263 52.1168 120.207 51.8189 120.1 51.541C119.992 51.263 119.834 51.0104 119.634 50.7975C119.434 50.5847 119.198 50.4157 118.937 50.3004C118.676 50.185 118.396 50.1255 118.114 50.1252H104.173C103.891 50.1252 103.611 50.1845 103.35 50.2998C103.089 50.415 102.851 50.5839 102.652 50.7968C102.452 51.0097 102.294 51.2624 102.186 51.5405C102.078 51.8186 102.022 52.1166 102.023 52.4175V58.9377C102.023 59.5451 102.249 60.1276 102.652 60.5571C103.056 60.9866 103.603 61.2279 104.173 61.2279H112.344C114.35 61.2279 115.422 64.646 115.422 64.646C115.422 64.646 116.108 61.2086 118.457 61.2086Z" fill="#FEDBCF"/>
<path d="M107.156 56.4745C107.6 56.4745 107.959 56.0919 107.959 55.6199C107.959 55.148 107.6 54.7654 107.156 54.7654C106.713 54.7654 106.354 55.148 106.354 55.6199C106.354 56.0919 106.713 56.4745 107.156 56.4745Z" fill="#FB9470"/>
<path d="M111.14 56.53C111.584 56.53 111.943 56.1474 111.943 55.6755C111.943 55.2035 111.584 54.8209 111.14 54.8209C110.697 54.8209 110.338 55.2035 110.338 55.6755C110.338 56.1474 110.697 56.53 111.14 56.53Z" fill="#FB9470"/>
<path d="M115.125 56.53C115.568 56.53 115.927 56.1474 115.927 55.6755C115.927 55.2035 115.568 54.8209 115.125 54.8209C114.682 54.8209 114.322 55.2035 114.322 55.6755C114.322 56.1474 114.682 56.53 115.125 56.53Z" fill="#FB9470"/>
<path d="M145.771 69.2499H113.149C112.788 69.2494 112.433 69.3418 112.114 69.5191C111.794 69.6965 111.52 69.9536 111.314 70.2685C111.108 70.5833 110.976 70.9466 110.931 71.3272C110.885 71.7079 110.927 72.0946 111.052 72.4544L119.277 96.2534H157.479L148.972 71.6212C148.73 70.9248 148.294 70.3241 147.721 69.9001C147.149 69.4761 146.468 69.2492 145.771 69.2499V69.2499Z" fill="#F97141"/>
<path d="M145.129 70.4569H113.319C112.969 70.457 112.623 70.5472 112.312 70.7199C112.002 70.8927 111.735 71.1428 111.534 71.4491C111.333 71.7554 111.205 72.1087 111.161 72.479C111.116 72.8493 111.156 73.2256 111.277 73.576L119.302 96.7832H156.546L148.252 72.777C148.017 72.0966 147.591 71.5094 147.033 71.0946C146.474 70.6797 145.81 70.4572 145.129 70.4569Z" fill="#F84D11"/>
<path d="M119.203 96.247H181.779C182.199 96.247 182.615 96.3351 183.003 96.5062C183.391 96.6773 183.743 96.9282 184.04 97.2444C184.337 97.5606 184.573 97.936 184.733 98.3492C184.894 98.7623 184.977 99.2051 184.977 99.6523V99.7442H122.401C121.553 99.7442 120.74 99.3854 120.14 98.7468C119.54 98.1081 119.203 97.242 119.203 96.3388V96.247Z" fill="#F97141"/>
<path d="M135.732 86.4017C136.9 85.0198 136.549 82.6548 134.948 81.1192C133.346 79.5837 131.101 79.4591 129.932 80.8409C128.764 82.2228 129.115 84.5878 130.716 86.1234C132.318 87.6589 134.563 87.7835 135.732 86.4017Z" fill="#FFD473"/>
<path d="M165.555 97.4989H162.889V98.5179H165.555V97.4989Z" fill="#3A193F"/>
<path d="M170.649 97.4989H167.983V98.5179H170.649V97.4989Z" fill="#952E0A"/>
<path d="M234.404 90.1754H233.373V87.9515H223.962V98.0735C223.962 98.3233 224.008 98.5707 224.098 98.8015C224.187 99.0323 224.319 99.242 224.485 99.4186C224.65 99.5952 224.847 99.7353 225.064 99.8307C225.281 99.9262 225.513 99.9752 225.748 99.9749H231.588C232.061 99.9749 232.515 99.7746 232.85 99.418C233.185 99.0614 233.373 98.5778 233.373 98.0735V94.6233H234.404C234.958 94.6233 235.489 94.389 235.881 93.9719C236.273 93.5549 236.493 92.9892 236.493 92.3994C236.493 91.8096 236.273 91.2439 235.881 90.8268C235.489 90.4097 234.958 90.1754 234.404 90.1754V90.1754ZM235.139 93.2283C235.036 93.3371 234.915 93.4234 234.781 93.482C234.648 93.5407 234.505 93.5706 234.36 93.5701H233.373V91.2201H234.36C234.578 91.2197 234.791 91.2881 234.972 91.4167C235.153 91.5453 235.294 91.7283 235.378 91.9425C235.461 92.1567 235.483 92.3924 235.44 92.6198C235.398 92.8472 235.293 93.056 235.139 93.2197V93.2283Z" fill="white" stroke="#F1B104" stroke-width="0.5" stroke-miterlimit="10"/>
<path d="M229.385 87.003C228.889 86.4625 226.293 84.653 226.873 82.0488C227.453 79.4446 231.128 80.0086 231.016 77.0988C230.92 74.6314 228.889 75.6205 228.444 76.5199C228.444 76.5199 228.713 73.2641 231.505 74.3515C236.22 76.1866 230.747 81.4015 229.182 82.8435C227.746 84.1702 229.385 87.003 229.385 87.003Z" fill="#FFF4DE"/>
<path d="M232.681 80.0235C232.681 80.0235 232.079 82.2218 229.63 83.3028C229.63 83.3028 233.389 83.3028 232.681 80.0235Z" fill="#FFF4DE"/>
<path d="M259.798 99.9749C259.798 99.9749 266.852 58.8223 231.523 53.0776" stroke="#F97141" stroke-width="0.5" stroke-miterlimit="10"/>
<path d="M259.936 99.7463H241.131C242.443 96.5054 246.146 94.1682 250.534 94.1682C254.921 94.1682 258.624 96.5054 259.936 99.7463Z" fill="#F97141"/>
<path d="M259.936 99.7463H257.569C256.323 96.6721 252.801 94.4545 248.648 94.4545C248.355 94.4545 248.066 94.4545 247.781 94.4887C248.685 94.275 249.608 94.1676 250.534 94.1682C254.909 94.1682 258.624 96.5054 259.936 99.7463Z" fill="#C63E0E"/>
<path d="M231.826 53.4622C231.656 54.2762 231.054 54.9128 230.199 55.2995C229.22 55.7438 227.908 55.8613 226.544 55.5387C225.18 55.2162 224.039 54.5304 223.322 53.6758C222.7 52.9409 222.406 52.0928 222.574 51.2789C222.937 49.5313 225.302 48.602 227.858 49.2023C230.414 49.8026 232.189 51.7104 231.826 53.4622Z" fill="#F97141"/>
<path d="M231.827 53.4636C231.668 54.2263 231.127 54.8352 230.352 55.2282C230.716 54.9224 230.973 54.4949 231.081 54.0148C231.42 52.3826 229.763 50.6073 227.381 50.0455C225.134 49.5178 223.044 50.2591 222.528 51.7118C222.531 51.5681 222.546 51.425 222.575 51.2845C222.938 49.5349 225.303 48.6056 227.859 49.2059C230.415 49.8062 232.19 51.7139 231.827 53.4636Z" fill="#F97141"/>
<path d="M229.682 54.8914C228.704 55.2599 227.648 55.3286 226.635 55.09C225.623 54.8513 224.693 54.3147 223.952 53.5412C223.621 52.7721 225.575 52.503 227.098 52.8619C228.621 53.2208 230.312 54.4855 229.682 54.8914Z" fill="#F84D11"/>
<path d="M92.0481 36.0574H158.919V42.5775L92.034 36.5594C91.8575 36.5402 91.8695 36.0574 92.0481 36.0574Z" fill="#FEDBCF"/>
<path d="M151.709 3.80917H148.896C148.326 3.80917 147.863 4.30176 147.863 4.90939V29.4454C147.863 30.053 148.326 30.5456 148.896 30.5456H151.709C152.279 30.5456 152.742 30.053 152.742 29.4454V4.90939C152.742 4.30176 152.279 3.80917 151.709 3.80917Z" fill="white" stroke="#F97141" stroke-width="0.5" stroke-miterlimit="10"/>
<path d="M146.553 6.07156H143.195C142.637 6.07156 142.186 6.55267 142.186 7.14615V30.0009C142.186 30.5943 142.637 31.0754 143.195 31.0754H146.553C147.11 31.0754 147.562 30.5943 147.562 30.0009V7.14615C147.562 6.55267 147.11 6.07156 146.553 6.07156Z" fill="#F84D11"/>
<path d="M141.245 6.10352e-05H140.338C139.818 6.10352e-05 139.397 0.44865 139.397 1.00201V30.0735C139.397 30.6269 139.818 31.0754 140.338 31.0754H141.245C141.764 31.0754 142.186 30.6269 142.186 30.0735V1.00201C142.186 0.44865 141.764 6.10352e-05 141.245 6.10352e-05Z" fill="#D6EAF2"/>
<path d="M138.165 7.88318H135.75C135.18 7.88318 134.719 8.37481 134.719 8.98126V29.6612C134.719 30.2676 135.18 30.7592 135.75 30.7592H138.165C138.735 30.7592 139.196 30.2676 139.196 29.6612V8.98126C139.196 8.37481 138.735 7.88318 138.165 7.88318Z" fill="white" stroke="#F97141" stroke-width="0.5" stroke-miterlimit="10"/>
<path d="M126.391 31.0754H122.483L132.259 3.18108C132.297 3.07297 132.365 2.9797 132.454 2.91368C132.543 2.84766 132.648 2.81202 132.757 2.81149H135.529C135.616 2.81275 135.701 2.83622 135.777 2.87992C135.854 2.92362 135.919 2.98626 135.968 3.06254C136.017 3.13883 136.048 3.22651 136.058 3.31817C136.068 3.40983 136.057 3.50277 136.027 3.58913L126.391 31.0754Z" fill="#F84D11"/>
<path d="M158.728 31.0754H92.1946V35.7498H158.728V31.0754Z" fill="white" stroke="#FB9470" stroke-width="0.5" stroke-miterlimit="10"/>
<path d="M98.9192 20.712H115.707V22.6753C115.707 24.9037 114.875 27.0409 113.396 28.6166C111.916 30.1923 109.909 31.0776 107.816 31.0776H106.801C104.709 31.0776 102.702 30.1923 101.222 28.6166C99.7424 27.0409 98.9111 24.9037 98.9111 22.6753V20.712H98.9192Z" fill="#F84D11"/>
<path d="M114.027 20.712H101.589C101.589 20.712 97.9502 23.8716 95.8738 21.2802C94.3692 19.4045 101.567 19.3212 101.567 19.3212L101.784 19.24C101.784 19.24 98.6965 12.3353 101.615 11.1838C103.622 10.387 104.119 16.2363 104.223 18.1355C105.285 17.6634 107.355 16.9819 107.534 18.7764C107.534 18.7764 107.764 11.3868 110.671 12.0918C113.089 12.6793 109.504 19.6246 109.504 19.6246L109.754 19.7869C109.754 19.7869 116.397 14.6212 118.026 15.8219C119.257 16.7298 114.027 20.712 114.027 20.712Z" fill="#A1CBE2"/>
<path d="M103.493 20.712C103.493 20.712 103.622 14.3414 105.874 14.5165C108.127 14.6917 104.988 20.712 104.988 20.712H103.493Z" fill="#D6EAF2"/>
<path d="M103.493 20.712C103.493 20.712 101.234 14.7003 98.1728 16.2406C95.1817 17.736 101.615 20.712 101.615 20.712H103.493Z" fill="#D6EAF2"/>
<path d="M108.135 20.712C108.135 20.712 110.164 15.2963 113.379 15.8112C116.595 16.326 109.409 20.712 109.409 20.712H108.135Z" fill="#D6EAF2"/>
<path d="M111.443 20.712C111.443 20.712 117.735 17.3387 118.866 19.3725C119.998 21.4063 111.443 20.712 111.443 20.712Z" fill="#D6EAF2"/>
<path d="M185.815 49.3839C185.815 49.3839 187.473 49.5847 188.801 47.4761" stroke="#3A1A3F" stroke-width="0.5" stroke-linecap="round" stroke-linejoin="round"/>
<path d="M192.41 43.3338C192.41 43.3338 192.41 41.3854 194.015 41.4111" stroke="#E2564B" stroke-width="0.5" stroke-linecap="round" stroke-linejoin="round"/>
<path d="M192.781 42.2806L193.85 42.8125" stroke="#E2564B" stroke-width="0.5" stroke-linecap="round" stroke-linejoin="round"/>
<path d="M195.27 45.3484C195.719 45.3484 196.083 44.961 196.083 44.4831C196.083 44.0053 195.719 43.6179 195.27 43.6179C194.822 43.6179 194.458 44.0053 194.458 44.4831C194.458 44.961 194.822 45.3484 195.27 45.3484Z" fill="#FFCDC5"/>
<path d="M184.722 43.6179V46.957L185.559 47.3181" stroke="#E2564B" stroke-width="0.5" stroke-linecap="round" stroke-linejoin="round"/>
<path d="M186.134 40.7381C186.134 40.7381 187.051 39.9818 188.634 40.7381" stroke="#3A1A3F" stroke-width="0.5" stroke-linecap="round" stroke-linejoin="round"/>
<path d="M187.667 43.8832C187.967 43.8272 188.155 43.4464 188.087 43.0327C188.019 42.619 187.721 42.329 187.42 42.385C187.12 42.441 186.932 42.8218 187 43.2355C187.068 43.6492 187.367 43.9392 187.667 43.8832Z" fill="#242854"/>
<path d="M182.636 45.2446C182.933 45.1703 183.1 44.7786 183.01 44.3697C182.92 43.9608 182.606 43.6896 182.309 43.7639C182.013 43.8383 181.845 44.23 181.936 44.6388C182.026 45.0477 182.34 45.3189 182.636 45.2446Z" fill="#242854"/>
<path d="M157.364 173.901C157.364 173.901 148.124 141.001 147.37 131.785C146.423 120.2 181.524 112.426 181.524 112.426" stroke="#639AD6" stroke-width="0.5" stroke-miterlimit="10"/>
</svg>
