<svg width="335" height="201" viewBox="0 0 335 201" fill="none" xmlns="http://www.w3.org/2000/svg">
<path d="M246.7 20.5H238.2V29.6H246.7V20.5Z" fill="#F7A849"/>
<path d="M242.9 19.4H242V21.7H242.9V19.4Z" fill="#F84D11"/>
<path d="M232.8 20.5V39C232.8 39.8 232.5 40.6 231.9 41.2C231.4 41.8 230.6 42.1 229.8 42.1H214.8C215.5 42.1 216.3 41.7 216.8 41.1C217.3 40.5 217.6 39.8 217.6 39V20.5H232.8Z" fill="#D6EAF2"/>
<path d="M225.3 19.4H224.4V21.7H225.3V19.4Z" fill="#F84D11"/>
<path d="M229.6 24.7H220.6V25.2H229.6V24.7Z" fill="#639AD6"/>
<path d="M229.6 27.1H220.6V27.6H229.6V27.1Z" fill="#639AD6"/>
<path d="M229.6 29.4H220.6V29.9H229.6V29.4Z" fill="#639AD6"/>
<path d="M229.6 31.8H220.6V32.3H229.6V31.8Z" fill="#639AD6"/>
<path d="M229.6 34.2H220.6V34.7H229.6V34.2Z" fill="#639AD6"/>
<path d="M176.1 139.7L164.8 198.2H165.9L181 139.7" fill="#D6EAF2"/>
<path d="M216.2 138.3L227.7 198.2H226.7L211.6 139.7" fill="#D6EAF2"/>
<path d="M200.5 139.7L211.8 198.2H210.7L195.6 139.7" fill="#D6EAF2"/>
<path d="M228.5 111L221.7 132.6C221 134.8 219.7 136.7 217.9 138C216.1 139.3 214 140.1 211.8 140.1H173.2C171 140.1 168.9 139.4 167.1 138C165.3 136.7 164 134.7 163.3 132.6L157.7 114.8C157.5 114.1 157.4 113.3 157.5 112.6C157.6 111.8 157.9 111.1 158.3 110.5C158.7 109.9 159.3 109.4 159.9 109C160.5 108.7 161.2 108.5 161.9 108.5H166.2C167.2 108.5 168.1 108.1 168.9 107.4C169.6 106.7 170.1 105.8 170.3 104.7L172.8 85.7C173.1 83.5 174.1 81.5 175.7 80C177.3 78.5 179.3 77.7 181.4 77.7H216.2C217.4 77.7 218.7 78 219.8 78.5C220.9 79 221.9 79.8 222.7 80.8C223.5 81.8 224.1 83 224.5 84.2C224.9 85.4 224.9 86.8 224.8 88.1L222.6 104.5C222.5 105 222.6 105.5 222.7 105.9C222.8 106.4 223 106.8 223.3 107.1C223.6 107.5 224 107.7 224.4 107.9C224.8 108.1 225.2 108.2 225.7 108.2H226.7C227 108.2 227.3 108.3 227.5 108.4C227.7 108.5 228 108.7 228.1 109C228.3 109.2 228.4 109.5 228.4 109.8C228.7 110.4 228.6 110.7 228.5 111Z" fill="#D6EAF2"/>
<path d="M200.5 136.2H164.9V135.7H200.5C202.4 135.7 204.3 135.1 205.8 133.9C207.4 132.7 208.5 131 209.1 129.1L214 114.6C214.6 112.7 215.8 111 217.4 109.8C219 108.6 220.8 108 222.8 108H225.7V108.5H222.8C222.8 108.5 222.8 108.5 222.7 108.5C220.9 108.5 219.2 109.1 217.7 110.2C216.2 111.3 215.1 112.9 214.5 114.7L209.6 129.2C209 131.2 207.7 133 206.1 134.2C204.5 135.5 202.5 136.2 200.5 136.2Z" fill="white"/>
<path d="M210 77.1C209.8 77.1 209.6 77.1 209.4 77.1V76.6C214.9 76.8 218.9 74.4 220.1 70.2C221.1 66.8 219.9 63.3 217.1 61.6C213 59.1 213 58 213.1 53.3C213.1 52.8 213.1 52.2 213.1 51.6C213.2 44 208.5 42.4 205.4 41.3C203.2 40.5 202.6 38.3 202 36C201.1 32.9 200.3 29.7 195.3 29.5V29C200.6 29.1 201.6 32.7 202.4 35.8C203 38 203.6 40.1 205.5 40.8C209.6 42.2 213.6 44.2 213.5 51.6C213.5 52.2 213.5 52.8 213.5 53.3C213.4 58 213.4 58.8 217.3 61.2C220.3 63 221.6 66.7 220.5 70.4C219.3 74.6 215.4 77.1 210 77.1Z" fill="#41465A"/>
<path d="M181.9 36.4C182.1 35.8 183.9 27.5 195.6 29C204.3 30.1 200.8 40.6 204.9 42.1C208 43.2 212.8 44.9 212.3 52.5C211.9 58.7 211.3 59.5 215.6 62.5C221.5 66.5 219.2 78.6 206.9 77.4C194.6 76.2 176.3 76.7 175.4 74.1C174.8 72.2 169.6 61.2 177.2 56.5C179.5 55.1 183.7 53.3 183.2 50.5C182.4 44.8 179.6 42.9 181.9 36.4Z" fill="#252954"/>
<path d="M196.6 48C196.6 48 196 56.9 199.3 59.7L190.2 59.5C190.2 59.5 190.4 49.6 190.2 48H196.6Z" fill="#FFB3A4"/>
<path d="M192.2 55.2C195.7 55.2 198.5 53 198.5 50.3C198.5 47.6 195.7 45.4 192.2 45.4C188.7 45.4 185.9 47.6 185.9 50.3C185.9 53 188.7 55.2 192.2 55.2Z" fill="#242854"/>
<path d="M198.9 44.7C198.9 44.7 197.1 53.2 190.5 52.9C186.1 52.7 183.9 44.7 183.5 40.8C183.2 37.6 187.2 35.1 190.1 35.8C193.7 36.6 193.8 42.9 197.6 42.5L198.9 44.7Z" fill="#FFB3A4"/>
<path d="M188.2 41.4C186.7 41.8 185.2 42.4 183.8 43.1C183.6 42.3 183.4 41.5 183.3 40.7C183.1 38.3 185.1 36.4 187.4 35.8C187.6 35.9 187.9 36 188.1 36.1C189.3 36.4 187.5 38.8 188.2 41.4Z" fill="#EA786C"/>
<path d="M189.6 35.6C190.8 36.1 188.1 38.6 188.7 41.4C186.1 42 183.6 42.7 181.1 43.6C181.1 43.6 178.8 39.8 180.6 37.3C182.4 34.8 185.7 34.1 189.6 35.6Z" fill="#252954"/>
<path d="M197.6 45.1C198.8 45.1 199.8 44 199.8 42.7C199.8 41.4 198.8 40.3 197.6 40.3C196.4 40.3 195.4 41.4 195.4 42.7C195.4 44 196.3 45.1 197.6 45.1Z" fill="#FFB3A4"/>
<path d="M179 64C182 62.4 185.3 64.6 183.6 69.6C182.4 73.3 172 94.9 170.8 96.8C163.6 101.1 135.4 96.2 135.4 96.2C135.4 96.2 131.5 98 130.3 98C129.8 98 126.8 97.4 126.8 97.4C126.8 97.4 126.7 97 127.2 96.6C127.7 96.1 130.9 96.7 129.8 95.5C129.3 95 126.6 96 125.4 97.1C124.2 98.2 123.7 97.3 123.7 97.3C123.7 97.3 124.9 95.2 125.3 94.8C125.7 94.4 128.4 92.8 130.2 92.7C131.5 92.6 134.6 93 136.2 93.5C142.5 92.2 155.4 90.4 163.7 90.9C163.7 90.9 172.3 67.6 179 64Z" fill="#FFB3A4"/>
<path d="M198.8 56.5C198.8 56.5 200.7 60.2 211.3 64.1C211.3 64.1 211.3 68.9 209.5 75.3C206.8 85.4 203.3 99.5 203.3 105C203.3 105 191.9 108.5 180.1 105C180.1 105 180.2 88.2 179.2 87.4C178.2 86.6 175.6 79.6 176.5 76.1C177.4 72.6 180.8 63.5 180.8 63.5C180.8 63.5 187.8 61.3 188.4 56.9C191.9 57.2 195.4 57.1 198.8 56.5Z" fill="#FFF4DE"/>
<path d="M139.6 169.5C137.8 176.7 131.9 183.6 132.2 185.2C132.6 186.8 134.8 188.7 134.2 191.1C133.8 192.8 130.4 192 127.9 193.4C125.3 194.8 126.2 196.2 122 196.4C117.8 196.6 114.3 196.4 114.3 196.4C114.3 196.4 114.4 194.7 116.3 194.3C118.2 193.9 124.4 190 126.3 182.2C128.1 174.9 128.6 169.6 128.6 169.6H139.6V169.5Z" fill="#FFB3A4"/>
<path d="M139.6 169.5C139.1 171.6 138.1 173.7 137.2 175.7C133 175.4 130.1 174.3 128.1 173.3C128.5 170.9 128.6 169.5 128.6 169.5H139.6Z" fill="#3A193F"/>
<path d="M180.3 103L177.3 106.2C176.2 106.5 146.5 116.5 142.5 122.4C138.5 128.2 125.4 170.6 125.4 170.6C125.4 170.6 130.9 174.7 144.4 173.2C144.4 173.2 152.1 156.2 153.2 132.8C153.2 132.8 187.1 135.3 192.1 126.6C197.1 117.9 192.8 104.8 192.8 104.8C192.8 104.8 184.1 104.2 180.3 103Z" fill="#A1CBE2"/>
<path d="M133.9 196.4H112.3C111.8 196.4 111.3 196.9 111.3 197.4V197.5C111.3 198.1 111.7 198.5 112.3 198.5H133.9C134.4 198.5 134.9 198 134.9 197.5V197.4C134.8 196.8 134.4 196.4 133.9 196.4Z" fill="#F5921B"/>
<path d="M125.3 196.4C125.3 196.4 122.6 193 122.1 189.7C121.9 188.5 118.5 190.2 116.5 191.1C111.2 193.4 112.3 196.5 112.3 196.5H125.3V196.4Z" fill="#F5921B"/>
<path d="M164.5 169.8C165.8 172.8 169.6 182.9 169.7 186.3C169.8 191.3 161.5 195.6 161 196.1C160.1 196.9 161.2 197.6 161.2 197.6C161.2 197.6 176.7 195.7 178.5 194.9C180.2 194 176.2 189.3 175.8 185.9C175.4 182.4 176 172.8 175.3 168.5L164.5 169.8Z" fill="#FFB3A4"/>
<path d="M175.6 174.7C173.2 175.5 170.1 176.4 167.2 176.8C166.2 173.9 165.1 171.1 164.5 169.8L175.2 168.4C175.5 170 175.6 172.3 175.6 174.7Z" fill="#3A193F"/>
<path d="M203.4 103C203.4 103 213 121.1 205.9 130.1C198.3 139.8 166.4 136.2 166.4 136.2C166.4 136.2 176.7 148.1 178.2 173.7C178.2 173.7 167.7 175.8 161.3 174C161.3 174 152.1 141.1 151.3 131.9C150.4 120.3 185.5 112.5 185.5 112.5L186.9 104.2C186.9 104.1 194.2 105.2 203.4 103Z" fill="#A1CBE2"/>
<path d="M179.6 194.9L158.1 197.7C157.6 197.8 157.2 198.3 157.2 198.9V199C157.3 199.6 157.8 200 158.3 199.9L179.8 197.1C180.3 197 180.7 196.5 180.6 195.9V195.8C180.6 195.2 180.1 194.8 179.6 194.9Z" fill="#F7A849"/>
<path d="M171 196C171 196 169 190.9 164.1 191.5C159.2 192.1 158.1 197.7 158.1 197.7L171 196Z" fill="#F7A849"/>
<path d="M219.4 99C213.9 102.7 187.3 91.2 187.3 91.2C187.3 91.2 185.7 93.7 183.9 93.7C182.1 93.7 180.5 93 179.6 93.7C178.7 94.5 177.7 95.7 177 95.8C176.2 95.9 175.3 95.9 174.5 95.6C174.5 95.6 175.1 94.5 175.7 93.4C175.1 93.8 174.4 94.7 173.9 95.1C173.7 95.2 173.5 95.3 173.3 95.3C173.1 95.3 172.9 95.2 172.7 95.1C172.7 95.1 173.9 93.3 174.4 92.8C174.9 92.3 176.2 91.7 177.1 91.4C178 91 183.5 88.7 186.2 88.4C189.1 88 212.3 90.5 212.3 90.5C212.3 90.5 207 76.4 206.7 72.8C206.2 67.4 208.3 64.2 210.9 64.2C215.5 64 223.9 96 219.4 99Z" fill="#FFB3A4"/>
<path d="M175.3 95.8C175.2 95.8 175.2 95.7 175.3 95.8C175.2 95.7 175.2 95.7 175.2 95.7C175.4 95.4 177 92.7 177.6 92.4C178.6 91.9 179.9 91.2 179.9 91.2L180 91.4L177.7 92.6C177.3 92.7 175.9 94.9 175.3 95.8C175.4 95.7 175.4 95.8 175.3 95.8Z" fill="#DB7800"/>
<path d="M176.5 95.8C176.4 95.8 176.4 95.8 176.5 95.8C176.4 95.8 176.4 95.7 176.5 95.8C176.4 95.7 176.4 95.7 176.4 95.7C176.4 95.7 176.4 95.7 176.4 95.6C176.5 95.5 178 93.1 178.6 92.8C179.6 92.3 180.9 91.6 180.9 91.6L181 91.8C181 91.8 179.7 92.5 178.7 93C178.2 93.3 177 95.1 176.5 95.8Z" fill="#DB7800"/>
<path d="M269 100H66V104.6H269V100Z" fill="#F9BE76"/>
<path d="M263.4 182.5H238.1V185.7H263.4V182.5Z" fill="#F4E8CE"/>
<path d="M259.9 104.8H241.6V109.1H259.9V104.8Z" fill="#F9BE76"/>
<path d="M266.9 198.5C266.5 198.5 266 198.3 265.7 198C265.4 197.7 265.1 197.3 265.1 196.8L251.1 115.9C251.1 115.8 251 115.7 251 115.6C250.9 115.5 250.8 115.5 250.7 115.5C250.6 115.5 250.5 115.5 250.4 115.6C250.3 115.7 250.3 115.8 250.3 115.9L236.3 196.8C236.2 197.3 236 197.7 235.7 198C235.4 198.3 234.9 198.5 234.5 198.5C234.2 198.5 234 198.4 233.7 198.3C233.5 198.2 233.2 198 233.1 197.8C233 197.6 232.8 197.3 232.7 197C232.6 196.7 232.6 196.4 232.7 196.1L247.8 108.8H253.8L268.9 196.1C268.9 196.4 268.9 196.7 268.9 197C268.8 197.3 268.7 197.5 268.5 197.8C268.3 198 268.1 198.2 267.9 198.3C267.5 198.5 267.2 198.5 266.9 198.5Z" fill="#F9BE76"/>
<path d="M96.9 182.5H71.7V185.7H97V182.5H96.9Z" fill="#F4E8CE"/>
<path d="M93.4 104.8H75.1V109.1H93.4V104.8Z" fill="#F9BE76"/>
<path d="M100.5 198.5C100.1 198.5 99.6 198.3 99.3 198C99 197.7 98.7 197.3 98.7 196.8L84.7 115.9C84.7 115.8 84.6 115.7 84.6 115.6C84.5 115.5 84.4 115.5 84.3 115.5C84.2 115.5 84.1 115.5 84 115.6C83.9 115.7 83.9 115.8 83.9 115.9L69.9 196.8C69.8 197.3 69.6 197.7 69.3 198C69 198.3 68.5 198.5 68.1 198.5C67.8 198.5 67.6 198.4 67.3 198.3C67.1 198.2 66.8 198 66.7 197.8C66.5 197.6 66.4 197.3 66.3 197C66.2 196.7 66.2 196.4 66.3 196.1L81.4 108.8H87.4L102.5 196.1C102.5 196.4 102.5 196.7 102.5 197C102.4 197.3 102.3 197.5 102.1 197.8C101.9 198.1 101.7 198.2 101.5 198.3C101 198.5 100.8 198.5 100.5 198.5Z" fill="#F9BE76"/>
<path d="M122.5 61.2C123.6 61.2 124.3 60.1 124.3 58.9V52.4C124.3 52.1 124.2 51.8 124.1 51.5C124 51.2 123.8 51 123.6 50.8C123.4 50.6 123.2 50.4 122.9 50.3C122.6 50.2 122.4 50.1 122.1 50.1H108.2C107.9 50.1 107.6 50.2 107.4 50.3C107.1 50.4 106.9 50.6 106.7 50.8C106.5 51 106.3 51.3 106.2 51.5C106.1 51.8 106 52.1 106 52.4V58.9C106 59.5 106.2 60.1 106.6 60.5C107 60.9 107.5 61.2 108.1 61.2H116.3C118.3 61.2 119.4 64.6 119.4 64.6C119.4 64.6 120.1 61.2 122.5 61.2Z" fill="#FEDBCF"/>
<path d="M111.2 56.5C111.6 56.5 112 56.1 112 55.6C112 55.1 111.6 54.7 111.2 54.7C110.8 54.7 110.4 55.1 110.4 55.6C110.4 56.1 110.7 56.5 111.2 56.5Z" fill="#FB9470"/>
<path d="M115.1 56.5C115.5 56.5 115.9 56.1 115.9 55.6C115.9 55.1 115.5 54.7 115.1 54.7C114.7 54.7 114.3 55.1 114.3 55.6C114.3 56.2 114.7 56.5 115.1 56.5Z" fill="#FB9470"/>
<path d="M119.1 56.5C119.5 56.5 119.9 56.1 119.9 55.6C119.9 55.1 119.5 54.7 119.1 54.7C118.7 54.7 118.3 55.1 118.3 55.6C118.3 56.2 118.7 56.5 119.1 56.5Z" fill="#FB9470"/>
<path d="M149.8 69.3H117.2C116.8 69.3 116.5 69.4 116.2 69.6C115.9 69.8 115.6 70 115.4 70.3C115.2 70.6 115.1 71 115 71.4C115 71.8 115 72.2 115.1 72.5L123.3 96.3H161.5L153 71.6C152.8 70.9 152.3 70.3 151.7 69.9C151.1 69.5 150.5 69.3 149.8 69.3Z" fill="#F97141"/>
<path d="M149.1 70.5H117.3C117 70.5 116.6 70.6 116.3 70.8C116 71 115.7 71.2 115.5 71.5C115.3 71.8 115.2 72.2 115.1 72.5C115.1 72.9 115.1 73.2 115.2 73.6L123.2 96.8H160.4L152.1 72.8C151.9 72.1 151.4 71.5 150.9 71.1C150.5 70.7 149.8 70.5 149.1 70.5Z" fill="#F5921B"/>
<path d="M123.2 96.3H185.8C186.2 96.3 186.6 96.4 187 96.6C187.4 96.8 187.7 97 188 97.3C188.3 97.6 188.5 98 188.7 98.4C188.9 98.8 188.9 99.3 188.9 99.7V99.8H126.3C125.5 99.8 124.6 99.4 124 98.8C123.5 98.1 123.2 97.3 123.2 96.3Z" fill="#F5921B"/>
<path d="M139.7 86.4C140.9 85 140.5 82.7 138.9 81.1C137.3 79.6 135.1 79.4 133.9 80.8C132.7 82.2 133.1 84.5 134.7 86.1C136.3 87.7 138.6 87.8 139.7 86.4Z" fill="#FFD473"/>
<path d="M169.6 97.5H166.9V98.5H169.6V97.5Z" fill="#3A193F"/>
<path d="M174.6 97.5H172V98.5H174.7V97.5H174.6Z" fill="#952E0A"/>
<path d="M238.4 90.2H237.4V88H228V98.1C228 98.3 228 98.6 228.1 98.8C228.2 99 228.3 99.2 228.5 99.4C228.7 99.6 228.9 99.7 229.1 99.8C229.3 99.9 229.5 99.9 229.8 99.9H235.6C236.1 99.9 236.5 99.7 236.9 99.3C237.2 98.9 237.4 98.5 237.4 98V94.5H238.4C239 94.5 239.5 94.3 239.9 93.8C240.3 93.4 240.5 92.8 240.5 92.2C240.5 91.6 240.3 91 239.9 90.6C239.5 90.2 239 90.2 238.4 90.2ZM239.1 93.2C239 93.3 238.9 93.4 238.7 93.5C238.6 93.6 238.4 93.6 238.3 93.6H237.3V91.3H238.3C238.5 91.3 238.7 91.4 238.9 91.5C239.1 91.6 239.2 91.8 239.3 92C239.4 92.2 239.4 92.4 239.4 92.7C239.4 92.9 239.3 93.1 239.1 93.2Z" fill="white"/>
<path d="M229.7 100.2C229.4 100.2 229.2 100.1 228.9 100C228.7 99.9 228.4 99.7 228.2 99.5C228 99.3 227.9 99.1 227.8 98.8C227.7 98.5 227.6 98.3 227.6 98V87.7H237.5V89.9H238.3C238.9 89.9 239.5 90.2 240 90.6C240.4 91.1 240.7 91.7 240.7 92.3C240.7 93 240.5 93.6 240 94C239.6 94.5 239 94.7 238.3 94.7H237.5V97.9C237.5 98.5 237.3 99 236.9 99.4C236.5 99.8 236 100 235.5 100H229.7C229.7 100.2 229.7 100.2 229.7 100.2ZM228.2 88.2V98.1C228.2 98.3 228.2 98.5 228.3 98.7C228.4 98.9 228.5 99.1 228.6 99.2C228.7 99.4 228.9 99.5 229.1 99.6C229.3 99.7 229.5 99.7 229.7 99.7H235.5C235.9 99.7 236.3 99.5 236.6 99.2C236.9 98.9 237.1 98.5 237.1 98V94.3H238.4C238.9 94.3 239.3 94.1 239.7 93.7C240.1 93.3 240.2 92.8 240.2 92.3C240.2 91.8 240 91.3 239.7 90.9C239.4 90.5 238.9 90.3 238.4 90.3H237.1V88.1H228.2V88.2ZM237.4 93.8H237.2V91H238.4C238.7 91 238.9 91.1 239.2 91.2C239.4 91.4 239.6 91.6 239.7 91.8C239.8 92 239.8 92.3 239.8 92.6C239.8 92.8 239.7 93.1 239.5 93.2L239.4 93.3C239.3 93.4 239.1 93.5 239 93.6C238.9 93.7 238.7 93.7 238.5 93.7H237.4V93.8ZM237.6 93.3H238.3C238.4 93.3 238.5 93.3 238.6 93.2C238.7 93.2 238.7 93.1 238.8 93.1L238.9 93C239 92.9 239.1 92.7 239.1 92.5C239.1 92.3 239.1 92.1 239.1 92C239 91.8 238.9 91.7 238.8 91.6C238.7 91.5 238.5 91.4 238.3 91.4H237.6V93.3Z" fill="#F1B104"/>
<path d="M233.4 87C232.9 86.5 230.3 84.7 230.9 82C231.5 79.4 235.2 80 235 77.1C234.9 74.6 232.9 75.6 232.4 76.5C232.4 76.5 232.7 73.2 235.5 74.3C240.2 76.1 234.7 81.3 233.2 82.8C231.7 84.2 233.4 87 233.4 87Z" fill="#FFF4DE"/>
<path d="M236.7 80C236.7 80 236.1 82.2 233.6 83.3C233.6 83.3 237.4 83.3 236.7 80Z" fill="#FFF4DE"/>
<path d="M264 100L263.5 99.9C263.5 99.7 266.8 79.7 257 65.9C252.1 59.1 244.9 54.9 235.5 53.3L235.6 52.8C245.2 54.4 252.5 58.7 257.5 65.6C267.4 79.6 264.1 99.8 264 100Z" fill="#F5921B"/>
<path d="M263.9 99.8H245.1C246.4 96.6 250.1 94.2 254.5 94.2C258.9 94.2 262.6 96.5 263.9 99.8Z" fill="#F5921B"/>
<path d="M263.9 99.8H261.5C260.3 96.7 256.7 94.5 252.6 94.5C252.3 94.5 252 94.5 251.7 94.5C252.6 94.3 253.5 94.2 254.5 94.2C258.9 94.2 262.6 96.5 263.9 99.8Z" fill="#C47516"/>
<path d="M235.8 53.5C235.6 54.3 235 55 234.2 55.3C233.2 55.7 231.9 55.9 230.5 55.5C229.1 55.2 228 54.5 227.3 53.6C226.7 52.9 226.4 52 226.6 51.2C227 49.5 229.3 48.5 231.9 49.1C234.5 49.7 236.2 51.7 235.8 53.5Z" fill="#F7A849"/>
<path d="M235.8 53.5C235.6 54.3 235.1 54.9 234.3 55.3C234.7 55 234.9 54.6 235 54.1C235.3 52.5 233.7 50.7 231.3 50.1C229.1 49.6 227 50.3 226.4 51.8C226.4 51.7 226.4 51.5 226.4 51.4C226.8 49.7 229.1 48.7 231.7 49.3C234.4 49.8 236.2 51.7 235.8 53.5Z" fill="#F5921B"/>
<path d="M233.7 54.9C232.7 55.3 231.7 55.3 230.7 55.1C229.7 54.9 228.8 54.3 228 53.6C227.7 52.8 229.6 52.6 231.1 52.9C232.6 53.2 234.3 54.5 233.7 54.9Z" fill="#F5921B"/>
<path d="M96 36.1H162.9V42.6L96 36.6C95.9 36.6 95.9 36.1 96 36.1Z" fill="#F7A849"/>
<path d="M155.7 3.8H152.9C152.3 3.8 151.9 4.3 151.9 4.9V29.4C151.9 30 152.4 30.5 152.9 30.5H155.7C156.3 30.5 156.7 30 156.7 29.4V4.9C156.7 4.3 156.3 3.8 155.7 3.8Z" fill="#F9FAFB"/>
<path d="M155.7 30.8H152.9C152.2 30.8 151.6 30.2 151.6 29.4V4.9C151.6 4.2 152.2 3.5 152.9 3.5H155.7C156.4 3.5 157 4.1 157 4.9V29.4C157 30.2 156.4 30.8 155.7 30.8ZM152.9 4.1C152.5 4.1 152.1 4.5 152.1 5V29.5C152.1 30 152.5 30.4 152.9 30.4H155.7C156.1 30.4 156.5 30 156.5 29.5V4.9C156.5 4.4 156.1 4 155.7 4H152.9V4.1Z" fill="#F5921B"/>
<path d="M150.6 6.1H147.2C146.6 6.1 146.2 6.6 146.2 7.2V30C146.2 30.6 146.7 31.1 147.2 31.1H150.6C151.2 31.1 151.6 30.6 151.6 30V7.2C151.6 6.6 151.1 6.1 150.6 6.1Z" fill="#F5921B"/>
<path d="M145.2 0H144.3C143.8 0 143.4 0.4 143.4 1V30.1C143.4 30.7 143.8 31.1 144.3 31.1H145.2C145.7 31.1 146.1 30.7 146.1 30.1V1C146.2 0.5 145.8 0 145.2 0Z" fill="#D6EAF2"/>
<path d="M142.2 7.89999H139.8C139.2 7.89999 138.8 8.39999 138.8 8.99999V29.7C138.8 30.3 139.3 30.8 139.8 30.8H142.2C142.8 30.8 143.2 30.3 143.2 29.7V8.99999C143.2 8.39999 142.7 7.89999 142.2 7.89999Z" fill="#F9FAFB"/>
<path d="M142.2 31H139.8C139.1 31 138.5 30.4 138.5 29.7V9C138.5 8.3 139.1 7.7 139.8 7.7H142.2C142.9 7.7 143.5 8.3 143.5 9V29.7C143.4 30.4 142.9 31 142.2 31ZM139.8 8.1C139.4 8.1 139 8.5 139 8.9V29.6C139 30.1 139.4 30.4 139.8 30.4H142.2C142.6 30.4 143 30 143 29.6V9C143 8.5 142.6 8.2 142.2 8.2H139.8V8.1Z" fill="#F5921B"/>
<path d="M130.4 31.1H126.5L136.3 3.2C136.3 3.1 136.4 3 136.5 2.9C136.6 2.8 136.7 2.8 136.8 2.8H139.6C139.7 2.8 139.8 2.8 139.8 2.9C139.9 2.9 139.9 3 140 3.1C140 3.2 140.1 3.3 140.1 3.4C140.1 3.5 140.1 3.6 140.1 3.7L130.4 31.1Z" fill="#F5921B"/>
<path d="M162.7 31.1H96.2V35.8H162.7V31.1Z" fill="#F9FAFB"/>
<path d="M163 36H96V30.8H163V36ZM96.4 35.5H162.4V31.3H96.4V35.5Z" fill="#F9BE76"/>
<path d="M102.9 20.7H119.7V22.7C119.7 24.9 118.9 27.1 117.4 28.6C115.9 30.2 113.9 31.1 111.8 31.1H110.8C108.7 31.1 106.7 30.2 105.2 28.6C103.7 27 102.9 24.9 102.9 22.7V20.7Z" fill="#F5921B"/>
<path d="M118 20.7H105.6C105.6 20.7 102 23.9 99.9 21.3C98.4 19.4 105.6 19.3 105.6 19.3L105.8 19.2C105.8 19.2 102.7 12.3 105.6 11.1C107.6 10.3 108.1 16.2 108.2 18.1C109.3 17.6 111.3 16.9 111.5 18.7C111.5 18.7 111.7 11.3 114.6 12C117 12.6 113.4 19.5 113.4 19.5L113.6 19.7C113.6 19.7 120.2 14.5 121.9 15.7C123.3 16.7 118 20.7 118 20.7Z" fill="#A1CBE2"/>
<path d="M107.5 20.7C107.5 20.7 107.6 14.3 109.9 14.5C112.2 14.7 109 20.7 109 20.7H107.5Z" fill="#D6EAF2"/>
<path d="M107.5 20.7C107.5 20.7 105.2 14.7 102.2 16.2C99.2 17.7 105.6 20.7 105.6 20.7H107.5Z" fill="#D6EAF2"/>
<path d="M112.1 20.7C112.1 20.7 114.1 15.3 117.3 15.8C120.5 16.3 113.3 20.7 113.3 20.7H112.1Z" fill="#D6EAF2"/>
<path d="M115.4 20.7C115.4 20.7 121.7 17.3 122.8 19.4C124 21.4 115.4 20.7 115.4 20.7Z" fill="#D6EAF2"/>
<path d="M189.9 49.6C189.8 49.6 189.8 49.6 189.7 49.6C189.6 49.6 189.5 49.5 189.5 49.3C189.5 49.2 189.6 49.1 189.8 49.1C189.9 49.1 191.3 49.2 192.5 47.3C192.6 47.2 192.7 47.1 192.8 47.2C192.9 47.3 193 47.4 192.9 47.5C191.8 49.5 190.4 49.6 189.9 49.6Z" fill="#3A1A3F"/>
<path d="M196.4 43.6C196.3 43.6 196.2 43.5 196.2 43.4C196.2 43.4 196.2 42.3 196.8 41.7C197.1 41.4 197.5 41.2 198 41.2C198.1 41.2 198.2 41.3 198.2 41.5C198.2 41.6 198.1 41.7 198 41.7C197.7 41.7 197.4 41.8 197.2 42C196.7 42.5 196.7 43.4 196.7 43.4C196.7 43.5 196.5 43.6 196.4 43.6Z" fill="#E2564B"/>
<path d="M197.8 43.1H197.7L196.6 42.6C196.5 42.5 196.4 42.4 196.5 42.3C196.6 42.2 196.7 42.1 196.8 42.2L197.9 42.7C198 42.8 198.1 42.9 198 43C198 43 197.9 43.1 197.8 43.1Z" fill="#E2564B"/>
<path d="M199.3 45.4C199.7 45.4 200.1 45 200.1 44.5C200.1 44 199.7 43.6 199.3 43.6C198.9 43.6 198.5 44 198.5 44.5C198.5 45 198.8 45.4 199.3 45.4Z" fill="#FFCDC5"/>
<path d="M189.6 47.6C189.5 47.6 189.5 47.6 189.6 47.6L188.7 47.2C188.6 47.2 188.5 47.1 188.5 47V43.7C188.5 43.6 188.6 43.5 188.7 43.5C188.8 43.5 188.9 43.6 188.9 43.7V46.9L189.6 47.2C189.7 47.3 189.8 47.4 189.7 47.5C189.7 47.5 189.7 47.6 189.6 47.6Z" fill="#E2564B"/>
<path d="M192.6 41H192.5C191.1 40.3 190.3 40.9 190.3 41C190.2 41.1 190 41.1 189.9 41C189.8 40.9 189.8 40.7 189.9 40.7C189.9 40.7 191 39.9 192.7 40.7C192.8 40.8 192.9 40.9 192.8 41C192.8 40.9 192.7 41 192.6 41Z" fill="#3A1A3F"/>
<path d="M191.7 43.9C192 43.8 192.2 43.5 192.1 43C192 42.6 191.7 42.3 191.4 42.4C191.1 42.5 190.9 42.8 191 43.3C191.1 43.8 191.4 43.9 191.7 43.9Z" fill="#242854"/>
<path d="M186.6 45.3C186.9 45.2 187.1 44.8 187 44.4C186.9 44 186.6 43.7 186.3 43.8C186 43.9 185.8 44.3 185.9 44.7C186 45.1 186.3 45.3 186.6 45.3Z" fill="#242854"/>
<path d="M161.1 174C161 173.7 151.8 141 151.1 131.8C150.1 120.1 184 112.5 185.4 112.2L185.5 112.7C185.2 112.8 150.6 120.6 151.5 131.8C152.2 140.9 161.4 173.5 161.5 173.9L161.1 174Z" fill="#639AD6"/>
</svg>
