<svg width="363" height="202" viewBox="0 0 363 202" fill="none" xmlns="http://www.w3.org/2000/svg">
<g clip-path="url(#clip0)">
<path d="M194.4 138.61V139.41C194.4 139.71 194.3 140.01 194.2 140.31C194.1 140.61 193.9 140.81 193.7 141.01C193.5 141.21 193.2 141.41 193 141.51C192.7 141.61 192.4 141.71 192.1 141.71H131.2C128 141.71 124.9 140.61 122.4 138.61C119.9 136.61 118.2 133.81 117.5 130.71L106.7 82.0099C106.4 80.8099 106.4 79.6099 106.7 78.5099C107 77.3099 107.5 76.3099 108.2 75.3099C108.9 74.4099 109.9 73.6099 111 73.1099C112.1 72.6099 113.2 72.3099 114.4 72.3099H135.5C137.9 72.3099 140.2 73.1099 142.1 74.6099C144 76.1099 145.3 78.2099 145.8 80.5099L155.8 125.01C156.5 128.21 158.3 131.01 160.8 133.11C163.4 135.11 166.5 136.31 169.8 136.31H192.2C192.8 136.31 193.4 136.51 193.8 137.01C194.2 137.41 194.4 138.01 194.4 138.61Z" fill="#D6EAF2"/>
<path d="M155.2 196.41H124V195.91H155.2C156.5 195.91 157.7 195.61 158.9 195.21C160.1 194.71 161.1 194.01 162.1 193.11C163 192.21 163.7 191.11 164.2 189.91C164.7 188.71 164.9 187.51 164.9 186.21V152.01C164.9 149.41 163.9 146.91 162.1 145.11C160.3 143.31 157.8 142.21 155.2 142.21H128.9V141.71H155.2C157.9 141.71 160.5 142.81 162.4 144.71C164.3 146.61 165.4 149.21 165.4 151.91V186.11C165.4 187.51 165.1 188.81 164.6 190.01C164.1 191.31 163.3 192.41 162.4 193.31C161.4 194.31 160.3 195.01 159.1 195.51C157.9 196.11 156.6 196.41 155.2 196.41Z" fill="#639AD6"/>
<path d="M177.3 196.41H152.3V195.91H177.3C179.9 195.91 182.3 194.91 184.2 193.01C186 191.21 187 188.71 187 186.11V151.91C187 149.31 186 146.91 184.2 145.01C182.4 143.21 179.9 142.11 177.3 142.11H142.3V141.61H177.3C180 141.61 182.6 142.71 184.5 144.61C186.4 146.51 187.5 149.11 187.5 151.81V186.01C187.5 188.71 186.4 191.31 184.5 193.21C182.6 195.31 180 196.41 177.3 196.41Z" fill="#639AD6"/>
<path d="M187.3 176.71H165.2V177.21H187.3V176.71Z" fill="#639AD6"/>
<path d="M170.6 56.0099C170.6 56.0099 180.8 56.7099 185.8 66.0099C190.8 75.3099 197 88.1099 197 88.1099C197 88.1099 214.5 87.6099 227.5 95.7099V101.51H190.3C185.7 101.51 170.7 83.8099 169.9 72.4099C168.9 60.9099 170.6 56.0099 170.6 56.0099Z" fill="#F5921B"/>
<path d="M224.5 101.41C223.8 101.21 224.3 98.8099 224.7 97.4099C224.9 96.6099 225.5 96.2099 226.3 95.8099C227.8 95.1099 230.5 94.3099 232 94.6099C234.2 95.1099 235.6 96.5099 237 98.2099C237.4 98.7099 239.3 101.01 239.3 101.61L224.5 101.41Z" fill="#A57574"/>
<path d="M151.4 52.2099C144.9 52.2099 131.5 65.7099 133.9 100.11C135.6 125.41 143.5 136.01 145.3 135.31C147 134.61 168.1 116.11 170.9 106.21C173.8 96.2099 189 62.1099 168.9 55.5099C154.9 50.9099 153.5 52.2099 151.4 52.2099Z" fill="#F5921B"/>
<path d="M216.8 196.31H194C194 196.01 194 195.61 194 195.31H216.9C216.8 195.61 216.8 195.91 216.8 196.31Z" fill="white"/>
<path d="M196.3 186.11C196.4 188.61 194 190.21 194 195.31H216.8C216.8 195.31 217.1 191.01 212.6 190.01C208 189.01 203.9 187.71 203.5 186.11H196.3V186.11Z" fill="#A1CBE2"/>
<path d="M203.6 191.01H203.5C203.4 190.91 203.4 190.81 203.4 190.71L205.5 187.61C205.6 187.51 205.7 187.51 205.8 187.51C205.9 187.51 205.9 187.71 205.9 187.81L203.8 190.91C203.8 190.91 203.7 191.01 203.6 191.01Z" fill="white"/>
<path d="M205.2 191.31H205.1C205 191.21 205 191.11 205 191.01L207 188.21C207.1 188.11 207.2 188.11 207.3 188.11C207.4 188.21 207.4 188.31 207.4 188.41L205.4 191.21C205.4 191.31 205.3 191.31 205.2 191.31Z" fill="white"/>
<path d="M207.3 191.51H207.2C207.1 191.41 207 191.31 207.1 191.21L208.7 188.61C208.8 188.51 208.9 188.41 209 188.51C209.1 188.61 209.2 188.71 209.1 188.81L207.5 191.41C207.5 191.41 207.4 191.51 207.3 191.51Z" fill="white"/>
<path d="M171.8 107.91C171.8 107.91 206.6 105.71 215.1 115.71C223.6 125.71 207.1 161.11 205.5 182.71C205.5 182.71 197.2 183.51 193.8 182.71C190.4 181.91 187.5 145.01 196 134.91C196 134.91 163.6 142.41 151 133.01C138.3 123.61 166.5 108.11 171.8 107.91Z" fill="#242854"/>
<path d="M193.8 186.91C195 187.31 198.6 188.21 205.6 187.11C206 187.01 206.2 186.51 206.2 186.11V183.41C206.2 183.31 206.2 183.21 206.1 183.11C206.1 183.01 206 182.91 205.9 182.81C205.8 182.71 205.7 182.71 205.6 182.61C205.5 182.61 205.4 182.61 205.3 182.61C199.2 183.51 195.2 183.01 193.5 182.61C193.4 182.61 193.3 182.61 193.1 182.61C193 182.61 192.9 182.71 192.8 182.81C192.7 182.91 192.6 183.01 192.6 183.11C192.6 183.21 192.5 183.31 192.6 183.51L193.2 186.31C193.2 186.41 193.3 186.61 193.4 186.71C193.5 186.71 193.7 186.81 193.8 186.91Z" fill="#4E577D"/>
<path d="M268.3 161.81L250.2 175.71C249.9 175.41 249.7 175.11 249.5 174.81L267.5 161.01C267.8 161.11 268.1 161.41 268.3 161.81Z" fill="white"/>
<path d="M245.7 166.01C247.3 167.91 246.3 170.61 249.5 174.71L267.6 160.81C267.6 160.81 265.2 157.21 261 159.21C256.8 161.21 252.7 162.71 251.4 161.71L245.7 166.01Z" fill="#A1CBE2"/>
<path d="M254.4 165.31C254.3 165.31 254.2 165.21 254.2 165.11L254 161.51C254 161.41 254.1 161.21 254.2 161.21C254.4 161.21 254.5 161.31 254.5 161.41L254.7 165.01C254.6 165.21 254.5 165.31 254.4 165.31Z" fill="white"/>
<path d="M255.8 164.51C255.7 164.51 255.6 164.41 255.6 164.31L255.4 161.11C255.4 161.01 255.5 160.81 255.6 160.81C255.7 160.81 255.9 160.91 255.9 161.01L256.1 164.21C256 164.31 255.9 164.41 255.8 164.51Z" fill="white"/>
<path d="M257.1 163.61C257 163.61 256.9 163.51 256.9 163.41L256.7 160.61C256.7 160.51 256.8 160.31 256.9 160.31C257 160.31 257.2 160.41 257.2 160.51L257.4 163.31C257.4 163.41 257.3 163.61 257.1 163.61Z" fill="white"/>
<path d="M145.1 134.01C145.6 136.81 175.2 143.61 206.8 123.71C206.8 123.71 209.6 146.71 241.4 164.11C241.4 164.11 248.4 161.11 250.3 157.11C250.3 157.11 230 132.81 222 110.51C218.6 101.11 176.4 106.01 170.2 108.01C164 109.91 142.8 121.51 145.1 134.01Z" fill="#242854"/>
<path d="M147.6 135.51C146.1 135.01 145.2 134.41 145.1 133.91C143 122.71 159.9 112.21 167.8 108.81C160 113.41 146.6 125.21 147.6 135.51Z" fill="#383C4D"/>
<path d="M243.7 167.51C244.9 167.01 248.1 165.41 253 160.31C253.1 160.21 253.2 160.01 253.2 159.81C253.2 159.61 253.2 159.41 253 159.31L251.3 157.11C251.2 157.01 251.2 156.91 251.1 156.91C251 156.81 250.9 156.81 250.8 156.81C250.7 156.81 250.6 156.81 250.5 156.81C250.4 156.81 250.3 156.91 250.2 157.01C245.9 161.41 242.6 163.31 241.1 164.11C241 164.21 240.9 164.21 240.8 164.31C240.7 164.41 240.7 164.51 240.7 164.61C240.7 164.71 240.7 164.81 240.7 165.01C240.7 165.21 240.8 165.21 240.9 165.31L242.9 167.31C243 167.41 243.1 167.51 243.3 167.51C243.4 167.61 243.5 167.61 243.7 167.51Z" fill="#6874A7"/>
<path d="M153.1 59.6099C159.8 61.8099 168.1 85.4099 168.1 85.4099C168.1 85.4099 179.9 87.6099 196 94.4099C196 94.4099 196.9 98.6099 194.7 101.51C194.7 101.51 162.9 101.71 159.7 101.51C156.5 101.31 142 89.2099 138.4 75.9099C134.8 62.6099 144.9 56.9099 153.1 59.6099Z" fill="#F7A849"/>
<path d="M198.6 83.9099L205.4 100.61H206.6L199.7 83.5099C199.6 83.4099 199.6 83.3099 199.4 83.2099C199.3 83.1099 199.1 83.1099 199 83.2099C198.9 83.2099 198.9 83.3099 198.8 83.3099C198.7 83.3099 198.7 83.4099 198.7 83.5099C198.7 83.6099 198.7 83.6099 198.7 83.7099C198.7 83.8099 198.6 83.9099 198.6 83.9099Z" fill="#41465A"/>
<path d="M195.9 95.7099C195.9 95.7099 200.6 93.2099 202.8 93.7099C205 94.2099 207.7 96.2099 207.9 96.7099C208.2 97.3099 210.1 100.01 210.1 100.61C210.1 101.21 203.8 101.01 203 101.01C202.1 101.01 196.3 101.11 195.2 100.91C194.1 100.61 195.9 95.7099 195.9 95.7099Z" fill="#A57574"/>
<path d="M203 101.01C203.9 101.01 210.1 101.21 210.1 100.61C210.1 100.01 208.2 97.3099 207.9 96.7099C207.6 96.1099 205 94.2099 202.8 93.7099C202.8 93.7099 205.6 97.5099 203 101.01Z" fill="#A57574"/>
<path d="M170.3 101.91C165.1 101.91 160.9 101.91 159.8 101.81C156.3 101.51 141.8 89.3099 138.2 76.0099L138.7 75.9099C142.3 89.2099 157 101.11 159.8 101.31C162.9 101.51 194.4 101.31 194.7 101.31V101.81C193.9 101.81 180.3 101.91 170.3 101.91Z" fill="#FCB8A0"/>
<path d="M187.7 91.4099C176.2 87.2099 168.2 85.7099 168.1 85.7099H168V85.6099C167.9 85.4099 159.7 62.1099 153.2 59.9099L153.4 59.4099C160 61.6099 167.7 83.1099 168.5 85.2099C169.6 85.4099 177.3 87.0099 188 90.9099L187.7 91.4099Z" fill="#FCB8A0"/>
<path d="M233.9 101.51V100.51C233.9 100.21 233.8 100.01 233.7 99.7099C233.6 99.4099 233.4 99.2099 233.2 99.0099C233 98.8099 232.8 98.7099 232.5 98.6099C232.2 98.5099 232 98.5099 231.7 98.5099L195.3 100.81C195.1 100.81 194.9 100.91 194.8 101.01C194.7 101.11 194.6 101.31 194.6 101.51H233.9Z" fill="#A1CBE2"/>
<path d="M155.3 37.0099C155.3 37.0099 154.5 47.1099 148.5 53.4099C148.5 53.4099 155.3 58.8099 162.6 54.8099L163.4 37.0099H155.3Z" fill="#A57574"/>
<path d="M172.9 34.8099C172.9 34.8099 171.1 39.2099 171.8 47.3099C172.4 55.4099 159.6 51.2099 159.4 45.6099C159.2 40.0099 160.1 34.9099 161.5 34.8099C162.9 34.7099 172.9 34.8099 172.9 34.8099Z" fill="#A57574"/>
<path d="M153.3 43.6099C153.3 43.6099 155.2 39.0099 153.9 33.9099C152.9 30.1099 156.9 28.0099 160.4 30.0099C160.4 30.0099 173.3 22.9099 176.2 30.7099C179.7 40.0099 162.8 35.3099 162.5 35.7099C162.2 36.1099 161.2 43.3099 163.1 45.8099C164.9 48.3099 166.9 45.8099 169.5 45.6099C172.2 45.4099 171.9 47.2099 171.9 47.2099C171.9 47.2099 172.7 51.6099 173 53.2099C173.3 54.9099 162.9 57.7099 160.2 53.4099C157.7 49.5099 159.3 41.8099 158.3 41.1099C156.2 39.8099 154.5 42.1099 155.7 43.1099C155.5 43.0099 154.2 43.8099 153.3 43.6099Z" fill="#242854"/>
<path d="M175.3 36.4099C171.3 38.5099 163 35.9099 162.3 35.4099L175.3 36.4099Z" fill="#242854"/>
<path d="M156.7 28.3099C158.1 28.2099 159.6 28.7099 160.3 30.0099L156.7 28.3099Z" fill="#4E2556"/>
<path d="M166.7 41.8099C167 41.8099 167.3 41.5099 167.3 41.0099C167.3 40.5099 167 40.2099 166.7 40.2099C166.4 40.2099 166.1 40.5099 166.1 41.0099C166.1 41.5099 166.4 41.8099 166.7 41.8099Z" fill="#242854"/>
<path d="M171 41.8099C171.3 41.8099 171.5 41.5099 171.5 41.0099C171.5 40.5099 171.3 40.2099 171 40.2099C170.7 40.2099 170.5 40.5099 170.5 41.0099C170.5 41.5099 170.8 41.8099 171 41.8099Z" fill="#242854"/>
<path d="M166.5 43.8099C165.1 43.8099 163.9 42.5099 163.9 41.0099C163.9 39.5099 165.1 38.2099 166.5 38.2099C167.9 38.2099 169.1 39.5099 169.1 41.0099C169.1 42.5099 167.9 43.8099 166.5 43.8099ZM166.5 38.7099C165.3 38.7099 164.4 39.7099 164.4 41.0099C164.4 42.3099 165.3 43.3099 166.5 43.3099C167.7 43.3099 168.6 42.3099 168.6 41.0099C168.6 39.7099 167.6 38.7099 166.5 38.7099Z" fill="white"/>
<path d="M171.9 43.8099C170.7 43.8099 169.7 42.5099 169.7 41.0099C169.7 39.5099 170.7 38.2099 171.9 38.2099C173.1 38.2099 174.1 39.5099 174.1 41.0099C174.1 42.5099 173.2 43.8099 171.9 43.8099ZM171.9 38.7099C170.9 38.7099 170.2 39.7099 170.2 41.0099C170.2 42.3099 171 43.3099 171.9 43.3099C172.8 43.3099 173.6 42.3099 173.6 41.0099C173.6 39.7099 172.9 38.7099 171.9 38.7099Z" fill="white"/>
<path d="M169.9 40.6099H168.8V41.1099H169.9V40.6099Z" fill="white"/>
<path d="M155.2 41.8099L154.8 41.5099C155.1 41.2099 155.5 40.9099 155.9 40.7099C156.3 40.5099 156.8 40.4099 157.2 40.4099L163.9 40.5099V41.0099L157.2 40.9099C156.8 40.9099 156.4 41.0099 156.1 41.1099C155.7 41.3099 155.4 41.5099 155.2 41.8099Z" fill="white"/>
<path d="M286.2 101.71V196.31H279.8V107.91H74.4V196.31H68V101.71H286.2V101.71Z" fill="#FBD3A4"/>
<path d="M278.9 87.1099H211.7C211.2 87.1099 210.7 87.0099 210.3 86.8099C209.9 86.6099 209.5 86.3099 209.2 85.9099C208.9 85.5099 208.7 85.1099 208.6 84.6099C208.5 84.1099 208.5 83.6099 208.7 83.1099L219.8 42.1099C220.4 39.9099 222.4 38.2099 224.6 38.2099H291.8C293.9 38.2099 295.5 40.5099 294.9 42.5099L283.8 83.5099C283.5 84.6099 282.9 85.5099 282 86.1099C281.1 86.7099 280 87.1099 278.9 87.1099Z" fill="white"/>
<path d="M278.9 87.1099H213.7C213.2 87.1099 212.7 87.0099 212.3 86.8099C211.9 86.6099 211.5 86.3099 211.2 85.9099C210.9 85.5099 210.7 85.1099 210.6 84.6099C210.5 84.1099 210.5 83.6099 210.7 83.2099L221.5 43.3099C221.8 42.3099 222.4 41.4099 223.2 40.7099C224 40.1099 225.1 39.7099 226.1 39.7099H291.3C291.8 39.7099 292.3 39.8099 292.7 40.0099C293.1 40.2099 293.5 40.5099 293.8 40.9099C294.1 41.3099 294.3 41.7099 294.4 42.2099C294.5 42.7099 294.5 43.2099 294.3 43.6099L283.5 83.5099C283.2 84.5099 282.6 85.4099 281.8 86.1099C281 86.7099 280 87.1099 278.9 87.1099Z" fill="#D4D1F4"/>
<path d="M278.9 87.1099H213.7C213.2 87.1099 212.7 87.0099 212.3 86.8099C211.9 86.6099 211.5 86.3099 211.2 85.9099C210.9 85.5099 210.7 85.1099 210.6 84.6099C210.5 84.1099 210.5 83.6099 210.7 83.2099L221.5 43.3099C221.8 42.3099 222.4 41.4099 223.2 40.7099C224 40.1099 225.1 39.7099 226.1 39.7099H291.3C291.8 39.7099 292.3 39.8099 292.7 40.0099C293.1 40.2099 293.5 40.5099 293.8 40.9099C294.1 41.3099 294.3 41.7099 294.4 42.2099C294.5 42.7099 294.5 43.2099 294.3 43.6099L283.5 83.5099C283.2 84.5099 282.6 85.4099 281.8 86.1099C281 86.7099 280 87.1099 278.9 87.1099Z" fill="#EBF4F7"/>
<path d="M218.6 54.0099C218.4 54.0099 218.3 53.8099 218.4 53.7099L221.3 43.2099C221.6 42.1099 222.2 41.2099 223.1 40.5099C224 39.8099 225.1 39.5099 226.2 39.5099H265.3C265.4 39.5099 265.5 39.6099 265.5 39.7099C265.5 39.8099 265.4 39.9099 265.3 39.9099H226.2C225.2 39.9099 224.2 40.2099 223.4 40.8099C222.6 41.4099 222 42.3099 221.8 43.2099L218.9 53.7099C218.8 53.9099 218.7 54.0099 218.6 54.0099Z" fill="#639AD6"/>
<path d="M278.9 87.3099H213.7C213.2 87.3099 212.7 87.2099 212.2 86.9099C211.7 86.7099 211.3 86.3099 211 85.9099C210.7 85.5099 210.5 85.0099 210.4 84.5099C210.3 84.0099 210.3 83.5099 210.5 83.0099L216.2 61.9099C216.2 61.8099 216.4 61.7099 216.5 61.7099C216.6 61.7099 216.7 61.9099 216.7 62.0099L211 83.1099C210.9 83.5099 210.9 84.0099 211 84.4099C211.1 84.8099 211.3 85.2099 211.5 85.6099C211.8 85.9099 212.1 86.2099 212.5 86.4099C212.9 86.6099 213.3 86.7099 213.8 86.7099H279C280 86.7099 281 86.4099 281.8 85.8099C282.6 85.2099 283.2 84.3099 283.4 83.4099C283.4 83.3099 283.6 83.2099 283.7 83.2099C283.8 83.2099 283.9 83.4099 283.9 83.5099C283.6 84.6099 283 85.5099 282.1 86.2099C281.1 87.0099 280 87.3099 278.9 87.3099Z" fill="#639AD6"/>
<path d="M264.2 98.1099L257.7 75.6099H242.5L248.5 96.6099C249 98.3099 247.6 100.01 245.6 100.01H241.4C241.3 100.01 241.1 100.01 241.1 100.11C241 100.21 240.9 100.31 240.9 100.41V101.31C240.9 101.41 241 101.51 241.1 101.61C241.2 101.71 241.3 101.71 241.4 101.71H261.1C263.2 101.71 264.7 99.8099 264.2 98.1099Z" fill="#D6EAF2"/>
<path d="M246.9 100.91H241V100.41C241 100.31 241.1 100.21 241.2 100.11C241.3 100.01 241.4 100.01 241.5 100.01H245.7C247.7 100.01 249.1 98.3099 248.6 96.6099L242.6 75.6099H243.7L249.9 97.2099C250 97.6099 250 98.1099 249.9 98.6099C249.8 99.0099 249.6 99.5099 249.3 99.8099C249 100.21 248.7 100.51 248.2 100.71C247.8 100.81 247.4 100.91 246.9 100.91Z" fill="white"/>
<path d="M242.5 75.5099V87.1099H245.8L242.5 75.5099Z" fill="#A1CBE2"/>
<path d="M223 83.0099H219.7L219.4 83.9099H222.7L223 83.0099Z" fill="#A1CBE2"/>
<path d="M229.9 83.0099H226.8L226.5 83.9099H229.6L229.9 83.0099Z" fill="#A1CBE2"/>
<path d="M261.3 101.61V101.11C262.3 101.11 263.2 100.71 263.7 100.01C264.1 99.5099 264.2 98.8099 264 98.1099L257.5 75.6099L258 75.5099L264.5 98.0099C264.7 98.8099 264.6 99.6099 264.1 100.31C263.6 101.11 262.5 101.61 261.3 101.61Z" fill="#639AD6"/>
<path d="M233.7 118.21C232.9 118.21 232.1 117.91 231.6 117.31C231 116.71 230.7 116.01 230.7 115.21V84.5099C230.7 84.3099 230.6 84.1099 230.5 84.0099C230.4 83.9099 230.2 83.8099 230 83.8099H228.4V83.3099H230C230.3 83.3099 230.7 83.4099 230.9 83.7099C231.1 84.0099 231.3 84.3099 231.3 84.6099V115.31C231.3 116.01 231.6 116.61 232 117.11C232.5 117.61 233.1 117.81 233.8 117.81C234.5 117.81 235.1 117.51 235.6 117.11C236.1 116.61 236.3 116.01 236.3 115.31V101.61C236.3 101.51 236.3 101.41 236.2 101.31C236.2 101.21 236.1 101.11 236 101.11C235.9 101.01 235.8 101.01 235.8 100.91C235.7 100.91 235.6 100.81 235.5 100.81H234V100.31H235.5C235.7 100.31 235.8 100.31 236 100.41C236.2 100.51 236.3 100.61 236.4 100.71C236.5 100.81 236.6 101.01 236.7 101.11C236.8 101.31 236.8 101.41 236.8 101.61V115.31C236.8 116.11 236.5 116.91 235.9 117.41C235.2 117.91 234.5 118.21 233.7 118.21Z" fill="#639AD6"/>
<path d="M99.6 89.7099H91.4C90.4 89.7099 89.6 90.5099 89.6 91.5099V99.7099C89.6 100.71 90.4 101.51 91.4 101.51H99.6C100.6 101.51 101.4 100.71 101.4 99.7099V91.5099C101.4 90.5099 100.6 89.7099 99.6 89.7099Z" fill="#F5921B"/>
<path d="M94.9 89.7099C94.9 89.7099 93.4 78.8099 104.2 75.6099C104.2 75.6099 99.6 80.2099 98.2 89.7099H94.9Z" fill="#A1CBE2"/>
<path d="M96.8 89.7099C96.8 89.7099 95.5 80.1099 87 79.5099C87 79.5099 92.4 81.8099 92.4 89.7099H96.8Z" fill="#A1CBE2"/>
<path d="M93.9 89.7099C93.9 89.7099 92.8 81.9099 96.5 78.2099C96.5 78.2099 95.6 84.9099 96.8 89.7099H93.9Z" fill="#D6EAF2"/>
<path d="M95.5 89.7099C95.5 89.7099 99.1 87.7099 98.9 83.9099C98.9 83.9099 100.9 87.2099 99.3 89.7099H95.5Z" fill="#D6EAF2"/>
<path d="M91.7 89.7099C91.7 89.7099 90.7 86.8099 88.1 85.9099C88.1 85.9099 92.7 85.8099 93.9 89.7099H91.7Z" fill="#D6EAF2"/>
<path d="M169.8 41.3099L171.4 44.5099L170 45.4099" fill="#A57574"/>
<path d="M170 45.7099C169.9 45.7099 169.8 45.7099 169.8 45.6099C169.7 45.5099 169.8 45.3099 169.9 45.3099L171.1 44.5099L169.6 41.5099C169.5 41.4099 169.6 41.2099 169.7 41.2099C169.8 41.1099 170 41.2099 170 41.3099L171.6 44.5099C171.7 44.6099 171.6 44.8099 171.5 44.8099L170.1 45.7099C170.1 45.6099 170.1 45.7099 170 45.7099Z" fill="#4E2556"/>
<path d="M73.1 33.7099H139.6V39.8099L73.1 34.2099C72.9 34.1099 72.9 33.7099 73.1 33.7099Z" fill="#FBD3A4"/>
<path d="M132.5 3.60989H129.7C129.1 3.60989 128.7 4.10989 128.7 4.60989V27.5099C128.7 28.1099 129.2 28.5099 129.7 28.5099H132.5C133.1 28.5099 133.5 28.0099 133.5 27.5099V4.60989C133.5 4.00989 133 3.60989 132.5 3.60989Z" fill="white"/>
<path d="M132.5 28.8099H129.7C129 28.8099 128.4 28.2099 128.4 27.5099V4.60989C128.4 3.90989 129 3.30989 129.7 3.30989H132.5C133.2 3.30989 133.8 3.90989 133.8 4.60989V27.5099C133.7 28.2099 133.2 28.8099 132.5 28.8099ZM129.7 3.80989C129.3 3.80989 128.9 4.10989 128.9 4.60989V27.5099C128.9 27.9099 129.2 28.3099 129.7 28.3099H132.5C132.9 28.3099 133.3 28.0099 133.3 27.5099V4.60989C133.3 4.20989 133 3.80989 132.5 3.80989H129.7Z" fill="#F7A849"/>
<path d="M127.3 5.70988H124C123.4 5.70988 123 6.10988 123 6.70988V28.0099C123 28.6099 123.4 29.0099 124 29.0099H127.3C127.9 29.0099 128.3 28.6099 128.3 28.0099V6.70988C128.3 6.10988 127.9 5.70988 127.3 5.70988Z" fill="#F5921B"/>
<path d="M122 0.0098877H121.1C120.6 0.0098877 120.2 0.409888 120.2 0.909888V28.0099C120.2 28.5099 120.6 28.9099 121.1 28.9099H122C122.5 28.9099 122.9 28.5099 122.9 28.0099V0.909888C123 0.409888 122.6 0.0098877 122 0.0098877Z" fill="#D6EAF2"/>
<path d="M119 7.4099H116.6C116 7.4099 115.6 7.9099 115.6 8.4099V27.7099C115.6 28.3099 116.1 28.7099 116.6 28.7099H119C119.6 28.7099 120 28.2099 120 27.7099V8.4099C120 7.8099 119.5 7.4099 119 7.4099Z" fill="white"/>
<path d="M119 29.0099H116.6C115.9 29.0099 115.3 28.4099 115.3 27.7099V8.40989C115.3 7.70989 115.9 7.10989 116.6 7.10989H119C119.7 7.10989 120.3 7.70989 120.3 8.40989V27.7099C120.3 28.4099 119.7 29.0099 119 29.0099ZM116.6 7.60989C116.2 7.60989 115.8 7.90989 115.8 8.40989V27.7099C115.8 28.1099 116.1 28.5099 116.6 28.5099H119C119.4 28.5099 119.8 28.2099 119.8 27.7099V8.40989C119.8 8.00989 119.5 7.60989 119 7.60989H116.6V7.60989Z" fill="#F7A849"/>
<path d="M107.3 29.0099H103.4L113.1 3.00989C113.1 2.90989 113.2 2.80989 113.3 2.70989C113.4 2.60989 113.5 2.60989 113.6 2.60989H116.4C116.5 2.60989 116.6 2.60989 116.6 2.70989C116.7 2.70989 116.7 2.80989 116.8 2.90989C116.8 3.00989 116.9 3.10989 116.9 3.10989C116.9 3.20989 116.9 3.30989 116.9 3.40989L107.3 29.0099Z" fill="#F5921B"/>
<path d="M139.4 29.0099H73.3V33.4099H139.5V29.0099H139.4Z" fill="white"/>
<path d="M139.7 33.6099H73V28.7099H139.7V33.6099ZM73.5 33.1099H139.2V29.2099H73.5V33.1099Z" fill="#F5921B"/>
<path d="M80 19.4099H96.7V21.2099C96.7 23.3099 95.9 25.3099 94.4 26.7099C92.9 28.2099 90.9 29.0099 88.9 29.0099H87.9C85.8 29.0099 83.8 28.2099 82.4 26.7099C80.9 25.2099 80.1 23.2099 80.1 21.2099L80 19.4099Z" fill="#F5921B"/>
<path d="M95 19.4099H82.6C82.6 19.4099 79 22.4099 76.9 19.9099C75.4 18.1099 82.6 18.1099 82.6 18.1099L82.8 18.0099C82.8 18.0099 79.7 11.6099 82.6 10.5099C84.6 9.80989 85.1 15.2099 85.2 17.0099C86.3 16.6099 88.3 15.9099 88.5 17.6099C88.5 17.6099 88.7 10.7099 91.6 11.4099C94 11.9099 90.4 18.4099 90.4 18.4099L90.7 18.6099C90.7 18.6099 97.3 13.8099 98.9 14.9099C100.2 15.6099 95 19.4099 95 19.4099Z" fill="#A1CBE2"/>
<path d="M84.5 19.4099C84.5 19.4099 84.6 13.5099 86.9 13.6099C89.1 13.8099 86 19.4099 86 19.4099H84.5Z" fill="#D6EAF2"/>
<path d="M84.5 19.4099C84.5 19.4099 82.3 13.8099 79.2 15.2099C76.2 16.6099 82.6 19.4099 82.6 19.4099H84.5Z" fill="#D6EAF2"/>
<path d="M89.1 19.4099C89.1 19.4099 91.1 14.3099 94.3 14.8099C97.5 15.3099 90.3 19.4099 90.3 19.4099H89.1Z" fill="#D6EAF2"/>
<path d="M92.4 19.4099C92.4 19.4099 98.7 16.2099 99.8 18.1099C100.9 20.0099 92.4 19.4099 92.4 19.4099Z" fill="#D6EAF2"/>
</g>
<defs>
<clipPath id="clip0">
<rect width="327" height="201" fill="white" transform="translate(18 0.0098877)"/>
</clipPath>
</defs>
</svg>
