<svg width="328" height="202" viewBox="0 0 328 202" fill="none" xmlns="http://www.w3.org/2000/svg">
<g clip-path="url(#clip0)">
<path d="M176.9 138.61V139.41C176.9 139.71 176.8 140.01 176.7 140.31C176.6 140.61 176.4 140.81 176.2 141.01C176 141.21 175.7 141.41 175.5 141.51C175.2 141.61 174.9 141.71 174.6 141.71H113.7C110.5 141.71 107.4 140.61 104.9 138.61C102.4 136.61 100.7 133.81 100 130.71L89.2 82.0099C88.9 80.8099 88.9 79.6099 89.2 78.5099C89.5 77.3099 90 76.3099 90.7 75.3099C91.4 74.4099 92.4 73.6099 93.5 73.1099C94.6 72.6099 95.7 72.3099 96.9 72.3099H118C120.4 72.3099 122.7 73.1099 124.6 74.6099C126.5 76.1099 127.8 78.2099 128.3 80.5099L138.3 125.01C139 128.21 140.8 131.01 143.3 133.11C145.9 135.11 149 136.31 152.3 136.31H174.7C175.3 136.31 175.9 136.51 176.3 137.01C176.7 137.41 176.9 138.01 176.9 138.61Z" fill="#D6EAF2"/>
<path d="M137.7 196.41H106.5V195.91H137.7C139 195.91 140.2 195.61 141.4 195.21C142.6 194.71 143.6 194.01 144.6 193.11C145.5 192.21 146.2 191.11 146.7 189.91C147.2 188.71 147.4 187.51 147.4 186.21V152.01C147.4 149.41 146.4 146.91 144.6 145.11C142.8 143.31 140.3 142.21 137.7 142.21H111.4V141.71H137.7C140.4 141.71 143 142.81 144.9 144.71C146.8 146.61 147.9 149.21 147.9 151.91V186.11C147.9 187.51 147.6 188.81 147.1 190.01C146.6 191.31 145.8 192.41 144.9 193.31C143.9 194.31 142.8 195.01 141.6 195.51C140.4 196.11 139.1 196.41 137.7 196.41Z" fill="#639AD6"/>
<path d="M159.8 196.41H134.8V195.91H159.8C162.4 195.91 164.8 194.91 166.7 193.01C168.5 191.21 169.5 188.71 169.5 186.11V151.91C169.5 149.31 168.5 146.91 166.7 145.01C164.9 143.21 162.4 142.11 159.8 142.11H124.8V141.61H159.8C162.5 141.61 165.1 142.71 167 144.61C168.9 146.51 170 149.11 170 151.81V186.01C170 188.71 168.9 191.31 167 193.21C165.1 195.31 162.5 196.41 159.8 196.41Z" fill="#639AD6"/>
<path d="M169.8 176.71H147.7V177.21H169.8V176.71Z" fill="#639AD6"/>
<path d="M153.1 56.0099C153.1 56.0099 163.3 56.7099 168.3 66.0099C173.3 75.3099 179.5 88.1099 179.5 88.1099C179.5 88.1099 197 87.6099 210 95.7099V101.51H172.8C168.2 101.51 153.2 83.8099 152.4 72.4099C151.4 60.9099 153.1 56.0099 153.1 56.0099Z" fill="#F5921B"/>
<path d="M207 101.41C206.3 101.21 206.8 98.8099 207.2 97.4099C207.4 96.6099 208 96.2099 208.8 95.8099C210.3 95.1099 213 94.3099 214.5 94.6099C216.7 95.1099 218.1 96.5099 219.5 98.2099C219.9 98.7099 221.8 101.01 221.8 101.61L207 101.41Z" fill="#A57574"/>
<path d="M133.9 52.2099C127.4 52.2099 114 65.7099 116.4 100.11C118.1 125.41 126 136.01 127.8 135.31C129.5 134.61 150.6 116.11 153.4 106.21C156.3 96.2099 171.5 62.1099 151.4 55.5099C137.4 50.9099 136 52.2099 133.9 52.2099Z" fill="#F5921B"/>
<path d="M199.3 196.31H176.5C176.5 196.01 176.5 195.61 176.5 195.31H199.4C199.3 195.61 199.3 195.91 199.3 196.31Z" fill="white"/>
<path d="M178.8 186.11C178.9 188.61 176.5 190.21 176.5 195.31H199.3C199.3 195.31 199.6 191.01 195.1 190.01C190.5 189.01 186.4 187.71 186 186.11H178.8V186.11Z" fill="#A1CBE2"/>
<path d="M186.1 191.01H186C185.9 190.91 185.9 190.81 185.9 190.71L188 187.61C188.1 187.51 188.2 187.51 188.3 187.51C188.4 187.51 188.4 187.71 188.4 187.81L186.3 190.91C186.3 190.91 186.2 191.01 186.1 191.01Z" fill="white"/>
<path d="M187.7 191.31H187.6C187.5 191.21 187.5 191.11 187.5 191.01L189.5 188.21C189.6 188.11 189.7 188.11 189.8 188.11C189.9 188.21 189.9 188.31 189.9 188.41L187.9 191.21C187.9 191.31 187.8 191.31 187.7 191.31Z" fill="white"/>
<path d="M189.8 191.51H189.7C189.6 191.41 189.5 191.31 189.6 191.21L191.2 188.61C191.3 188.51 191.4 188.41 191.5 188.51C191.6 188.61 191.7 188.71 191.6 188.81L190 191.41C190 191.41 189.9 191.51 189.8 191.51Z" fill="white"/>
<path d="M154.3 107.91C154.3 107.91 189.1 105.71 197.6 115.71C206.1 125.71 189.6 161.11 188 182.71C188 182.71 179.7 183.51 176.3 182.71C172.9 181.91 170 145.01 178.5 134.91C178.5 134.91 146.1 142.41 133.5 133.01C120.8 123.61 149 108.11 154.3 107.91Z" fill="#242854"/>
<path d="M176.3 186.91C177.5 187.31 181.1 188.21 188.1 187.11C188.5 187.01 188.7 186.51 188.7 186.11V183.41C188.7 183.31 188.7 183.21 188.6 183.11C188.6 183.01 188.5 182.91 188.4 182.81C188.3 182.71 188.2 182.71 188.1 182.61C188 182.61 187.9 182.61 187.8 182.61C181.7 183.51 177.7 183.01 176 182.61C175.9 182.61 175.8 182.61 175.6 182.61C175.5 182.61 175.4 182.71 175.3 182.81C175.2 182.91 175.1 183.01 175.1 183.11C175.1 183.21 175 183.31 175.1 183.51L175.7 186.31C175.7 186.41 175.8 186.61 175.9 186.71C176 186.71 176.2 186.81 176.3 186.91Z" fill="#4E577D"/>
<path d="M250.8 161.81L232.7 175.71C232.4 175.41 232.2 175.11 232 174.81L250 161.01C250.3 161.11 250.6 161.41 250.8 161.81Z" fill="white"/>
<path d="M228.2 166.01C229.8 167.91 228.8 170.61 232 174.71L250.1 160.81C250.1 160.81 247.7 157.21 243.5 159.21C239.3 161.21 235.2 162.71 233.9 161.71L228.2 166.01Z" fill="#A1CBE2"/>
<path d="M236.9 165.31C236.8 165.31 236.7 165.21 236.7 165.11L236.5 161.51C236.5 161.41 236.6 161.21 236.7 161.21C236.9 161.21 237 161.31 237 161.41L237.2 165.01C237.1 165.21 237 165.31 236.9 165.31Z" fill="white"/>
<path d="M238.3 164.51C238.2 164.51 238.1 164.41 238.1 164.31L237.9 161.11C237.9 161.01 238 160.81 238.1 160.81C238.2 160.81 238.4 160.91 238.4 161.01L238.6 164.21C238.5 164.31 238.4 164.41 238.3 164.51Z" fill="white"/>
<path d="M239.6 163.61C239.5 163.61 239.4 163.51 239.4 163.41L239.2 160.61C239.2 160.51 239.3 160.31 239.4 160.31C239.5 160.31 239.7 160.41 239.7 160.51L239.9 163.31C239.9 163.41 239.8 163.61 239.6 163.61Z" fill="white"/>
<path d="M127.6 134.01C128.1 136.81 157.7 143.61 189.3 123.71C189.3 123.71 192.1 146.71 223.9 164.11C223.9 164.11 230.9 161.11 232.8 157.11C232.8 157.11 212.5 132.81 204.5 110.51C201.1 101.11 158.9 106.01 152.7 108.01C146.5 109.91 125.3 121.51 127.6 134.01Z" fill="#242854"/>
<path d="M130.1 135.51C128.6 135.01 127.7 134.41 127.6 133.91C125.5 122.71 142.4 112.21 150.3 108.81C142.5 113.41 129.1 125.21 130.1 135.51Z" fill="#383C4D"/>
<path d="M226.2 167.51C227.4 167.01 230.6 165.41 235.5 160.31C235.6 160.21 235.7 160.01 235.7 159.81C235.7 159.61 235.7 159.41 235.5 159.31L233.8 157.11C233.7 157.01 233.7 156.91 233.6 156.91C233.5 156.81 233.4 156.81 233.3 156.81C233.2 156.81 233.1 156.81 233 156.81C232.9 156.81 232.8 156.91 232.7 157.01C228.4 161.41 225.1 163.31 223.6 164.11C223.5 164.21 223.4 164.21 223.3 164.31C223.2 164.41 223.2 164.51 223.2 164.61C223.2 164.71 223.2 164.81 223.2 165.01C223.2 165.21 223.3 165.21 223.4 165.31L225.4 167.31C225.5 167.41 225.6 167.51 225.8 167.51C225.9 167.61 226 167.61 226.2 167.51Z" fill="#6874A7"/>
<path d="M135.6 59.6099C142.3 61.8099 150.6 85.4099 150.6 85.4099C150.6 85.4099 162.4 87.6099 178.5 94.4099C178.5 94.4099 179.4 98.6099 177.2 101.51C177.2 101.51 145.4 101.71 142.2 101.51C139 101.31 124.5 89.2099 120.9 75.9099C117.3 62.6099 127.4 56.9099 135.6 59.6099Z" fill="#F7A849"/>
<path d="M181.1 83.9099L187.9 100.61H189.1L182.2 83.5099C182.1 83.4099 182.1 83.3099 181.9 83.2099C181.8 83.1099 181.6 83.1099 181.5 83.2099C181.4 83.2099 181.4 83.3099 181.3 83.3099C181.2 83.3099 181.2 83.4099 181.2 83.5099C181.2 83.6099 181.2 83.6099 181.2 83.7099C181.2 83.8099 181.1 83.9099 181.1 83.9099Z" fill="#41465A"/>
<path d="M178.4 95.7099C178.4 95.7099 183.1 93.2099 185.3 93.7099C187.5 94.2099 190.2 96.2099 190.4 96.7099C190.7 97.3099 192.6 100.01 192.6 100.61C192.6 101.21 186.3 101.01 185.5 101.01C184.6 101.01 178.8 101.11 177.7 100.91C176.6 100.61 178.4 95.7099 178.4 95.7099Z" fill="#A57574"/>
<path d="M185.5 101.01C186.4 101.01 192.6 101.21 192.6 100.61C192.6 100.01 190.7 97.3099 190.4 96.7099C190.1 96.1099 187.5 94.2099 185.3 93.7099C185.3 93.7099 188.1 97.5099 185.5 101.01Z" fill="#A57574"/>
<path d="M152.8 101.91C147.6 101.91 143.4 101.91 142.3 101.81C138.8 101.51 124.3 89.3099 120.7 76.0099L121.2 75.9099C124.8 89.2099 139.5 101.11 142.3 101.31C145.4 101.51 176.9 101.31 177.2 101.31V101.81C176.4 101.81 162.8 101.91 152.8 101.91Z" fill="#FCB8A0"/>
<path d="M170.2 91.4099C158.7 87.2099 150.7 85.7099 150.6 85.7099H150.5V85.6099C150.4 85.4099 142.2 62.1099 135.7 59.9099L135.9 59.4099C142.5 61.6099 150.2 83.1099 151 85.2099C152.1 85.4099 159.8 87.0099 170.5 90.9099L170.2 91.4099Z" fill="#FCB8A0"/>
<path d="M216.4 101.51V100.51C216.4 100.21 216.3 100.01 216.2 99.7099C216.1 99.4099 215.9 99.2099 215.7 99.0099C215.5 98.8099 215.3 98.7099 215 98.6099C214.7 98.5099 214.5 98.5099 214.2 98.5099L177.8 100.81C177.6 100.81 177.4 100.91 177.3 101.01C177.2 101.11 177.1 101.31 177.1 101.51H216.4Z" fill="#A1CBE2"/>
<path d="M137.8 37.0099C137.8 37.0099 137 47.1099 131 53.4099C131 53.4099 137.8 58.8099 145.1 54.8099L145.9 37.0099H137.8Z" fill="#A57574"/>
<path d="M155.4 34.8099C155.4 34.8099 153.6 39.2099 154.3 47.3099C154.9 55.4099 142.1 51.2099 141.9 45.6099C141.7 40.0099 142.6 34.9099 144 34.8099C145.4 34.7099 155.4 34.8099 155.4 34.8099Z" fill="#A57574"/>
<path d="M135.8 43.6099C135.8 43.6099 137.7 39.0099 136.4 33.9099C135.4 30.1099 139.4 28.0099 142.9 30.0099C142.9 30.0099 155.8 22.9099 158.7 30.7099C162.2 40.0099 145.3 35.3099 145 35.7099C144.7 36.1099 143.7 43.3099 145.6 45.8099C147.4 48.3099 149.4 45.8099 152 45.6099C154.7 45.4099 154.4 47.2099 154.4 47.2099C154.4 47.2099 155.2 51.6099 155.5 53.2099C155.8 54.9099 145.4 57.7099 142.7 53.4099C140.2 49.5099 141.8 41.8099 140.8 41.1099C138.7 39.8099 137 42.1099 138.2 43.1099C138 43.0099 136.7 43.8099 135.8 43.6099Z" fill="#242854"/>
<path d="M157.8 36.4099C153.8 38.5099 145.5 35.9099 144.8 35.4099L157.8 36.4099Z" fill="#242854"/>
<path d="M139.2 28.3099C140.6 28.2099 142.1 28.7099 142.8 30.0099L139.2 28.3099Z" fill="#4E2556"/>
<path d="M149.2 41.8099C149.5 41.8099 149.8 41.5099 149.8 41.0099C149.8 40.5099 149.5 40.2099 149.2 40.2099C148.9 40.2099 148.6 40.5099 148.6 41.0099C148.6 41.5099 148.9 41.8099 149.2 41.8099Z" fill="#242854"/>
<path d="M153.5 41.8099C153.8 41.8099 154 41.5099 154 41.0099C154 40.5099 153.8 40.2099 153.5 40.2099C153.2 40.2099 153 40.5099 153 41.0099C153 41.5099 153.3 41.8099 153.5 41.8099Z" fill="#242854"/>
<path d="M149 43.8099C147.6 43.8099 146.4 42.5099 146.4 41.0099C146.4 39.5099 147.6 38.2099 149 38.2099C150.4 38.2099 151.6 39.5099 151.6 41.0099C151.6 42.5099 150.4 43.8099 149 43.8099ZM149 38.7099C147.8 38.7099 146.9 39.7099 146.9 41.0099C146.9 42.3099 147.8 43.3099 149 43.3099C150.2 43.3099 151.1 42.3099 151.1 41.0099C151.1 39.7099 150.1 38.7099 149 38.7099Z" fill="white"/>
<path d="M154.4 43.8099C153.2 43.8099 152.2 42.5099 152.2 41.0099C152.2 39.5099 153.2 38.2099 154.4 38.2099C155.6 38.2099 156.6 39.5099 156.6 41.0099C156.6 42.5099 155.7 43.8099 154.4 43.8099ZM154.4 38.7099C153.4 38.7099 152.7 39.7099 152.7 41.0099C152.7 42.3099 153.5 43.3099 154.4 43.3099C155.3 43.3099 156.1 42.3099 156.1 41.0099C156.1 39.7099 155.4 38.7099 154.4 38.7099Z" fill="white"/>
<path d="M152.4 40.6099H151.3V41.1099H152.4V40.6099Z" fill="white"/>
<path d="M137.7 41.8099L137.3 41.5099C137.6 41.2099 138 40.9099 138.4 40.7099C138.8 40.5099 139.3 40.4099 139.7 40.4099L146.4 40.5099V41.0099L139.7 40.9099C139.3 40.9099 138.9 41.0099 138.6 41.1099C138.2 41.3099 137.9 41.5099 137.7 41.8099Z" fill="white"/>
<path d="M268.7 101.71V196.31H262.3V107.91H56.9V196.31H50.5V101.71H268.7V101.71Z" fill="#FBD3A4"/>
<path d="M261.4 87.1099H194.2C193.7 87.1099 193.2 87.0099 192.8 86.8099C192.4 86.6099 192 86.3099 191.7 85.9099C191.4 85.5099 191.2 85.1099 191.1 84.6099C191 84.1099 191 83.6099 191.2 83.1099L202.3 42.1099C202.9 39.9099 204.9 38.2099 207.1 38.2099H274.3C276.4 38.2099 278 40.5099 277.4 42.5099L266.3 83.5099C266 84.6099 265.4 85.5099 264.5 86.1099C263.6 86.7099 262.5 87.1099 261.4 87.1099Z" fill="white"/>
<path d="M261.4 87.1099H196.2C195.7 87.1099 195.2 87.0099 194.8 86.8099C194.4 86.6099 194 86.3099 193.7 85.9099C193.4 85.5099 193.2 85.1099 193.1 84.6099C193 84.1099 193 83.6099 193.2 83.2099L204 43.3099C204.3 42.3099 204.9 41.4099 205.7 40.7099C206.5 40.1099 207.6 39.7099 208.6 39.7099H273.8C274.3 39.7099 274.8 39.8099 275.2 40.0099C275.6 40.2099 276 40.5099 276.3 40.9099C276.6 41.3099 276.8 41.7099 276.9 42.2099C277 42.7099 277 43.2099 276.8 43.6099L266 83.5099C265.7 84.5099 265.1 85.4099 264.3 86.1099C263.5 86.7099 262.5 87.1099 261.4 87.1099Z" fill="#D4D1F4"/>
<path d="M261.4 87.1099H196.2C195.7 87.1099 195.2 87.0099 194.8 86.8099C194.4 86.6099 194 86.3099 193.7 85.9099C193.4 85.5099 193.2 85.1099 193.1 84.6099C193 84.1099 193 83.6099 193.2 83.2099L204 43.3099C204.3 42.3099 204.9 41.4099 205.7 40.7099C206.5 40.1099 207.6 39.7099 208.6 39.7099H273.8C274.3 39.7099 274.8 39.8099 275.2 40.0099C275.6 40.2099 276 40.5099 276.3 40.9099C276.6 41.3099 276.8 41.7099 276.9 42.2099C277 42.7099 277 43.2099 276.8 43.6099L266 83.5099C265.7 84.5099 265.1 85.4099 264.3 86.1099C263.5 86.7099 262.5 87.1099 261.4 87.1099Z" fill="#EBF4F7"/>
<path d="M201.1 54.0099C200.9 54.0099 200.8 53.8099 200.9 53.7099L203.8 43.2099C204.1 42.1099 204.7 41.2099 205.6 40.5099C206.5 39.8099 207.6 39.5099 208.7 39.5099H247.8C247.9 39.5099 248 39.6099 248 39.7099C248 39.8099 247.9 39.9099 247.8 39.9099H208.7C207.7 39.9099 206.7 40.2099 205.9 40.8099C205.1 41.4099 204.5 42.3099 204.3 43.2099L201.4 53.7099C201.3 53.9099 201.2 54.0099 201.1 54.0099Z" fill="#639AD6"/>
<path d="M261.4 87.3099H196.2C195.7 87.3099 195.2 87.2099 194.7 86.9099C194.2 86.7099 193.8 86.3099 193.5 85.9099C193.2 85.5099 193 85.0099 192.9 84.5099C192.8 84.0099 192.8 83.5099 193 83.0099L198.7 61.9099C198.7 61.8099 198.9 61.7099 199 61.7099C199.1 61.7099 199.2 61.9099 199.2 62.0099L193.5 83.1099C193.4 83.5099 193.4 84.0099 193.5 84.4099C193.6 84.8099 193.8 85.2099 194 85.6099C194.3 85.9099 194.6 86.2099 195 86.4099C195.4 86.6099 195.8 86.7099 196.3 86.7099H261.5C262.5 86.7099 263.5 86.4099 264.3 85.8099C265.1 85.2099 265.7 84.3099 265.9 83.4099C265.9 83.3099 266.1 83.2099 266.2 83.2099C266.3 83.2099 266.4 83.4099 266.4 83.5099C266.1 84.6099 265.5 85.5099 264.6 86.2099C263.6 87.0099 262.5 87.3099 261.4 87.3099Z" fill="#639AD6"/>
<path d="M246.7 98.1099L240.2 75.6099H225L231 96.6099C231.5 98.3099 230.1 100.01 228.1 100.01H223.9C223.8 100.01 223.6 100.01 223.6 100.11C223.5 100.21 223.4 100.31 223.4 100.41V101.31C223.4 101.41 223.5 101.51 223.6 101.61C223.7 101.71 223.8 101.71 223.9 101.71H243.6C245.7 101.71 247.2 99.8099 246.7 98.1099Z" fill="#D6EAF2"/>
<path d="M229.4 100.91H223.5V100.41C223.5 100.31 223.6 100.21 223.7 100.11C223.8 100.01 223.9 100.01 224 100.01H228.2C230.2 100.01 231.6 98.3099 231.1 96.6099L225.1 75.6099H226.2L232.4 97.2099C232.5 97.6099 232.5 98.1099 232.4 98.6099C232.3 99.0099 232.1 99.5099 231.8 99.8099C231.5 100.21 231.2 100.51 230.7 100.71C230.3 100.81 229.9 100.91 229.4 100.91Z" fill="white"/>
<path d="M225 75.5099V87.1099H228.3L225 75.5099Z" fill="#A1CBE2"/>
<path d="M205.5 83.0099H202.2L201.9 83.9099H205.2L205.5 83.0099Z" fill="#A1CBE2"/>
<path d="M212.4 83.0099H209.3L209 83.9099H212.1L212.4 83.0099Z" fill="#A1CBE2"/>
<path d="M243.8 101.61V101.11C244.8 101.11 245.7 100.71 246.2 100.01C246.6 99.5099 246.7 98.8099 246.5 98.1099L240 75.6099L240.5 75.5099L247 98.0099C247.2 98.8099 247.1 99.6099 246.6 100.31C246.1 101.11 245 101.61 243.8 101.61Z" fill="#639AD6"/>
<path d="M216.2 118.21C215.4 118.21 214.6 117.91 214.1 117.31C213.5 116.71 213.2 116.01 213.2 115.21V84.5099C213.2 84.3099 213.1 84.1099 213 84.0099C212.9 83.9099 212.7 83.8099 212.5 83.8099H210.9V83.3099H212.5C212.8 83.3099 213.2 83.4099 213.4 83.7099C213.6 84.0099 213.8 84.3099 213.8 84.6099V115.31C213.8 116.01 214.1 116.61 214.5 117.11C215 117.61 215.6 117.81 216.3 117.81C217 117.81 217.6 117.51 218.1 117.11C218.6 116.61 218.8 116.01 218.8 115.31V101.61C218.8 101.51 218.8 101.41 218.7 101.31C218.7 101.21 218.6 101.11 218.5 101.11C218.4 101.01 218.3 101.01 218.3 100.91C218.2 100.91 218.1 100.81 218 100.81H216.5V100.31H218C218.2 100.31 218.3 100.31 218.5 100.41C218.7 100.51 218.8 100.61 218.9 100.71C219 100.81 219.1 101.01 219.2 101.11C219.3 101.31 219.3 101.41 219.3 101.61V115.31C219.3 116.11 219 116.91 218.4 117.41C217.7 117.91 217 118.21 216.2 118.21Z" fill="#639AD6"/>
<path d="M82.1 89.7099H73.9C72.9 89.7099 72.1 90.5099 72.1 91.5099V99.7099C72.1 100.71 72.9 101.51 73.9 101.51H82.1C83.1 101.51 83.9 100.71 83.9 99.7099V91.5099C83.9 90.5099 83.1 89.7099 82.1 89.7099Z" fill="#F5921B"/>
<path d="M77.4 89.7099C77.4 89.7099 75.9 78.8099 86.7 75.6099C86.7 75.6099 82.1 80.2099 80.7 89.7099H77.4Z" fill="#A1CBE2"/>
<path d="M79.3 89.7099C79.3 89.7099 78 80.1099 69.5 79.5099C69.5 79.5099 74.9 81.8099 74.9 89.7099H79.3Z" fill="#A1CBE2"/>
<path d="M76.4 89.7099C76.4 89.7099 75.3 81.9099 79 78.2099C79 78.2099 78.1 84.9099 79.3 89.7099H76.4Z" fill="#D6EAF2"/>
<path d="M78 89.7099C78 89.7099 81.6 87.7099 81.4 83.9099C81.4 83.9099 83.4 87.2099 81.8 89.7099H78Z" fill="#D6EAF2"/>
<path d="M74.2 89.7099C74.2 89.7099 73.2 86.8099 70.6 85.9099C70.6 85.9099 75.2 85.8099 76.4 89.7099H74.2Z" fill="#D6EAF2"/>
<path d="M152.3 41.3099L153.9 44.5099L152.5 45.4099" fill="#A57574"/>
<path d="M152.5 45.7099C152.4 45.7099 152.3 45.7099 152.3 45.6099C152.2 45.5099 152.3 45.3099 152.4 45.3099L153.6 44.5099L152.1 41.5099C152 41.4099 152.1 41.2099 152.2 41.2099C152.3 41.1099 152.5 41.2099 152.5 41.3099L154.1 44.5099C154.2 44.6099 154.1 44.8099 154 44.8099L152.6 45.7099C152.6 45.6099 152.6 45.7099 152.5 45.7099Z" fill="#4E2556"/>
<path d="M55.6 33.7099H122.1V39.8099L55.6 34.2099C55.4 34.1099 55.4 33.7099 55.6 33.7099Z" fill="#FBD3A4"/>
<path d="M115 3.60989H112.2C111.6 3.60989 111.2 4.10989 111.2 4.60989V27.5099C111.2 28.1099 111.7 28.5099 112.2 28.5099H115C115.6 28.5099 116 28.0099 116 27.5099V4.60989C116 4.00989 115.5 3.60989 115 3.60989Z" fill="white"/>
<path d="M115 28.8099H112.2C111.5 28.8099 110.9 28.2099 110.9 27.5099V4.60989C110.9 3.90989 111.5 3.30989 112.2 3.30989H115C115.7 3.30989 116.3 3.90989 116.3 4.60989V27.5099C116.2 28.2099 115.7 28.8099 115 28.8099ZM112.2 3.80989C111.8 3.80989 111.4 4.10989 111.4 4.60989V27.5099C111.4 27.9099 111.7 28.3099 112.2 28.3099H115C115.4 28.3099 115.8 28.0099 115.8 27.5099V4.60989C115.8 4.20989 115.5 3.80989 115 3.80989H112.2Z" fill="#F7A849"/>
<path d="M109.8 5.70988H106.5C105.9 5.70988 105.5 6.10988 105.5 6.70988V28.0099C105.5 28.6099 105.9 29.0099 106.5 29.0099H109.8C110.4 29.0099 110.8 28.6099 110.8 28.0099V6.70988C110.8 6.10988 110.4 5.70988 109.8 5.70988Z" fill="#F5921B"/>
<path d="M104.5 0.0098877H103.6C103.1 0.0098877 102.7 0.409888 102.7 0.909888V28.0099C102.7 28.5099 103.1 28.9099 103.6 28.9099H104.5C105 28.9099 105.4 28.5099 105.4 28.0099V0.909888C105.5 0.409888 105.1 0.0098877 104.5 0.0098877Z" fill="#D6EAF2"/>
<path d="M101.5 7.4099H99.1001C98.5001 7.4099 98.1001 7.9099 98.1001 8.4099V27.7099C98.1001 28.3099 98.6001 28.7099 99.1001 28.7099H101.5C102.1 28.7099 102.5 28.2099 102.5 27.7099V8.4099C102.5 7.8099 102 7.4099 101.5 7.4099Z" fill="white"/>
<path d="M101.5 29.0099H99.1C98.4 29.0099 97.8 28.4099 97.8 27.7099V8.40989C97.8 7.70989 98.4 7.10989 99.1 7.10989H101.5C102.2 7.10989 102.8 7.70989 102.8 8.40989V27.7099C102.8 28.4099 102.2 29.0099 101.5 29.0099ZM99.1 7.60989C98.7 7.60989 98.3 7.90989 98.3 8.40989V27.7099C98.3 28.1099 98.6 28.5099 99.1 28.5099H101.5C101.9 28.5099 102.3 28.2099 102.3 27.7099V8.40989C102.3 8.00989 102 7.60989 101.5 7.60989H99.1V7.60989Z" fill="#F7A849"/>
<path d="M89.8 29.0099H85.9L95.6 3.00989C95.6 2.90989 95.7 2.80989 95.8 2.70989C95.9 2.60989 96 2.60989 96.1 2.60989H98.9C99 2.60989 99.1 2.60989 99.1 2.70989C99.2 2.70989 99.2 2.80989 99.3 2.90989C99.3 3.00989 99.4 3.10989 99.4 3.10989C99.4 3.20989 99.4 3.30989 99.4 3.40989L89.8 29.0099Z" fill="#F5921B"/>
<path d="M121.9 29.0099H55.8V33.4099H122V29.0099H121.9Z" fill="white"/>
<path d="M122.2 33.6099H55.5V28.7099H122.2V33.6099ZM56 33.1099H121.7V29.2099H56V33.1099Z" fill="#F5921B"/>
<path d="M62.5 19.4099H79.2V21.2099C79.2 23.3099 78.4 25.3099 76.9 26.7099C75.4 28.2099 73.4 29.0099 71.4 29.0099H70.4C68.3 29.0099 66.3 28.2099 64.9 26.7099C63.4 25.2099 62.6 23.2099 62.6 21.2099L62.5 19.4099Z" fill="#F5921B"/>
<path d="M77.5 19.4099H65.1C65.1 19.4099 61.5 22.4099 59.4 19.9099C57.9 18.1099 65.1 18.1099 65.1 18.1099L65.3 18.0099C65.3 18.0099 62.2 11.6099 65.1 10.5099C67.1 9.80989 67.6 15.2099 67.7 17.0099C68.8 16.6099 70.8 15.9099 71 17.6099C71 17.6099 71.2 10.7099 74.1 11.4099C76.5 11.9099 72.9 18.4099 72.9 18.4099L73.2 18.6099C73.2 18.6099 79.8 13.8099 81.4 14.9099C82.7 15.6099 77.5 19.4099 77.5 19.4099Z" fill="#A1CBE2"/>
<path d="M67 19.4099C67 19.4099 67.1 13.5099 69.4 13.6099C71.6 13.8099 68.5 19.4099 68.5 19.4099H67Z" fill="#D6EAF2"/>
<path d="M67 19.4099C67 19.4099 64.8 13.8099 61.7 15.2099C58.7 16.6099 65.1 19.4099 65.1 19.4099H67Z" fill="#D6EAF2"/>
<path d="M71.6 19.4099C71.6 19.4099 73.6 14.3099 76.8 14.8099C80 15.3099 72.8 19.4099 72.8 19.4099H71.6Z" fill="#D6EAF2"/>
<path d="M74.9 19.4099C74.9 19.4099 81.2 16.2099 82.3 18.1099C83.4 20.0099 74.9 19.4099 74.9 19.4099Z" fill="#D6EAF2"/>
</g>
<defs>
<clipPath id="clip0">
<rect width="327" height="201" fill="white" transform="translate(0.5 0.0098877)"/>
</clipPath>
</defs>
</svg>
