<svg width="411" height="200" viewBox="0 0 411 200" fill="none" xmlns="http://www.w3.org/2000/svg">
<path d="M284.668 20.4662H276.135V29.5522H284.668V20.4662Z" fill="#FEDBCF"/>
<path d="M280.86 19.3468H279.943V21.6284H280.86V19.3468Z" fill="#F84D11"/>
<path d="M270.833 20.4662V38.9222C270.833 39.7466 270.526 40.5372 269.978 41.1202C269.431 41.7031 268.688 42.0306 267.914 42.0306H252.912C253.66 41.9916 254.365 41.6478 254.881 41.0703C255.397 40.4927 255.685 39.7259 255.685 38.9286V20.4662H270.833Z" fill="#D6EAF2"/>
<path d="M263.254 19.3468H262.337V21.6284H263.254V19.3468Z" fill="#F84D11"/>
<path d="M258.592 24.927H267.563" stroke="#639AD6" stroke-width="0.5" stroke-miterlimit="10"/>
<path d="M258.592 27.2962H267.563" stroke="#639AD6" stroke-width="0.5" stroke-miterlimit="10"/>
<path d="M258.592 29.6633H267.563" stroke="#639AD6" stroke-width="0.5" stroke-miterlimit="10"/>
<path d="M258.592 32.0325H267.563" stroke="#639AD6" stroke-width="0.5" stroke-miterlimit="10"/>
<path d="M258.592 34.4017H267.563" stroke="#639AD6" stroke-width="0.5" stroke-miterlimit="10"/>
<path d="M214.101 139.681L202.795 198.155H203.876L219.004 139.696" fill="#D6EAF2"/>
<path d="M254.198 138.301L265.727 198.155H264.68L249.566 139.67" fill="#D6EAF2"/>
<path d="M238.496 139.681L249.801 198.155H248.719L233.591 139.696" fill="#D6EAF2"/>
<path d="M266.544 110.962L259.723 132.55C259.031 134.742 257.709 136.646 255.945 137.995C254.181 139.343 252.064 140.068 249.893 140.066H211.271C209.099 140.067 206.982 139.343 205.218 137.994C203.455 136.646 202.133 134.741 201.44 132.55L195.823 114.793C195.596 114.074 195.533 113.309 195.639 112.559C195.745 111.81 196.017 111.098 196.432 110.482C196.847 109.866 197.394 109.365 198.028 109.019C198.661 108.673 199.363 108.493 200.074 108.493H204.398C205.386 108.497 206.343 108.12 207.09 107.431C207.837 106.742 208.325 105.788 208.462 104.745L210.982 85.6998C211.272 83.4996 212.3 81.4852 213.874 80.0277C215.449 78.5701 217.466 77.7675 219.552 77.7675H254.327C255.565 77.7676 256.788 78.0506 257.915 78.5972C259.042 79.1439 260.045 79.9415 260.858 80.9363C261.67 81.9311 262.273 83.1 262.625 84.364C262.977 85.628 263.07 86.9577 262.899 88.2634L260.736 104.696C260.674 105.168 260.707 105.649 260.834 106.106C260.961 106.563 261.179 106.985 261.472 107.345C261.766 107.705 262.128 107.993 262.535 108.191C262.942 108.389 263.384 108.492 263.832 108.493H264.875C265.154 108.492 265.43 108.562 265.678 108.697C265.927 108.833 266.142 109.029 266.305 109.271C266.468 109.512 266.575 109.792 266.617 110.086C266.658 110.38 266.633 110.68 266.544 110.962V110.962Z" fill="#D6EAF2"/>
<path d="M263.631 108.262H260.774C258.907 108.245 257.081 108.855 255.558 110.006C254.034 111.156 252.889 112.788 252.286 114.671L247.393 129.147C246.766 131.129 245.571 132.852 243.976 134.073C242.381 135.294 240.466 135.95 238.502 135.951H202.905" stroke="white" stroke-width="0.5" stroke-miterlimit="10"/>
<path d="M233.294 29.2893C242.083 29.5029 238.494 39.343 243.481 41.067C247.012 42.2869 251.454 44.0836 251.359 51.627C251.281 57.8502 250.774 58.7176 255.233 61.3752C261.344 65.007 259.695 77.2483 247.375 76.8125" stroke="#41465A" stroke-width="0.5" stroke-miterlimit="10"/>
<path d="M219.897 36.3713C220.112 35.7475 221.903 27.5012 233.573 28.9539C242.304 30.0413 238.789 40.5586 242.922 42.0433C246.055 43.1671 250.872 44.874 250.356 52.3982C249.931 58.6043 249.375 59.4482 253.679 62.3729C259.577 66.3978 257.245 78.5023 244.972 77.2846C232.698 76.0669 214.328 76.5348 213.497 74.001C212.896 72.1424 207.706 61.1423 215.255 56.3783C217.526 54.9448 221.719 53.2036 221.273 50.4178C220.371 44.7779 217.646 42.9043 219.897 36.3713Z" fill="#252954"/>
<path d="M234.562 47.9568C234.562 47.9568 233.914 56.8825 237.27 59.6191L228.134 59.444C228.134 59.444 228.349 49.559 228.134 47.9611L234.562 47.9568Z" fill="#FFB3A4"/>
<path d="M230.187 55.2225C233.649 55.2225 236.456 53.0388 236.456 50.3452C236.456 47.6515 233.649 45.4679 230.187 45.4679C226.724 45.4679 223.917 47.6515 223.917 50.3452C223.917 53.0388 226.724 55.2225 230.187 55.2225Z" fill="#242854"/>
<path d="M236.853 44.6903C236.853 44.6903 235.023 53.1973 228.439 52.8982C224.062 52.6995 221.799 44.6561 221.48 40.8043C221.213 37.5891 225.149 35.1173 228.032 35.7689C231.583 36.5722 231.775 42.8466 235.507 42.4813L236.853 44.6903Z" fill="#FFB3A4"/>
<path d="M226.192 41.3518C224.676 41.7636 223.198 42.3243 221.779 43.0267C221.557 42.2315 221.405 41.4162 221.323 40.5912C221.123 38.2412 223.171 36.295 225.41 35.6648C225.645 35.746 225.887 35.8357 226.142 35.9361C227.3 36.3912 225.454 38.7497 226.192 41.3518Z" fill="#EA786C"/>
<path d="M227.577 35.6066C228.794 36.0851 226.104 38.5975 226.692 41.3747C224.111 41.9681 221.562 42.7076 219.055 43.5901C219.055 43.5901 216.749 39.8194 218.571 37.2494C220.393 34.6794 223.663 34.0684 227.577 35.6066Z" fill="#252954"/>
<path d="M235.555 45.1026C236.777 45.1026 237.768 44.0476 237.768 42.7462C237.768 41.4448 236.777 40.3898 235.555 40.3898C234.333 40.3898 233.342 41.4448 233.342 42.7462C233.342 44.0476 234.333 45.1026 235.555 45.1026Z" fill="#FFB3A4"/>
<path d="M216.974 64.035C219.963 62.4285 223.225 64.6054 221.608 69.6664C220.437 73.3303 209.983 94.9737 208.797 96.8537C201.597 101.143 173.354 96.2747 173.354 96.2747C173.354 96.2747 169.426 98.0586 168.287 98.0735C167.787 98.0735 164.748 97.4668 164.748 97.4668C164.748 97.4668 164.65 97.0929 165.117 96.6272C165.585 96.1615 168.853 96.687 167.693 95.559C167.178 95.0613 164.483 96.0184 163.28 97.1549C162.076 98.2914 161.564 97.3279 161.564 97.3279C161.564 97.3279 162.754 95.1788 163.169 94.7985C163.585 94.4182 166.285 92.8416 168.08 92.6621C169.382 92.5318 172.494 92.9206 174.115 93.4141C180.422 92.111 193.302 90.31 201.663 90.8377C201.651 90.8484 210.334 67.6049 216.974 64.035Z" fill="#FFB3A4"/>
<path d="M236.831 56.4723C236.831 56.4723 238.757 60.213 249.329 64.0777C249.329 64.0777 249.291 68.9187 247.576 75.285C244.862 85.3601 241.357 99.4472 241.409 104.995C241.409 104.995 230.008 108.492 218.248 104.995C218.248 104.995 218.336 88.1864 217.335 87.4259C216.334 86.6654 213.748 79.6154 214.605 76.1182C215.462 72.621 218.872 63.4881 218.872 63.4881C218.872 63.4881 225.851 61.2641 226.449 56.8526C229.911 57.1927 233.399 57.0649 236.831 56.4723V56.4723Z" fill="#FFF4DE"/>
<path d="M177.622 169.466C175.796 176.693 169.884 183.611 170.249 185.164C170.614 186.717 172.891 188.621 172.295 191.069C171.878 192.778 168.536 191.949 165.946 193.323C163.356 194.696 164.204 196.124 160.044 196.277C155.883 196.431 152.378 196.277 152.378 196.277C152.378 196.277 152.45 194.568 154.348 194.179C156.246 193.791 162.441 189.907 164.339 182.056C166.096 174.792 166.674 169.466 166.674 169.466H177.622Z" fill="#FFB3A4"/>
<path d="M177.621 169.466C177.082 171.602 176.141 173.705 175.194 175.662C170.965 175.328 168.048 174.228 166.134 173.23C166.521 170.88 166.674 169.477 166.674 169.477L177.621 169.466Z" fill="#3A193F"/>
<path d="M218.332 102.947L215.351 106.134C214.256 106.444 184.555 116.47 180.541 122.298C176.526 128.126 163.464 170.477 163.464 170.477C163.464 170.477 169.009 174.623 182.44 173.062C182.44 173.062 190.1 156.026 191.195 132.633C191.195 132.633 225.129 135.122 230.092 126.417C235.056 117.711 230.829 104.579 230.829 104.579C230.829 104.579 222.092 104.166 218.332 102.947Z" fill="#A1CBE2"/>
<path d="M171.854 196.352H150.236C149.696 196.352 149.259 196.818 149.259 197.393V197.497C149.259 198.072 149.696 198.538 150.236 198.538H171.854C172.393 198.538 172.831 198.072 172.831 197.497V197.393C172.831 196.818 172.393 196.352 171.854 196.352Z" fill="#F97141"/>
<path d="M163.27 196.352C163.27 196.352 160.545 192.962 160.034 189.616C159.853 188.433 156.399 190.148 154.457 190.998C149.178 193.308 150.284 196.352 150.284 196.352H163.27Z" fill="#F97141"/>
<path d="M202.478 169.791C203.784 172.829 207.609 182.938 207.694 186.331C207.83 191.325 199.531 195.592 198.969 196.089C198.036 196.916 199.139 197.555 199.139 197.555C199.139 197.555 214.657 195.675 216.392 194.82C218.128 193.966 214.131 189.249 213.728 185.779C213.325 182.31 213.905 172.675 213.189 168.383L202.478 169.791Z" fill="#FFB3A4"/>
<path d="M213.58 174.73C211.21 175.557 208.115 176.463 205.154 176.798C204.129 173.873 203.055 171.137 202.476 169.791L213.199 168.383C213.465 169.964 213.554 172.273 213.58 174.73Z" fill="#3A193F"/>
<path d="M241.427 102.947C241.427 102.947 251.036 121.054 243.959 130.065C236.317 139.796 204.48 136.139 204.48 136.139C204.48 136.139 214.767 148.024 216.3 173.591C216.3 173.591 205.782 175.691 199.364 173.903C199.364 173.903 190.124 141.004 189.37 131.787C188.423 120.2 223.524 112.426 223.524 112.426L224.943 104.094C224.943 104.094 232.173 105.19 241.427 102.947Z" fill="#A1CBE2"/>
<path d="M217.573 194.886L196.117 197.704C195.582 197.774 195.201 198.293 195.267 198.863L195.279 198.967C195.345 199.538 195.833 199.943 196.368 199.873L217.824 197.055C218.36 196.985 218.74 196.465 218.674 195.895L218.662 195.791C218.596 195.221 218.108 194.816 217.573 194.886Z" fill="#FB9470"/>
<path d="M209.042 196.012C209.042 196.012 207.036 190.885 202.153 191.526C197.27 192.167 196.154 197.707 196.154 197.707L209.042 196.012Z" fill="#FB9470"/>
<path d="M257.372 99.0178C251.897 102.716 225.274 91.2051 225.274 91.2051C225.274 91.2051 223.669 93.6641 221.897 93.6641C220.126 93.6641 218.487 92.9292 217.564 93.6897C216.641 94.4502 215.678 95.6851 214.972 95.794C214.126 95.9414 213.258 95.8569 212.45 95.5483C212.45 95.5483 213.052 94.4075 213.684 93.3094C213.12 93.7132 212.354 94.6126 211.927 94.9651C211.76 95.1147 211.551 95.2007 211.333 95.2096C211.115 95.2185 210.9 95.1497 210.723 95.0142C210.723 95.0142 211.959 93.1919 212.436 92.7091C212.914 92.2263 214.27 91.6003 215.129 91.2649C216.071 90.8761 221.526 88.6073 224.218 88.274C227.075 87.9194 250.34 90.3527 250.34 90.3527C250.34 90.3527 245.042 76.2955 244.699 72.653C244.194 67.2801 246.338 64.0179 248.912 64.0136C253.494 63.9944 261.912 95.9521 257.372 99.0178Z" fill="#FFB3A4"/>
<path d="M213.309 95.7748C213.289 95.7754 213.269 95.7694 213.253 95.7577C213.241 95.7499 213.231 95.7397 213.223 95.7277C213.215 95.7157 213.21 95.7022 213.207 95.6879C213.204 95.6736 213.203 95.6588 213.206 95.6444C213.208 95.63 213.213 95.6162 213.221 95.6039C213.405 95.2962 215.04 92.5809 215.618 92.2754C216.621 91.7499 217.927 91.0556 217.927 91.0556L218.021 91.2564L215.712 92.4763C215.267 92.7113 213.891 94.901 213.397 95.7235C213.388 95.7394 213.375 95.7525 213.359 95.7615C213.344 95.7705 213.327 95.7751 213.309 95.7748V95.7748Z" fill="#DB7800"/>
<path d="M214.456 95.7748C214.438 95.7747 214.419 95.7692 214.403 95.7588C214.387 95.7484 214.373 95.7335 214.365 95.7158C214.356 95.698 214.352 95.678 214.353 95.6579C214.354 95.6379 214.36 95.6184 214.37 95.6017C214.434 95.4992 215.965 93.1193 216.551 92.8117C217.554 92.284 218.86 91.5918 218.86 91.5918L218.954 91.7905C218.954 91.7905 217.646 92.4848 216.645 93.0103C216.198 93.2453 214.976 95.0506 214.543 95.7278C214.533 95.7423 214.52 95.7542 214.505 95.7624C214.49 95.7705 214.473 95.7748 214.456 95.7748V95.7748Z" fill="#DB7800"/>
<path d="M307 99.9749H104V104.609H307V99.9749Z" fill="#FEDBCF"/>
<path d="M301.375 182.511H276.097V185.76H301.375V182.511Z" fill="#F4E8CE"/>
<path d="M297.86 104.762H279.578V109.069H297.86V104.762Z" fill="#FEDBCF"/>
<path d="M304.936 198.536C304.501 198.536 304.081 198.374 303.747 198.078C303.413 197.782 303.187 197.371 303.108 196.916L289.139 115.983C289.121 115.878 289.069 115.783 288.992 115.715C288.916 115.647 288.819 115.61 288.719 115.61C288.619 115.61 288.522 115.647 288.445 115.715C288.369 115.783 288.317 115.878 288.299 115.983L274.328 196.916C274.249 197.371 274.024 197.783 273.69 198.078C273.356 198.374 272.935 198.536 272.5 198.536V198.536C272.228 198.536 271.959 198.472 271.712 198.349C271.466 198.226 271.247 198.047 271.073 197.824C270.899 197.601 270.772 197.34 270.703 197.06C270.634 196.779 270.624 196.486 270.673 196.201L285.739 108.918H291.697L306.763 196.201C306.813 196.486 306.803 196.779 306.734 197.06C306.665 197.341 306.538 197.602 306.364 197.825C306.189 198.048 305.971 198.227 305.724 198.35C305.477 198.473 305.208 198.536 304.936 198.536Z" fill="#FEDBCF"/>
<path d="M134.939 182.511H109.661V185.76H134.939V182.511Z" fill="#F4E8CE"/>
<path d="M131.422 104.762H113.14V109.069H131.422V104.762Z" fill="#FEDBCF"/>
<path d="M138.5 198.536C138.065 198.536 137.645 198.374 137.311 198.078C136.977 197.782 136.751 197.371 136.672 196.916L122.701 115.985C122.683 115.88 122.631 115.785 122.554 115.717C122.478 115.649 122.381 115.612 122.281 115.612C122.181 115.612 122.084 115.649 122.007 115.717C121.931 115.785 121.879 115.88 121.861 115.985L107.892 196.916C107.813 197.371 107.587 197.782 107.253 198.078C106.919 198.374 106.499 198.536 106.064 198.536C105.792 198.536 105.523 198.473 105.276 198.35C105.029 198.227 104.81 198.048 104.636 197.825C104.462 197.602 104.335 197.341 104.266 197.06C104.197 196.779 104.187 196.486 104.237 196.201L119.301 108.918H125.261L140.327 196.201C140.376 196.486 140.366 196.779 140.297 197.06C140.228 197.34 140.101 197.601 139.927 197.824C139.753 198.047 139.534 198.226 139.288 198.349C139.041 198.472 138.772 198.536 138.5 198.536V198.536Z" fill="#FEDBCF"/>
<path d="M160.457 61.2086C161.524 61.2086 162.262 60.102 162.262 58.9377V52.4175C162.263 52.1168 162.207 51.8189 162.1 51.541C161.992 51.263 161.834 51.0104 161.634 50.7975C161.434 50.5847 161.198 50.4157 160.937 50.3004C160.676 50.185 160.396 50.1255 160.114 50.1252H146.173C145.891 50.1252 145.611 50.1845 145.35 50.2998C145.089 50.415 144.851 50.5839 144.652 50.7968C144.452 51.0097 144.294 51.2624 144.186 51.5405C144.078 51.8186 144.022 52.1166 144.023 52.4175V58.9377C144.023 59.5451 144.249 60.1276 144.652 60.5571C145.056 60.9866 145.603 61.2279 146.173 61.2279H154.344C156.35 61.2279 157.422 64.646 157.422 64.646C157.422 64.646 158.108 61.2086 160.457 61.2086Z" fill="#FEDBCF"/>
<path d="M149.156 56.4745C149.6 56.4745 149.959 56.0919 149.959 55.6199C149.959 55.148 149.6 54.7654 149.156 54.7654C148.713 54.7654 148.354 55.148 148.354 55.6199C148.354 56.0919 148.713 56.4745 149.156 56.4745Z" fill="#FB9470"/>
<path d="M153.14 56.53C153.584 56.53 153.943 56.1474 153.943 55.6755C153.943 55.2035 153.584 54.8209 153.14 54.8209C152.697 54.8209 152.338 55.2035 152.338 55.6755C152.338 56.1474 152.697 56.53 153.14 56.53Z" fill="#FB9470"/>
<path d="M157.125 56.53C157.568 56.53 157.927 56.1474 157.927 55.6755C157.927 55.2035 157.568 54.8209 157.125 54.8209C156.682 54.8209 156.322 55.2035 156.322 55.6755C156.322 56.1474 156.682 56.53 157.125 56.53Z" fill="#FB9470"/>
<path d="M187.771 69.2499H155.149C154.788 69.2494 154.433 69.3418 154.114 69.5191C153.794 69.6965 153.52 69.9536 153.314 70.2685C153.108 70.5833 152.976 70.9466 152.931 71.3272C152.885 71.7079 152.927 72.0946 153.052 72.4544L161.277 96.2534H199.479L190.972 71.6212C190.73 70.9248 190.294 70.3241 189.721 69.9001C189.149 69.4761 188.468 69.2492 187.771 69.2499V69.2499Z" fill="#F97141"/>
<path d="M187.129 70.4569H155.319C154.969 70.457 154.623 70.5472 154.312 70.7199C154.002 70.8927 153.735 71.1428 153.534 71.4491C153.333 71.7554 153.205 72.1087 153.161 72.479C153.116 72.8493 153.156 73.2256 153.277 73.576L161.302 96.7832H198.546L190.252 72.777C190.017 72.0966 189.591 71.5094 189.033 71.0946C188.474 70.6797 187.81 70.4572 187.129 70.4569Z" fill="#F84D11"/>
<path d="M161.203 96.247H223.779C224.199 96.247 224.615 96.3351 225.003 96.5062C225.391 96.6773 225.743 96.9282 226.04 97.2444C226.337 97.5606 226.573 97.936 226.733 98.3492C226.894 98.7623 226.977 99.2051 226.977 99.6523V99.7442H164.401C163.553 99.7442 162.74 99.3854 162.14 98.7468C161.54 98.1081 161.203 97.242 161.203 96.3388V96.247Z" fill="#F97141"/>
<path d="M177.732 86.4017C178.9 85.0198 178.549 82.6548 176.948 81.1192C175.346 79.5837 173.101 79.4591 171.932 80.8409C170.764 82.2228 171.115 84.5878 172.716 86.1234C174.318 87.6589 176.563 87.7835 177.732 86.4017Z" fill="#FFD473"/>
<path d="M207.555 97.4989H204.889V98.5179H207.555V97.4989Z" fill="#3A193F"/>
<path d="M212.649 97.4989H209.983V98.5179H212.649V97.4989Z" fill="#952E0A"/>
<path d="M276.404 90.1754H275.373V87.9515H265.962V98.0735C265.962 98.3233 266.008 98.5707 266.098 98.8015C266.187 99.0323 266.319 99.242 266.485 99.4186C266.65 99.5953 266.847 99.7353 267.064 99.8307C267.281 99.9262 267.513 99.9752 267.748 99.9749H273.588C274.061 99.9749 274.515 99.7746 274.85 99.418C275.185 99.0614 275.373 98.5778 275.373 98.0735V94.6233H276.404C276.958 94.6233 277.489 94.389 277.881 93.972C278.273 93.5549 278.493 92.9892 278.493 92.3994C278.493 91.8096 278.273 91.2439 277.881 90.8268C277.489 90.4098 276.958 90.1754 276.404 90.1754V90.1754ZM277.139 93.2283C277.036 93.3371 276.915 93.4234 276.781 93.482C276.648 93.5407 276.505 93.5706 276.36 93.5701H275.373V91.2201H276.36C276.578 91.2197 276.791 91.2881 276.972 91.4167C277.153 91.5454 277.294 91.7284 277.378 91.9425C277.461 92.1567 277.483 92.3925 277.44 92.6198C277.398 92.8472 277.293 93.056 277.139 93.2197V93.2283Z" fill="white" stroke="#F1B104" stroke-width="0.5" stroke-miterlimit="10"/>
<path d="M271.385 87.003C270.889 86.4625 268.293 84.653 268.873 82.0488C269.453 79.4446 273.128 80.0086 273.016 77.0988C272.92 74.6314 270.889 75.6205 270.444 76.5199C270.444 76.5199 270.713 73.2641 273.505 74.3515C278.22 76.1866 272.747 81.4015 271.182 82.8435C269.746 84.1702 271.385 87.003 271.385 87.003Z" fill="#FFF4DE"/>
<path d="M274.681 80.0235C274.681 80.0235 274.079 82.2218 271.63 83.3028C271.63 83.3028 275.389 83.3028 274.681 80.0235Z" fill="#FFF4DE"/>
<path d="M301.798 99.9749C301.798 99.9749 308.852 58.8223 273.523 53.0776" stroke="#F97141" stroke-width="0.5" stroke-miterlimit="10"/>
<path d="M301.936 99.7463H283.131C284.443 96.5054 288.146 94.1682 292.534 94.1682C296.921 94.1682 300.624 96.5054 301.936 99.7463Z" fill="#F97141"/>
<path d="M301.936 99.7463H299.569C298.323 96.6721 294.801 94.4545 290.648 94.4545C290.355 94.4545 290.066 94.4545 289.781 94.4887C290.685 94.275 291.608 94.1676 292.534 94.1682C296.909 94.1682 300.624 96.5054 301.936 99.7463Z" fill="#C63E0E"/>
<path d="M273.826 53.4622C273.656 54.2762 273.054 54.9128 272.199 55.2995C271.22 55.7438 269.908 55.8613 268.544 55.5387C267.18 55.2162 266.039 54.5304 265.322 53.6758C264.7 52.9409 264.406 52.0928 264.574 51.2789C264.937 49.5313 267.302 48.602 269.858 49.2023C272.414 49.8026 274.189 51.7104 273.826 53.4622Z" fill="#F97141"/>
<path d="M273.827 53.4636C273.668 54.2263 273.127 54.8352 272.352 55.2283C272.716 54.9225 272.973 54.495 273.081 54.0148C273.42 52.3827 271.763 50.6073 269.381 50.0455C267.134 49.5178 265.044 50.2591 264.528 51.7118C264.531 51.5681 264.546 51.425 264.575 51.2846C264.938 49.5349 267.303 48.6056 269.859 49.2059C272.415 49.8062 274.19 51.714 273.827 53.4636Z" fill="#F97141"/>
<path d="M271.682 54.8914C270.704 55.2599 269.648 55.3286 268.635 55.09C267.623 54.8513 266.693 54.3147 265.952 53.5412C265.621 52.7721 267.575 52.503 269.098 52.8619C270.621 53.2208 272.312 54.4855 271.682 54.8914Z" fill="#F84D11"/>
<path d="M134.048 36.0574H200.919V42.5775L134.034 36.5594C133.857 36.5402 133.87 36.0574 134.048 36.0574Z" fill="#FEDBCF"/>
<path d="M193.709 3.80914H190.896C190.326 3.80914 189.863 4.30173 189.863 4.90936V29.4454C189.863 30.053 190.326 30.5456 190.896 30.5456H193.709C194.279 30.5456 194.742 30.053 194.742 29.4454V4.90936C194.742 4.30173 194.279 3.80914 193.709 3.80914Z" fill="white" stroke="#F97141" stroke-width="0.5" stroke-miterlimit="10"/>
<path d="M188.553 6.07153H185.195C184.637 6.07153 184.186 6.55264 184.186 7.14612V30.0008C184.186 30.5943 184.637 31.0754 185.195 31.0754H188.553C189.11 31.0754 189.562 30.5943 189.562 30.0008V7.14612C189.562 6.55264 189.11 6.07153 188.553 6.07153Z" fill="#F84D11"/>
<path d="M183.245 0H182.338C181.818 0 181.397 0.448589 181.397 1.00195V30.0734C181.397 30.6268 181.818 31.0754 182.338 31.0754H183.245C183.764 31.0754 184.186 30.6268 184.186 30.0734V1.00195C184.186 0.448589 183.764 0 183.245 0Z" fill="#D6EAF2"/>
<path d="M180.165 7.88318H177.75C177.18 7.88318 176.719 8.37481 176.719 8.98126V29.6612C176.719 30.2676 177.18 30.7592 177.75 30.7592H180.165C180.735 30.7592 181.196 30.2676 181.196 29.6612V8.98126C181.196 8.37481 180.735 7.88318 180.165 7.88318Z" fill="white" stroke="#F97141" stroke-width="0.5" stroke-miterlimit="10"/>
<path d="M168.391 31.0754H164.483L174.259 3.18105C174.297 3.07294 174.365 2.97967 174.454 2.91365C174.543 2.84763 174.648 2.81199 174.757 2.81146H177.529C177.616 2.81272 177.701 2.83619 177.777 2.87989C177.854 2.92359 177.919 2.98623 177.968 3.06251C178.017 3.1388 178.048 3.22648 178.058 3.31814C178.068 3.4098 178.057 3.50274 178.027 3.58909L168.391 31.0754Z" fill="#F84D11"/>
<path d="M200.728 31.0754H134.195V35.7498H200.728V31.0754Z" fill="white" stroke="#FB9470" stroke-width="0.5" stroke-miterlimit="10"/>
<path d="M140.919 20.712H157.707V22.6753C157.707 24.9038 156.875 27.0409 155.396 28.6166C153.916 30.1924 151.909 31.0776 149.816 31.0776H148.801C146.709 31.0776 144.702 30.1924 143.222 28.6166C141.742 27.0409 140.911 24.9038 140.911 22.6753V20.712H140.919Z" fill="#F84D11"/>
<path d="M156.027 20.712H143.589C143.589 20.712 139.95 23.8717 137.874 21.2803C136.369 19.4045 143.567 19.3212 143.567 19.3212L143.784 19.24C143.784 19.24 140.696 12.3354 143.615 11.1839C145.622 10.387 146.119 16.2363 146.223 18.1356C147.285 17.6634 149.355 16.9819 149.534 18.7765C149.534 18.7765 149.764 11.3868 152.671 12.0918C155.089 12.6793 151.504 19.6246 151.504 19.6246L151.754 19.787C151.754 19.787 158.397 14.6213 160.026 15.8219C161.257 16.7298 156.027 20.712 156.027 20.712Z" fill="#A1CBE2"/>
<path d="M145.493 20.712C145.493 20.712 145.622 14.3414 147.874 14.5166C150.127 14.6918 146.988 20.712 146.988 20.712H145.493Z" fill="#D6EAF2"/>
<path d="M145.493 20.712C145.493 20.712 143.234 14.7003 140.173 16.2406C137.182 17.7361 143.615 20.712 143.615 20.712H145.493Z" fill="#D6EAF2"/>
<path d="M150.135 20.712C150.135 20.712 152.164 15.2963 155.379 15.8112C158.595 16.326 151.409 20.712 151.409 20.712H150.135Z" fill="#D6EAF2"/>
<path d="M153.443 20.712C153.443 20.712 159.735 17.3387 160.866 19.3725C161.998 21.4063 153.443 20.712 153.443 20.712Z" fill="#D6EAF2"/>
<path d="M227.815 49.3839C227.815 49.3839 229.473 49.5847 230.801 47.4761" stroke="#3A1A3F" stroke-width="0.5" stroke-linecap="round" stroke-linejoin="round"/>
<path d="M234.41 43.3338C234.41 43.3338 234.41 41.3854 236.015 41.4111" stroke="#E2564B" stroke-width="0.5" stroke-linecap="round" stroke-linejoin="round"/>
<path d="M234.781 42.2806L235.85 42.8125" stroke="#E2564B" stroke-width="0.5" stroke-linecap="round" stroke-linejoin="round"/>
<path d="M237.27 45.3484C237.719 45.3484 238.083 44.961 238.083 44.4831C238.083 44.0053 237.719 43.6179 237.27 43.6179C236.822 43.6179 236.458 44.0053 236.458 44.4831C236.458 44.961 236.822 45.3484 237.27 45.3484Z" fill="#FFCDC5"/>
<path d="M226.722 43.6179V46.957L227.559 47.3181" stroke="#E2564B" stroke-width="0.5" stroke-linecap="round" stroke-linejoin="round"/>
<path d="M228.134 40.7381C228.134 40.7381 229.051 39.9818 230.634 40.7381" stroke="#3A1A3F" stroke-width="0.5" stroke-linecap="round" stroke-linejoin="round"/>
<path d="M229.667 43.8832C229.967 43.8272 230.155 43.4464 230.087 43.0327C230.019 42.619 229.721 42.329 229.42 42.385C229.12 42.441 228.932 42.8218 229 43.2355C229.068 43.6492 229.367 43.9392 229.667 43.8832Z" fill="#242854"/>
<path d="M224.636 45.2446C224.933 45.1703 225.1 44.7786 225.01 44.3697C224.92 43.9608 224.606 43.6896 224.309 43.7639C224.013 43.8383 223.845 44.23 223.936 44.6388C224.026 45.0477 224.34 45.3189 224.636 45.2446Z" fill="#242854"/>
<path d="M199.364 173.901C199.364 173.901 190.124 141.001 189.37 131.785C188.423 120.2 223.524 112.426 223.524 112.426" stroke="#639AD6" stroke-width="0.5" stroke-miterlimit="10"/>
</svg>
