<svg width="366" height="202" viewBox="0 0 366 202" fill="none" xmlns="http://www.w3.org/2000/svg">
<g clip-path="url(#clip0)">
<path d="M195.9 138.61V139.41C195.9 139.71 195.8 140.01 195.7 140.31C195.6 140.61 195.4 140.81 195.2 141.01C195 141.21 194.7 141.41 194.5 141.51C194.2 141.61 193.9 141.71 193.6 141.71H132.7C129.5 141.71 126.4 140.61 123.9 138.61C121.4 136.61 119.7 133.81 119 130.71L108.2 82.0099C107.9 80.8099 107.9 79.6099 108.2 78.5099C108.5 77.3099 109 76.3099 109.7 75.3099C110.4 74.4099 111.4 73.6099 112.5 73.1099C113.6 72.6099 114.7 72.3099 115.9 72.3099H137C139.4 72.3099 141.7 73.1099 143.6 74.6099C145.5 76.1099 146.8 78.2099 147.3 80.5099L157.3 125.01C158 128.21 159.8 131.01 162.3 133.11C164.9 135.11 168 136.31 171.3 136.31H193.7C194.3 136.31 194.9 136.51 195.3 137.01C195.7 137.41 195.9 138.01 195.9 138.61Z" fill="#D6EAF2"/>
<path d="M156.7 196.41H125.5V195.91H156.7C158 195.91 159.2 195.61 160.4 195.21C161.6 194.71 162.6 194.01 163.6 193.11C164.5 192.21 165.2 191.11 165.7 189.91C166.2 188.71 166.4 187.51 166.4 186.21V152.01C166.4 149.41 165.4 146.91 163.6 145.11C161.8 143.31 159.3 142.21 156.7 142.21H130.4V141.71H156.7C159.4 141.71 162 142.81 163.9 144.71C165.8 146.61 166.9 149.21 166.9 151.91V186.11C166.9 187.51 166.6 188.81 166.1 190.01C165.6 191.31 164.8 192.41 163.9 193.31C162.9 194.31 161.8 195.01 160.6 195.51C159.4 196.11 158.1 196.41 156.7 196.41Z" fill="#639AD6"/>
<path d="M178.8 196.41H153.8V195.91H178.8C181.4 195.91 183.8 194.91 185.7 193.01C187.5 191.21 188.5 188.71 188.5 186.11V151.91C188.5 149.31 187.5 146.91 185.7 145.01C183.9 143.21 181.4 142.11 178.8 142.11H143.8V141.61H178.8C181.5 141.61 184.1 142.71 186 144.61C187.9 146.51 189 149.11 189 151.81V186.01C189 188.71 187.9 191.31 186 193.21C184.1 195.31 181.5 196.41 178.8 196.41Z" fill="#639AD6"/>
<path d="M188.8 176.71H166.7V177.21H188.8V176.71Z" fill="#639AD6"/>
<path d="M172.1 56.0099C172.1 56.0099 182.3 56.7099 187.3 66.0099C192.3 75.3099 198.5 88.1099 198.5 88.1099C198.5 88.1099 216 87.6099 229 95.7099V101.51H191.8C187.2 101.51 172.2 83.8099 171.4 72.4099C170.4 60.9099 172.1 56.0099 172.1 56.0099Z" fill="#2A59D8"/>
<path d="M226 101.41C225.3 101.21 225.8 98.8099 226.2 97.4099C226.4 96.6099 227 96.2099 227.8 95.8099C229.3 95.1099 232 94.3099 233.5 94.6099C235.7 95.1099 237.1 96.5099 238.5 98.2099C238.9 98.7099 240.8 101.01 240.8 101.61L226 101.41Z" fill="#A57574"/>
<path d="M152.9 52.2099C146.4 52.2099 133 65.7099 135.4 100.11C137.1 125.41 145 136.01 146.8 135.31C148.5 134.61 169.6 116.11 172.4 106.21C175.3 96.2099 190.5 62.1099 170.4 55.5099C156.4 50.9099 155 52.2099 152.9 52.2099Z" fill="#2A59D8"/>
<path d="M218.3 196.31H195.5C195.5 196.01 195.5 195.61 195.5 195.31H218.4C218.3 195.61 218.3 195.91 218.3 196.31Z" fill="white"/>
<path d="M197.8 186.11C197.9 188.61 195.5 190.21 195.5 195.31H218.3C218.3 195.31 218.6 191.01 214.1 190.01C209.5 189.01 205.4 187.71 205 186.11H197.8V186.11Z" fill="#A1CBE2"/>
<path d="M205.1 191.01H205C204.9 190.91 204.9 190.81 204.9 190.71L207 187.61C207.1 187.51 207.2 187.51 207.3 187.51C207.4 187.51 207.4 187.71 207.4 187.81L205.3 190.91C205.3 190.91 205.2 191.01 205.1 191.01Z" fill="white"/>
<path d="M206.7 191.31H206.6C206.5 191.21 206.5 191.11 206.5 191.01L208.5 188.21C208.6 188.11 208.7 188.11 208.8 188.11C208.9 188.21 208.9 188.31 208.9 188.41L206.9 191.21C206.9 191.31 206.8 191.31 206.7 191.31Z" fill="white"/>
<path d="M208.8 191.51H208.7C208.6 191.41 208.5 191.31 208.6 191.21L210.2 188.61C210.3 188.51 210.4 188.41 210.5 188.51C210.6 188.61 210.7 188.71 210.6 188.81L209 191.41C209 191.41 208.9 191.51 208.8 191.51Z" fill="white"/>
<path d="M173.3 107.91C173.3 107.91 208.1 105.71 216.6 115.71C225.1 125.71 208.6 161.11 207 182.71C207 182.71 198.7 183.51 195.3 182.71C191.9 181.91 189 145.01 197.5 134.91C197.5 134.91 165.1 142.41 152.5 133.01C139.8 123.61 168 108.11 173.3 107.91Z" fill="#242854"/>
<path d="M195.3 186.91C196.5 187.31 200.1 188.21 207.1 187.11C207.5 187.01 207.7 186.51 207.7 186.11V183.41C207.7 183.31 207.7 183.21 207.6 183.11C207.6 183.01 207.5 182.91 207.4 182.81C207.3 182.71 207.2 182.71 207.1 182.61C207 182.61 206.9 182.61 206.8 182.61C200.7 183.51 196.7 183.01 195 182.61C194.9 182.61 194.8 182.61 194.6 182.61C194.5 182.61 194.4 182.71 194.3 182.81C194.2 182.91 194.1 183.01 194.1 183.11C194.1 183.21 194 183.31 194.1 183.51L194.7 186.31C194.7 186.41 194.8 186.61 194.9 186.71C195 186.71 195.2 186.81 195.3 186.91Z" fill="#4E577D"/>
<path d="M269.8 161.81L251.7 175.71C251.4 175.41 251.2 175.11 251 174.81L269 161.01C269.3 161.11 269.6 161.41 269.8 161.81Z" fill="white"/>
<path d="M247.2 166.01C248.8 167.91 247.8 170.61 251 174.71L269.1 160.81C269.1 160.81 266.7 157.21 262.5 159.21C258.3 161.21 254.2 162.71 252.9 161.71L247.2 166.01Z" fill="#A1CBE2"/>
<path d="M255.9 165.31C255.8 165.31 255.7 165.21 255.7 165.11L255.5 161.51C255.5 161.41 255.6 161.21 255.7 161.21C255.9 161.21 256 161.31 256 161.41L256.2 165.01C256.1 165.21 256 165.31 255.9 165.31Z" fill="white"/>
<path d="M257.3 164.51C257.2 164.51 257.1 164.41 257.1 164.31L256.9 161.11C256.9 161.01 257 160.81 257.1 160.81C257.2 160.81 257.4 160.91 257.4 161.01L257.6 164.21C257.5 164.31 257.4 164.41 257.3 164.51Z" fill="white"/>
<path d="M258.6 163.61C258.5 163.61 258.4 163.51 258.4 163.41L258.2 160.61C258.2 160.51 258.3 160.31 258.4 160.31C258.5 160.31 258.7 160.41 258.7 160.51L258.9 163.31C258.9 163.41 258.8 163.61 258.6 163.61Z" fill="white"/>
<path d="M146.6 134.01C147.1 136.81 176.7 143.61 208.3 123.71C208.3 123.71 211.1 146.71 242.9 164.11C242.9 164.11 249.9 161.11 251.8 157.11C251.8 157.11 231.5 132.81 223.5 110.51C220.1 101.11 177.9 106.01 171.7 108.01C165.5 109.91 144.3 121.51 146.6 134.01Z" fill="#242854"/>
<path d="M149.1 135.51C147.6 135.01 146.7 134.41 146.6 133.91C144.5 122.71 161.4 112.21 169.3 108.81C161.5 113.41 148.1 125.21 149.1 135.51Z" fill="#383C4D"/>
<path d="M245.2 167.51C246.4 167.01 249.6 165.41 254.5 160.31C254.6 160.21 254.7 160.01 254.7 159.81C254.7 159.61 254.7 159.41 254.5 159.31L252.8 157.11C252.7 157.01 252.7 156.91 252.6 156.91C252.5 156.81 252.4 156.81 252.3 156.81C252.2 156.81 252.1 156.81 252 156.81C251.9 156.81 251.8 156.91 251.7 157.01C247.4 161.41 244.1 163.31 242.6 164.11C242.5 164.21 242.4 164.21 242.3 164.31C242.2 164.41 242.2 164.51 242.2 164.61C242.2 164.71 242.2 164.81 242.2 165.01C242.2 165.21 242.3 165.21 242.4 165.31L244.4 167.31C244.5 167.41 244.6 167.51 244.8 167.51C244.9 167.61 245 167.61 245.2 167.51Z" fill="#6874A7"/>
<path d="M154.6 59.6099C161.3 61.8099 169.6 85.4099 169.6 85.4099C169.6 85.4099 181.4 87.6099 197.5 94.4099C197.5 94.4099 198.4 98.6099 196.2 101.51C196.2 101.51 164.4 101.71 161.2 101.51C158 101.31 143.5 89.2099 139.9 75.9099C136.3 62.6099 146.4 56.9099 154.6 59.6099Z" fill="#557AE0"/>
<path d="M200.1 83.9099L206.9 100.61H208.1L201.2 83.5099C201.1 83.4099 201.1 83.3099 200.9 83.2099C200.8 83.1099 200.6 83.1099 200.5 83.2099C200.4 83.2099 200.4 83.3099 200.3 83.3099C200.2 83.3099 200.2 83.4099 200.2 83.5099C200.2 83.6099 200.2 83.6099 200.2 83.7099C200.2 83.8099 200.1 83.9099 200.1 83.9099Z" fill="#41465A"/>
<path d="M197.4 95.7099C197.4 95.7099 202.1 93.2099 204.3 93.7099C206.5 94.2099 209.2 96.2099 209.4 96.7099C209.7 97.3099 211.6 100.01 211.6 100.61C211.6 101.21 205.3 101.01 204.5 101.01C203.6 101.01 197.8 101.11 196.7 100.91C195.6 100.61 197.4 95.7099 197.4 95.7099Z" fill="#A57574"/>
<path d="M204.5 101.01C205.4 101.01 211.6 101.21 211.6 100.61C211.6 100.01 209.7 97.3099 209.4 96.7099C209.1 96.1099 206.5 94.2099 204.3 93.7099C204.3 93.7099 207.1 97.5099 204.5 101.01Z" fill="#A57574"/>
<path d="M171.8 101.91C166.6 101.91 162.4 101.91 161.3 101.81C157.8 101.51 143.3 89.3099 139.7 76.0099L140.2 75.9099C143.8 89.2099 158.5 101.11 161.3 101.31C164.4 101.51 195.9 101.31 196.2 101.31V101.81C195.4 101.81 181.8 101.91 171.8 101.91Z" fill="#D4DEF7"/>
<path d="M189.2 91.4099C177.7 87.2099 169.7 85.7099 169.6 85.7099H169.5V85.6099C169.4 85.4099 161.2 62.1099 154.7 59.9099L154.9 59.4099C161.5 61.6099 169.2 83.1099 170 85.2099C171.1 85.4099 178.8 87.0099 189.5 90.9099L189.2 91.4099Z" fill="#D4DEF7"/>
<path d="M235.4 101.51V100.51C235.4 100.21 235.3 100.01 235.2 99.7099C235.1 99.4099 234.9 99.2099 234.7 99.0099C234.5 98.8099 234.3 98.7099 234 98.6099C233.7 98.5099 233.5 98.5099 233.2 98.5099L196.8 100.81C196.6 100.81 196.4 100.91 196.3 101.01C196.2 101.11 196.1 101.31 196.1 101.51H235.4Z" fill="#A1CBE2"/>
<path d="M156.8 37.0099C156.8 37.0099 156 47.1099 150 53.4099C150 53.4099 156.8 58.8099 164.1 54.8099L164.9 37.0099H156.8Z" fill="#A57574"/>
<path d="M174.4 34.8099C174.4 34.8099 172.6 39.2099 173.3 47.3099C173.9 55.4099 161.1 51.2099 160.9 45.6099C160.7 40.0099 161.6 34.9099 163 34.8099C164.4 34.7099 174.4 34.8099 174.4 34.8099Z" fill="#A57574"/>
<path d="M154.8 43.6099C154.8 43.6099 156.7 39.0099 155.4 33.9099C154.4 30.1099 158.4 28.0099 161.9 30.0099C161.9 30.0099 174.8 22.9099 177.7 30.7099C181.2 40.0099 164.3 35.3099 164 35.7099C163.7 36.1099 162.7 43.3099 164.6 45.8099C166.4 48.3099 168.4 45.8099 171 45.6099C173.7 45.4099 173.4 47.2099 173.4 47.2099C173.4 47.2099 174.2 51.6099 174.5 53.2099C174.8 54.9099 164.4 57.7099 161.7 53.4099C159.2 49.5099 160.8 41.8099 159.8 41.1099C157.7 39.8099 156 42.1099 157.2 43.1099C157 43.0099 155.7 43.8099 154.8 43.6099Z" fill="#242854"/>
<path d="M176.8 36.4099C172.8 38.5099 164.5 35.9099 163.8 35.4099L176.8 36.4099Z" fill="#242854"/>
<path d="M158.2 28.3099C159.6 28.2099 161.1 28.7099 161.8 30.0099L158.2 28.3099Z" fill="#4E2556"/>
<path d="M168.2 41.8099C168.5 41.8099 168.8 41.5099 168.8 41.0099C168.8 40.5099 168.5 40.2099 168.2 40.2099C167.9 40.2099 167.6 40.5099 167.6 41.0099C167.6 41.5099 167.9 41.8099 168.2 41.8099Z" fill="#242854"/>
<path d="M172.5 41.8099C172.8 41.8099 173 41.5099 173 41.0099C173 40.5099 172.8 40.2099 172.5 40.2099C172.2 40.2099 172 40.5099 172 41.0099C172 41.5099 172.3 41.8099 172.5 41.8099Z" fill="#242854"/>
<path d="M168 43.8099C166.6 43.8099 165.4 42.5099 165.4 41.0099C165.4 39.5099 166.6 38.2099 168 38.2099C169.4 38.2099 170.6 39.5099 170.6 41.0099C170.6 42.5099 169.4 43.8099 168 43.8099ZM168 38.7099C166.8 38.7099 165.9 39.7099 165.9 41.0099C165.9 42.3099 166.8 43.3099 168 43.3099C169.2 43.3099 170.1 42.3099 170.1 41.0099C170.1 39.7099 169.1 38.7099 168 38.7099Z" fill="white"/>
<path d="M173.4 43.8099C172.2 43.8099 171.2 42.5099 171.2 41.0099C171.2 39.5099 172.2 38.2099 173.4 38.2099C174.6 38.2099 175.6 39.5099 175.6 41.0099C175.6 42.5099 174.7 43.8099 173.4 43.8099ZM173.4 38.7099C172.4 38.7099 171.7 39.7099 171.7 41.0099C171.7 42.3099 172.5 43.3099 173.4 43.3099C174.3 43.3099 175.1 42.3099 175.1 41.0099C175.1 39.7099 174.4 38.7099 173.4 38.7099Z" fill="white"/>
<path d="M171.4 40.6099H170.3V41.1099H171.4V40.6099Z" fill="white"/>
<path d="M156.7 41.8099L156.3 41.5099C156.6 41.2099 157 40.9099 157.4 40.7099C157.8 40.5099 158.3 40.4099 158.7 40.4099L165.4 40.5099V41.0099L158.7 40.9099C158.3 40.9099 157.9 41.0099 157.6 41.1099C157.2 41.3099 156.9 41.5099 156.7 41.8099Z" fill="white"/>
<path d="M287.7 101.71V196.31H281.3V107.91H75.9V196.31H69.5V101.71H287.7V101.71Z" fill="#AABDEF"/>
<path d="M280.4 87.1099H213.2C212.7 87.1099 212.2 87.0099 211.8 86.8099C211.4 86.6099 211 86.3099 210.7 85.9099C210.4 85.5099 210.2 85.1099 210.1 84.6099C210 84.1099 210 83.6099 210.2 83.1099L221.3 42.1099C221.9 39.9099 223.9 38.2099 226.1 38.2099H293.3C295.4 38.2099 297 40.5099 296.4 42.5099L285.3 83.5099C285 84.6099 284.4 85.5099 283.5 86.1099C282.6 86.7099 281.5 87.1099 280.4 87.1099Z" fill="white"/>
<path d="M280.4 87.1099H215.2C214.7 87.1099 214.2 87.0099 213.8 86.8099C213.4 86.6099 213 86.3099 212.7 85.9099C212.4 85.5099 212.2 85.1099 212.1 84.6099C212 84.1099 212 83.6099 212.2 83.2099L223 43.3099C223.3 42.3099 223.9 41.4099 224.7 40.7099C225.5 40.1099 226.6 39.7099 227.6 39.7099H292.8C293.3 39.7099 293.8 39.8099 294.2 40.0099C294.6 40.2099 295 40.5099 295.3 40.9099C295.6 41.3099 295.8 41.7099 295.9 42.2099C296 42.7099 296 43.2099 295.8 43.6099L285 83.5099C284.7 84.5099 284.1 85.4099 283.3 86.1099C282.5 86.7099 281.5 87.1099 280.4 87.1099Z" fill="#D4D1F4"/>
<path d="M280.4 87.1099H215.2C214.7 87.1099 214.2 87.0099 213.8 86.8099C213.4 86.6099 213 86.3099 212.7 85.9099C212.4 85.5099 212.2 85.1099 212.1 84.6099C212 84.1099 212 83.6099 212.2 83.2099L223 43.3099C223.3 42.3099 223.9 41.4099 224.7 40.7099C225.5 40.1099 226.6 39.7099 227.6 39.7099H292.8C293.3 39.7099 293.8 39.8099 294.2 40.0099C294.6 40.2099 295 40.5099 295.3 40.9099C295.6 41.3099 295.8 41.7099 295.9 42.2099C296 42.7099 296 43.2099 295.8 43.6099L285 83.5099C284.7 84.5099 284.1 85.4099 283.3 86.1099C282.5 86.7099 281.5 87.1099 280.4 87.1099Z" fill="#EBF4F7"/>
<path d="M220.1 54.0099C219.9 54.0099 219.8 53.8099 219.9 53.7099L222.8 43.2099C223.1 42.1099 223.7 41.2099 224.6 40.5099C225.5 39.8099 226.6 39.5099 227.7 39.5099H266.8C266.9 39.5099 267 39.6099 267 39.7099C267 39.8099 266.9 39.9099 266.8 39.9099H227.7C226.7 39.9099 225.7 40.2099 224.9 40.8099C224.1 41.4099 223.5 42.3099 223.3 43.2099L220.4 53.7099C220.3 53.9099 220.2 54.0099 220.1 54.0099Z" fill="#639AD6"/>
<path d="M280.4 87.3099H215.2C214.7 87.3099 214.2 87.2099 213.7 86.9099C213.2 86.7099 212.8 86.3099 212.5 85.9099C212.2 85.5099 212 85.0099 211.9 84.5099C211.8 84.0099 211.8 83.5099 212 83.0099L217.7 61.9099C217.7 61.8099 217.9 61.7099 218 61.7099C218.1 61.7099 218.2 61.9099 218.2 62.0099L212.5 83.1099C212.4 83.5099 212.4 84.0099 212.5 84.4099C212.6 84.8099 212.8 85.2099 213 85.6099C213.3 85.9099 213.6 86.2099 214 86.4099C214.4 86.6099 214.8 86.7099 215.3 86.7099H280.5C281.5 86.7099 282.5 86.4099 283.3 85.8099C284.1 85.2099 284.7 84.3099 284.9 83.4099C284.9 83.3099 285.1 83.2099 285.2 83.2099C285.3 83.2099 285.4 83.4099 285.4 83.5099C285.1 84.6099 284.5 85.5099 283.6 86.2099C282.6 87.0099 281.5 87.3099 280.4 87.3099Z" fill="#639AD6"/>
<path d="M265.7 98.1099L259.2 75.6099H244L250 96.6099C250.5 98.3099 249.1 100.01 247.1 100.01H242.9C242.8 100.01 242.6 100.01 242.6 100.11C242.5 100.21 242.4 100.31 242.4 100.41V101.31C242.4 101.41 242.5 101.51 242.6 101.61C242.7 101.71 242.8 101.71 242.9 101.71H262.6C264.7 101.71 266.2 99.8099 265.7 98.1099Z" fill="#D6EAF2"/>
<path d="M248.4 100.91H242.5V100.41C242.5 100.31 242.6 100.21 242.7 100.11C242.8 100.01 242.9 100.01 243 100.01H247.2C249.2 100.01 250.6 98.3099 250.1 96.6099L244.1 75.6099H245.2L251.4 97.2099C251.5 97.6099 251.5 98.1099 251.4 98.6099C251.3 99.0099 251.1 99.5099 250.8 99.8099C250.5 100.21 250.2 100.51 249.7 100.71C249.3 100.81 248.9 100.91 248.4 100.91Z" fill="white"/>
<path d="M244 75.5099V87.1099H247.3L244 75.5099Z" fill="#A1CBE2"/>
<path d="M224.5 83.0099H221.2L220.9 83.9099H224.2L224.5 83.0099Z" fill="#A1CBE2"/>
<path d="M231.4 83.0099H228.3L228 83.9099H231.1L231.4 83.0099Z" fill="#A1CBE2"/>
<path d="M262.8 101.61V101.11C263.8 101.11 264.7 100.71 265.2 100.01C265.6 99.5099 265.7 98.8099 265.5 98.1099L259 75.6099L259.5 75.5099L266 98.0099C266.2 98.8099 266.1 99.6099 265.6 100.31C265.1 101.11 264 101.61 262.8 101.61Z" fill="#639AD6"/>
<path d="M235.2 118.21C234.4 118.21 233.6 117.91 233.1 117.31C232.5 116.71 232.2 116.01 232.2 115.21V84.5099C232.2 84.3099 232.1 84.1099 232 84.0099C231.9 83.9099 231.7 83.8099 231.5 83.8099H229.9V83.3099H231.5C231.8 83.3099 232.2 83.4099 232.4 83.7099C232.6 84.0099 232.8 84.3099 232.8 84.6099V115.31C232.8 116.01 233.1 116.61 233.5 117.11C234 117.61 234.6 117.81 235.3 117.81C236 117.81 236.6 117.51 237.1 117.11C237.6 116.61 237.8 116.01 237.8 115.31V101.61C237.8 101.51 237.8 101.41 237.7 101.31C237.7 101.21 237.6 101.11 237.5 101.11C237.4 101.01 237.3 101.01 237.3 100.91C237.2 100.91 237.1 100.81 237 100.81H235.5V100.31H237C237.2 100.31 237.3 100.31 237.5 100.41C237.7 100.51 237.8 100.61 237.9 100.71C238 100.81 238.1 101.01 238.2 101.11C238.3 101.31 238.3 101.41 238.3 101.61V115.31C238.3 116.11 238 116.91 237.4 117.41C236.7 117.91 236 118.21 235.2 118.21Z" fill="#639AD6"/>
<path d="M101.1 89.7099H92.9001C91.9001 89.7099 91.1001 90.5099 91.1001 91.5099V99.7099C91.1001 100.71 91.9001 101.51 92.9001 101.51H101.1C102.1 101.51 102.9 100.71 102.9 99.7099V91.5099C102.9 90.5099 102.1 89.7099 101.1 89.7099Z" fill="#2A59D8"/>
<path d="M96.4 89.7099C96.4 89.7099 94.9 78.8099 105.7 75.6099C105.7 75.6099 101.1 80.2099 99.7 89.7099H96.4Z" fill="#A1CBE2"/>
<path d="M98.3 89.7099C98.3 89.7099 97 80.1099 88.5 79.5099C88.5 79.5099 93.9 81.8099 93.9 89.7099H98.3Z" fill="#A1CBE2"/>
<path d="M95.4 89.7099C95.4 89.7099 94.3 81.9099 98 78.2099C98 78.2099 97.1 84.9099 98.3 89.7099H95.4Z" fill="#D6EAF2"/>
<path d="M97 89.7099C97 89.7099 100.6 87.7099 100.4 83.9099C100.4 83.9099 102.4 87.2099 100.8 89.7099H97Z" fill="#D6EAF2"/>
<path d="M93.2001 89.7099C93.2001 89.7099 92.2001 86.8099 89.6001 85.9099C89.6001 85.9099 94.2001 85.8099 95.4001 89.7099H93.2001Z" fill="#D6EAF2"/>
<path d="M171.3 41.3099L172.9 44.5099L171.5 45.4099" fill="#A57574"/>
<path d="M171.5 45.7099C171.4 45.7099 171.3 45.7099 171.3 45.6099C171.2 45.5099 171.3 45.3099 171.4 45.3099L172.6 44.5099L171.1 41.5099C171 41.4099 171.1 41.2099 171.2 41.2099C171.3 41.1099 171.5 41.2099 171.5 41.3099L173.1 44.5099C173.2 44.6099 173.1 44.8099 173 44.8099L171.6 45.7099C171.6 45.6099 171.6 45.7099 171.5 45.7099Z" fill="#4E2556"/>
<path d="M74.6 33.7099H141.1V39.8099L74.6 34.2099C74.4 34.1099 74.4 33.7099 74.6 33.7099Z" fill="#AABDEF"/>
<path d="M134 3.60986H131.2C130.6 3.60986 130.2 4.10986 130.2 4.60986V27.5099C130.2 28.1099 130.7 28.5099 131.2 28.5099H134C134.6 28.5099 135 28.0099 135 27.5099V4.60986C135 4.00986 134.5 3.60986 134 3.60986Z" fill="#D4DEF7"/>
<path d="M134 28.8099H131.2C130.5 28.8099 129.9 28.2099 129.9 27.5099V4.60988C129.9 3.90988 130.5 3.30988 131.2 3.30988H134C134.7 3.30988 135.3 3.90988 135.3 4.60988V27.5099C135.2 28.2099 134.7 28.8099 134 28.8099ZM131.2 3.80988C130.8 3.80988 130.4 4.10988 130.4 4.60988V27.5099C130.4 27.9099 130.7 28.3099 131.2 28.3099H134C134.4 28.3099 134.8 28.0099 134.8 27.5099V4.60988C134.8 4.20988 134.5 3.80988 134 3.80988H131.2Z" fill="#557AE0"/>
<path d="M128.8 5.7099H125.5C124.9 5.7099 124.5 6.1099 124.5 6.7099V28.0099C124.5 28.6099 124.9 29.0099 125.5 29.0099H128.8C129.4 29.0099 129.8 28.6099 129.8 28.0099V6.7099C129.8 6.1099 129.4 5.7099 128.8 5.7099Z" fill="#2A59D8"/>
<path d="M123.5 0.0098877H122.6C122.1 0.0098877 121.7 0.409888 121.7 0.909888V28.0099C121.7 28.5099 122.1 28.9099 122.6 28.9099H123.5C124 28.9099 124.4 28.5099 124.4 28.0099V0.909888C124.5 0.409888 124.1 0.0098877 123.5 0.0098877Z" fill="#D6EAF2"/>
<path d="M120.5 7.40988H118.1C117.5 7.40988 117.1 7.90988 117.1 8.40988V27.7099C117.1 28.3099 117.6 28.7099 118.1 28.7099H120.5C121.1 28.7099 121.5 28.2099 121.5 27.7099V8.40988C121.5 7.80988 121 7.40988 120.5 7.40988Z" fill="#D4DEF7"/>
<path d="M120.5 29.0099H118.1C117.4 29.0099 116.8 28.4099 116.8 27.7099V8.40989C116.8 7.70989 117.4 7.10989 118.1 7.10989H120.5C121.2 7.10989 121.8 7.70989 121.8 8.40989V27.7099C121.8 28.4099 121.2 29.0099 120.5 29.0099ZM118.1 7.60989C117.7 7.60989 117.3 7.90989 117.3 8.40989V27.7099C117.3 28.1099 117.6 28.5099 118.1 28.5099H120.5C120.9 28.5099 121.3 28.2099 121.3 27.7099V8.40989C121.3 8.00989 121 7.60989 120.5 7.60989H118.1V7.60989Z" fill="#557AE0"/>
<path d="M108.8 29.0099H104.9L114.6 3.00989C114.6 2.90989 114.7 2.80989 114.8 2.70989C114.9 2.60989 115 2.60989 115.1 2.60989H117.9C118 2.60989 118.1 2.60989 118.1 2.70989C118.2 2.70989 118.2 2.80989 118.3 2.90989C118.3 3.00989 118.4 3.10989 118.4 3.10989C118.4 3.20989 118.4 3.30989 118.4 3.40989L108.8 29.0099Z" fill="#2A59D8"/>
<path d="M140.9 29.0099H74.8V33.4099H141V29.0099H140.9Z" fill="white"/>
<path d="M141.2 33.6099H74.5V28.7099H141.2V33.6099ZM75 33.1099H140.7V29.2099H75V33.1099Z" fill="#2A59D8"/>
<path d="M81.5 19.4099H98.2V21.2099C98.2 23.3099 97.4 25.3099 95.9 26.7099C94.4 28.2099 92.4 29.0099 90.4 29.0099H89.4C87.3 29.0099 85.3 28.2099 83.9 26.7099C82.4 25.2099 81.6 23.2099 81.6 21.2099L81.5 19.4099Z" fill="#2A59D8"/>
<path d="M96.4999 19.4099H84.0999C84.0999 19.4099 80.4999 22.4099 78.3999 19.9099C76.8999 18.1099 84.0999 18.1099 84.0999 18.1099L84.2999 18.0099C84.2999 18.0099 81.1999 11.6099 84.0999 10.5099C86.0999 9.80988 86.5999 15.2099 86.6999 17.0099C87.7999 16.6099 89.7999 15.9099 89.9999 17.6099C89.9999 17.6099 90.1999 10.7099 93.0999 11.4099C95.4999 11.9099 91.8999 18.4099 91.8999 18.4099L92.1999 18.6099C92.1999 18.6099 98.7999 13.8099 100.4 14.9099C101.7 15.6099 96.4999 19.4099 96.4999 19.4099Z" fill="#A1CBE2"/>
<path d="M86 19.4099C86 19.4099 86.1 13.5099 88.4 13.6099C90.6 13.8099 87.5 19.4099 87.5 19.4099H86Z" fill="#D6EAF2"/>
<path d="M86 19.4099C86 19.4099 83.8 13.8099 80.7 15.2099C77.7 16.6099 84.1 19.4099 84.1 19.4099H86Z" fill="#D6EAF2"/>
<path d="M90.6001 19.4099C90.6001 19.4099 92.6001 14.3099 95.8001 14.8099C99.0001 15.3099 91.8001 19.4099 91.8001 19.4099H90.6001Z" fill="#D6EAF2"/>
<path d="M93.8999 19.4099C93.8999 19.4099 100.2 16.2099 101.3 18.1099C102.4 20.0099 93.8999 19.4099 93.8999 19.4099Z" fill="#D6EAF2"/>
</g>
<defs>
<clipPath id="clip0">
<rect width="327" height="201" fill="white" transform="translate(19.5 0.0098877)"/>
</clipPath>
</defs>
</svg>
