<svg width="495" height="201" viewBox="0 0 495 201" fill="none" xmlns="http://www.w3.org/2000/svg">
<path d="M326.7 20.5H318.2V29.6H326.7V20.5Z" fill="#557AE0"/>
<path d="M322.9 19.4H322V21.7H322.9V19.4Z" fill="#2A59D8"/>
<path d="M312.8 20.5V39C312.8 39.8 312.5 40.6 311.9 41.2C311.4 41.8 310.6 42.1 309.8 42.1H294.8C295.5 42.1 296.3 41.7 296.8 41.1C297.3 40.5 297.6 39.8 297.6 39V20.5H312.8Z" fill="#D6EAF2"/>
<path d="M305.3 19.4H304.4V21.7H305.3V19.4Z" fill="#2A59D8"/>
<path d="M309.6 24.7H300.6V25.2H309.6V24.7Z" fill="#639AD6"/>
<path d="M309.6 27.1H300.6V27.6H309.6V27.1Z" fill="#639AD6"/>
<path d="M309.6 29.4H300.6V29.9H309.6V29.4Z" fill="#639AD6"/>
<path d="M309.6 31.8H300.6V32.3H309.6V31.8Z" fill="#639AD6"/>
<path d="M309.6 34.2H300.6V34.7H309.6V34.2Z" fill="#639AD6"/>
<path d="M256.1 139.7L244.8 198.2H245.9L261 139.7" fill="#D6EAF2"/>
<path d="M296.2 138.3L307.7 198.2H306.7L291.6 139.7" fill="#D6EAF2"/>
<path d="M280.5 139.7L291.8 198.2H290.7L275.6 139.7" fill="#D6EAF2"/>
<path d="M308.5 111L301.7 132.6C301 134.8 299.7 136.7 297.9 138C296.1 139.3 294 140.1 291.8 140.1H253.2C251 140.1 248.9 139.4 247.1 138C245.3 136.7 244 134.7 243.3 132.6L237.7 114.8C237.5 114.1 237.4 113.3 237.5 112.6C237.6 111.8 237.9 111.1 238.3 110.5C238.7 109.9 239.3 109.4 239.9 109C240.5 108.7 241.2 108.5 241.9 108.5H246.2C247.2 108.5 248.1 108.1 248.9 107.4C249.6 106.7 250.1 105.8 250.3 104.7L252.8 85.7C253.1 83.5 254.1 81.5 255.7 80C257.3 78.5 259.3 77.7 261.4 77.7H296.2C297.4 77.7 298.7 78 299.8 78.5C300.9 79 301.9 79.8 302.7 80.8C303.5 81.8 304.1 83 304.5 84.2C304.9 85.4 304.9 86.8 304.8 88.1L302.6 104.5C302.5 105 302.6 105.5 302.7 105.9C302.8 106.4 303 106.8 303.3 107.1C303.6 107.5 304 107.7 304.4 107.9C304.8 108.1 305.2 108.2 305.7 108.2H306.7C307 108.2 307.3 108.3 307.5 108.4C307.7 108.5 308 108.7 308.1 109C308.3 109.2 308.4 109.5 308.4 109.8C308.7 110.4 308.6 110.7 308.5 111Z" fill="#D6EAF2"/>
<path d="M280.5 136.2H244.9V135.7H280.5C282.4 135.7 284.3 135.1 285.8 133.9C287.4 132.7 288.5 131 289.1 129.1L294 114.6C294.6 112.7 295.8 111 297.4 109.8C299 108.6 300.8 108 302.8 108H305.7V108.5H302.8C302.8 108.5 302.8 108.5 302.7 108.5C300.9 108.5 299.2 109.1 297.7 110.2C296.2 111.3 295.1 112.9 294.5 114.7L289.6 129.2C289 131.2 287.7 133 286.1 134.2C284.5 135.5 282.5 136.2 280.5 136.2Z" fill="white"/>
<path d="M290 77.1C289.8 77.1 289.6 77.1 289.4 77.1V76.6C294.9 76.8 298.9 74.4 300.1 70.2C301.1 66.8 299.9 63.3 297.1 61.6C293 59.1 293 58 293.1 53.3C293.1 52.8 293.1 52.2 293.1 51.6C293.2 44 288.5 42.4 285.4 41.3C283.2 40.5 282.6 38.3 282 36C281.1 32.9 280.3 29.7 275.3 29.5V29C280.6 29.1 281.6 32.7 282.4 35.8C283 38 283.6 40.1 285.5 40.8C289.6 42.2 293.6 44.2 293.5 51.6C293.5 52.2 293.5 52.8 293.5 53.3C293.4 58 293.4 58.8 297.3 61.2C300.3 63 301.6 66.7 300.5 70.4C299.3 74.6 295.4 77.1 290 77.1Z" fill="#41465A"/>
<path d="M261.9 36.3999C262.1 35.7999 263.9 27.4999 275.6 28.9999C284.3 30.0999 280.8 40.5999 284.9 42.0999C288 43.1999 292.8 44.8999 292.3 52.4999C291.9 58.6999 291.3 59.4999 295.6 62.4999C301.5 66.4999 299.2 78.5999 286.9 77.3999C274.6 76.1999 256.3 76.6999 255.4 74.0999C254.8 72.1999 249.6 61.1999 257.2 56.4999C259.5 55.0999 263.7 53.2999 263.2 50.4999C262.4 44.7999 259.6 42.8999 261.9 36.3999Z" fill="#252954"/>
<path d="M276.6 48C276.6 48 276 56.9 279.3 59.7L270.2 59.5C270.2 59.5 270.4 49.6 270.2 48H276.6Z" fill="#FFB3A4"/>
<path d="M272.2 55.2C275.7 55.2 278.5 53 278.5 50.3C278.5 47.6 275.7 45.4 272.2 45.4C268.7 45.4 265.9 47.6 265.9 50.3C265.9 53 268.7 55.2 272.2 55.2Z" fill="#242854"/>
<path d="M278.9 44.7C278.9 44.7 277.1 53.2 270.5 52.9C266.1 52.7 263.9 44.7 263.5 40.8C263.2 37.6 267.2 35.1 270.1 35.8C273.7 36.6 273.8 42.9 277.6 42.5L278.9 44.7Z" fill="#FFB3A4"/>
<path d="M268.2 41.4001C266.7 41.8001 265.2 42.4 263.8 43.1C263.6 42.3 263.4 41.5001 263.3 40.7001C263.1 38.3001 265.1 36.4 267.4 35.8C267.6 35.9 267.9 36 268.1 36.1C269.3 36.4 267.5 38.8001 268.2 41.4001Z" fill="#EA786C"/>
<path d="M269.6 35.6C270.8 36.1 268.1 38.6 268.7 41.4C266.1 42 263.6 42.7 261.1 43.6C261.1 43.6 258.8 39.8 260.6 37.3C262.4 34.8 265.7 34.1 269.6 35.6Z" fill="#252954"/>
<path d="M277.6 45.1C278.8 45.1 279.8 44.0001 279.8 42.7001C279.8 41.4001 278.8 40.3 277.6 40.3C276.4 40.3 275.4 41.4001 275.4 42.7001C275.4 44.0001 276.3 45.1 277.6 45.1Z" fill="#FFB3A4"/>
<path d="M259 64C262 62.4 265.3 64.6 263.6 69.6C262.4 73.3 252 94.9 250.8 96.8C243.6 101.1 215.4 96.2 215.4 96.2C215.4 96.2 211.5 98 210.3 98C209.8 98 206.8 97.4 206.8 97.4C206.8 97.4 206.7 97 207.2 96.6C207.7 96.1 210.9 96.7 209.8 95.5C209.3 95 206.6 96 205.4 97.1C204.2 98.2 203.7 97.3 203.7 97.3C203.7 97.3 204.9 95.2 205.3 94.8C205.7 94.4 208.4 92.8 210.2 92.7C211.5 92.6 214.6 93 216.2 93.5C222.5 92.2 235.4 90.4 243.7 90.9C243.7 90.9 252.3 67.6 259 64Z" fill="#FFB3A4"/>
<path d="M278.8 56.5C278.8 56.5 280.7 60.2 291.3 64.1C291.3 64.1 291.3 68.9 289.5 75.3C286.8 85.4 283.3 99.5 283.3 105C283.3 105 271.9 108.5 260.1 105C260.1 105 260.2 88.2 259.2 87.4C258.2 86.6 255.6 79.6 256.5 76.1C257.4 72.6 260.8 63.5 260.8 63.5C260.8 63.5 267.8 61.3 268.4 56.9C271.9 57.2 275.4 57.1 278.8 56.5Z" fill="#FFF4DE"/>
<path d="M219.6 169.5C217.8 176.7 211.9 183.6 212.2 185.2C212.6 186.8 214.8 188.7 214.2 191.1C213.8 192.8 210.4 192 207.9 193.4C205.3 194.8 206.2 196.2 202 196.4C197.8 196.6 194.3 196.4 194.3 196.4C194.3 196.4 194.4 194.7 196.3 194.3C198.2 193.9 204.4 190 206.3 182.2C208.1 174.9 208.6 169.6 208.6 169.6H219.6V169.5Z" fill="#FFB3A4"/>
<path d="M219.6 169.5C219.1 171.6 218.1 173.7 217.2 175.7C213 175.4 210.1 174.3 208.1 173.3C208.5 170.9 208.6 169.5 208.6 169.5H219.6Z" fill="#3A193F"/>
<path d="M260.3 103L257.3 106.2C256.2 106.5 226.5 116.5 222.5 122.4C218.5 128.2 205.4 170.6 205.4 170.6C205.4 170.6 210.9 174.7 224.4 173.2C224.4 173.2 232.1 156.2 233.2 132.8C233.2 132.8 267.1 135.3 272.1 126.6C277.1 117.9 272.8 104.8 272.8 104.8C272.8 104.8 264.1 104.2 260.3 103Z" fill="#A1CBE2"/>
<path d="M213.9 196.4H192.3C191.8 196.4 191.3 196.9 191.3 197.4V197.5C191.3 198.1 191.7 198.5 192.3 198.5H213.9C214.4 198.5 214.9 198 214.9 197.5V197.4C214.8 196.8 214.4 196.4 213.9 196.4Z" fill="#2A59D8"/>
<path d="M205.3 196.4C205.3 196.4 202.6 193 202.1 189.7C201.9 188.5 198.5 190.2 196.5 191.1C191.2 193.4 192.3 196.5 192.3 196.5H205.3V196.4Z" fill="#2A59D8"/>
<path d="M244.5 169.8C245.8 172.8 249.6 182.9 249.7 186.3C249.8 191.3 241.5 195.6 241 196.1C240.1 196.9 241.2 197.6 241.2 197.6C241.2 197.6 256.7 195.7 258.5 194.9C260.2 194 256.2 189.3 255.8 185.9C255.4 182.4 256 172.8 255.3 168.5L244.5 169.8Z" fill="#FFB3A4"/>
<path d="M255.6 174.7C253.2 175.5 250.1 176.4 247.2 176.8C246.2 173.9 245.1 171.1 244.5 169.8L255.2 168.4C255.5 170 255.6 172.3 255.6 174.7Z" fill="#3A193F"/>
<path d="M283.4 103C283.4 103 293 121.1 285.9 130.1C278.3 139.8 246.4 136.2 246.4 136.2C246.4 136.2 256.7 148.1 258.2 173.7C258.2 173.7 247.7 175.8 241.3 174C241.3 174 232.1 141.1 231.3 131.9C230.4 120.3 265.5 112.5 265.5 112.5L266.9 104.2C266.9 104.1 274.2 105.2 283.4 103Z" fill="#A1CBE2"/>
<path d="M259.6 194.9L238.1 197.7C237.6 197.8 237.2 198.3 237.2 198.9V199C237.3 199.6 237.8 200 238.3 199.9L259.8 197.1C260.3 197 260.7 196.5 260.6 195.9V195.8C260.6 195.2 260.1 194.8 259.6 194.9Z" fill="#557AE0"/>
<path d="M251 196C251 196 249 190.9 244.1 191.5C239.2 192.1 238.1 197.7 238.1 197.7L251 196Z" fill="#557AE0"/>
<path d="M299.4 99C293.9 102.7 267.3 91.2 267.3 91.2C267.3 91.2 265.7 93.7 263.9 93.7C262.1 93.7 260.5 93 259.6 93.7C258.7 94.5 257.7 95.7 257 95.8C256.2 95.9 255.3 95.9 254.5 95.6C254.5 95.6 255.1 94.5 255.7 93.4C255.1 93.8 254.4 94.7 253.9 95.1C253.7 95.2 253.5 95.3 253.3 95.3C253.1 95.3 252.9 95.2 252.7 95.1C252.7 95.1 253.9 93.3 254.4 92.8C254.9 92.3 256.2 91.7 257.1 91.4C258 91 263.5 88.7 266.2 88.4C269.1 88 292.3 90.5 292.3 90.5C292.3 90.5 287 76.4 286.7 72.8C286.2 67.4 288.3 64.2 290.9 64.2C295.5 64 303.9 96 299.4 99Z" fill="#FFB3A4"/>
<path d="M255.3 95.8C255.2 95.8 255.2 95.7 255.3 95.8C255.2 95.7 255.2 95.7 255.2 95.7C255.4 95.4 257 92.7 257.6 92.4C258.6 91.9 259.9 91.2 259.9 91.2L260 91.4L257.7 92.6C257.3 92.7 255.9 94.9 255.3 95.8C255.4 95.8 255.4 95.7 255.3 95.8Z" fill="#DB7800"/>
<path d="M256.5 95.8C256.4 95.8 256.4 95.8 256.5 95.8C256.4 95.8 256.4 95.7 256.5 95.8C256.4 95.7 256.4 95.7 256.4 95.7C256.4 95.7 256.4 95.7 256.4 95.6C256.5 95.5 258 93.1 258.6 92.8C259.6 92.3 260.9 91.6 260.9 91.6L261 91.8C261 91.8 259.7 92.5 258.7 93C258.2 93.3 257 95.1 256.5 95.8Z" fill="#DB7800"/>
<path d="M349 100H146V104.6H349V100Z" fill="#7F9BE8"/>
<path d="M343.4 182.5H318.1V185.7H343.4V182.5Z" fill="#D4DEF7"/>
<path d="M339.9 104.8H321.6V109.1H339.9V104.8Z" fill="#7F9BE8"/>
<path d="M346.9 198.5C346.5 198.5 346 198.3 345.7 198C345.4 197.7 345.1 197.3 345.1 196.8L331.1 115.9C331.1 115.8 331 115.7 331 115.6C330.9 115.5 330.8 115.5 330.7 115.5C330.6 115.5 330.5 115.5 330.4 115.6C330.3 115.7 330.3 115.8 330.3 115.9L316.3 196.8C316.2 197.3 316 197.7 315.7 198C315.4 198.3 314.9 198.5 314.5 198.5C314.2 198.5 314 198.4 313.7 198.3C313.5 198.2 313.2 198 313.1 197.8C313 197.6 312.8 197.3 312.7 197C312.6 196.7 312.6 196.4 312.7 196.1L327.8 108.8H333.8L348.9 196.1C348.9 196.4 348.9 196.7 348.9 197C348.8 197.3 348.7 197.5 348.5 197.8C348.3 198 348.1 198.2 347.9 198.3C347.5 198.5 347.2 198.5 346.9 198.5Z" fill="#7F9BE8"/>
<path d="M176.9 182.5H151.7V185.7H177V182.5H176.9Z" fill="#D4DEF7"/>
<path d="M173.4 104.8H155.1V109.1H173.4V104.8V104.8Z" fill="#7F9BE8"/>
<path d="M180.5 198.5C180.1 198.5 179.6 198.3 179.3 198C179 197.7 178.7 197.3 178.7 196.8L164.7 115.9C164.7 115.8 164.6 115.7 164.6 115.6C164.5 115.5 164.4 115.5 164.3 115.5C164.2 115.5 164.1 115.5 164 115.6C163.9 115.7 163.9 115.8 163.9 115.9L149.9 196.8C149.8 197.3 149.6 197.7 149.3 198C149 198.3 148.5 198.5 148.1 198.5C147.8 198.5 147.6 198.4 147.3 198.3C147.1 198.2 146.8 198 146.7 197.8C146.5 197.6 146.4 197.3 146.3 197C146.2 196.7 146.2 196.4 146.3 196.1L161.4 108.8H167.4L182.5 196.1C182.5 196.4 182.5 196.7 182.5 197C182.4 197.3 182.3 197.5 182.1 197.8C181.9 198.1 181.7 198.2 181.5 198.3C181 198.5 180.8 198.5 180.5 198.5Z" fill="#7F9BE8"/>
<path d="M202.5 61.2C203.6 61.2 204.3 60.1 204.3 58.9V52.4C204.3 52.1 204.2 51.8 204.1 51.5C204 51.2 203.8 51 203.6 50.8C203.4 50.6 203.2 50.4 202.9 50.3C202.6 50.2 202.4 50.1 202.1 50.1H188.2C187.9 50.1 187.6 50.2 187.4 50.3C187.1 50.4 186.9 50.6 186.7 50.8C186.5 51 186.3 51.3 186.2 51.5C186.1 51.8 186 52.1 186 52.4V58.9C186 59.5 186.2 60.1 186.6 60.5C187 60.9 187.5 61.2 188.1 61.2H196.3C198.3 61.2 199.4 64.6 199.4 64.6C199.4 64.6 200.1 61.2 202.5 61.2Z" fill="#AABDEF"/>
<path d="M191.2 56.5C191.6 56.5 192 56.0999 192 55.5999C192 55.0999 191.6 54.7 191.2 54.7C190.8 54.7 190.4 55.0999 190.4 55.5999C190.4 56.0999 190.7 56.5 191.2 56.5Z" fill="#7F9BE8"/>
<path d="M195.1 56.5C195.5 56.5 195.9 56.0999 195.9 55.5999C195.9 55.0999 195.5 54.7 195.1 54.7C194.7 54.7 194.3 55.0999 194.3 55.5999C194.3 56.1999 194.7 56.5 195.1 56.5Z" fill="#7F9BE8"/>
<path d="M199.1 56.5C199.5 56.5 199.9 56.0999 199.9 55.5999C199.9 55.0999 199.5 54.7 199.1 54.7C198.7 54.7 198.3 55.0999 198.3 55.5999C198.3 56.1999 198.7 56.5 199.1 56.5Z" fill="#7F9BE8"/>
<path d="M229.8 69.3H197.2C196.8 69.3 196.5 69.4 196.2 69.6C195.9 69.8 195.6 70 195.4 70.3C195.2 70.6 195.1 71 195 71.4C195 71.8 195 72.2 195.1 72.5L203.3 96.3H241.5L233 71.6C232.8 70.9 232.3 70.3 231.7 69.9C231.1 69.5 230.5 69.3 229.8 69.3Z" fill="#7F9BE8"/>
<path d="M229.1 70.5H197.3C197 70.5 196.6 70.6 196.3 70.8C196 71 195.7 71.2 195.5 71.5C195.3 71.8 195.2 72.2 195.1 72.5C195.1 72.9 195.1 73.2 195.2 73.6L203.2 96.8H240.4L232.1 72.8C231.9 72.1 231.4 71.5 230.9 71.1C230.5 70.7 229.8 70.5 229.1 70.5Z" fill="#2A59D8"/>
<path d="M203.2 96.3H265.8C266.2 96.3 266.6 96.4 267 96.6C267.4 96.8 267.7 97 268 97.3C268.3 97.6 268.5 98 268.7 98.4C268.9 98.8 268.9 99.3 268.9 99.7V99.8H206.3C205.5 99.8 204.6 99.4 204 98.8C203.5 98.1 203.2 97.3 203.2 96.3Z" fill="#2A59D8"/>
<path d="M219.7 86.4001C220.9 85.0001 220.5 82.7 218.9 81.1C217.3 79.6 215.1 79.4001 213.9 80.8001C212.7 82.2001 213.1 84.5 214.7 86.1C216.3 87.7 218.6 87.8001 219.7 86.4001Z" fill="#D4DEF7"/>
<path d="M249.6 97.5H246.9V98.5H249.6V97.5Z" fill="#3A193F"/>
<path d="M254.6 97.5H252V98.5H254.7V97.5H254.6Z" fill="#557AE0"/>
<path d="M318.4 90.2H317.4V88H308V98.1C308 98.3 308 98.6 308.1 98.8C308.2 99 308.3 99.2 308.5 99.4C308.7 99.6 308.9 99.7 309.1 99.8C309.3 99.9 309.5 99.9 309.8 99.9H315.6C316.1 99.9 316.5 99.7 316.9 99.3C317.2 98.9 317.4 98.5 317.4 98V94.5H318.4C319 94.5 319.5 94.3 319.9 93.8C320.3 93.4 320.5 92.8 320.5 92.2C320.5 91.6 320.3 91 319.9 90.6C319.5 90.2 319 90.2 318.4 90.2ZM319.1 93.2C319 93.3 318.9 93.4 318.7 93.5C318.6 93.6 318.4 93.6 318.3 93.6H317.3V91.3H318.3C318.5 91.3 318.7 91.4 318.9 91.5C319.1 91.6 319.2 91.8 319.3 92C319.4 92.2 319.4 92.4 319.4 92.7C319.4 92.9 319.3 93.1 319.1 93.2Z" fill="white"/>
<path d="M309.7 100.2C309.4 100.2 309.2 100.1 308.9 100C308.7 99.9 308.4 99.7 308.2 99.5C308 99.3 307.9 99.1 307.8 98.8C307.7 98.5 307.6 98.3 307.6 98V87.7H317.5V89.9H318.3C318.9 89.9 319.5 90.2 320 90.6C320.4 91.1 320.7 91.7 320.7 92.3C320.7 93 320.5 93.6 320 94C319.6 94.5 319 94.7 318.3 94.7H317.5V97.9C317.5 98.5 317.3 99 316.9 99.4C316.5 99.8 316 100 315.5 100H309.7C309.7 100.2 309.7 100.2 309.7 100.2ZM308.2 88.2V98.1C308.2 98.3 308.2 98.5 308.3 98.7C308.4 98.9 308.5 99.1 308.6 99.2C308.7 99.4 308.9 99.5 309.1 99.6C309.3 99.7 309.5 99.7 309.7 99.7H315.5C315.9 99.7 316.3 99.5 316.6 99.2C316.9 98.9 317.1 98.5 317.1 98V94.3H318.4C318.9 94.3 319.3 94.1 319.7 93.7C320.1 93.3 320.2 92.8 320.2 92.3C320.2 91.8 320 91.3 319.7 90.9C319.4 90.5 318.9 90.3 318.4 90.3H317.1V88.1H308.2V88.2ZM317.4 93.8H317.2V91H318.4C318.7 91 318.9 91.1 319.2 91.2C319.4 91.4 319.6 91.6 319.7 91.8C319.8 92 319.8 92.3 319.8 92.6C319.8 92.8 319.7 93.1 319.5 93.2L319.4 93.3C319.3 93.4 319.1 93.5 319 93.6C318.9 93.7 318.7 93.7 318.5 93.7H317.4V93.8ZM317.6 93.3H318.3C318.4 93.3 318.5 93.3 318.6 93.2C318.7 93.2 318.7 93.1 318.8 93.1L318.9 93C319 92.9 319.1 92.7 319.1 92.5C319.1 92.3 319.1 92.1 319.1 92C319 91.8 318.9 91.7 318.8 91.6C318.7 91.5 318.5 91.4 318.3 91.4H317.6V93.3V93.3Z" fill="#2A59D8"/>
<path d="M313.4 87C312.9 86.5 310.3 84.7 310.9 82C311.5 79.4 315.2 80 315 77.1C314.9 74.6 312.9 75.6 312.4 76.5C312.4 76.5 312.7 73.2001 315.5 74.3001C320.2 76.1001 314.7 81.3001 313.2 82.8001C311.7 84.2001 313.4 87 313.4 87Z" fill="#D4DEF7"/>
<path d="M316.7 80C316.7 80 316.1 82.2 313.6 83.3C313.6 83.3 317.4 83.3 316.7 80Z" fill="#FFF4DE"/>
<path d="M344 100L343.5 99.9001C343.5 99.7001 346.8 79.7001 337 65.9001C332.1 59.1001 324.9 54.9 315.5 53.3L315.6 52.8C325.2 54.4 332.5 58.7 337.5 65.6C347.4 79.6 344.1 99.8 344 100Z" fill="#2A59D8"/>
<path d="M343.9 99.8H325.1C326.4 96.6 330.1 94.2 334.5 94.2C338.9 94.2 342.6 96.5 343.9 99.8Z" fill="#2A59D8"/>
<path d="M343.9 99.8H341.5C340.3 96.7 336.7 94.5 332.6 94.5C332.3 94.5 332 94.5 331.7 94.5C332.6 94.3 333.5 94.2 334.5 94.2C338.9 94.2 342.6 96.5 343.9 99.8Z" fill="#2247AD"/>
<path d="M315.8 53.5C315.6 54.3 315 55 314.2 55.3C313.2 55.7 311.9 55.9 310.5 55.5C309.1 55.2 308 54.5 307.3 53.6C306.7 52.9 306.4 52 306.6 51.2C307 49.5 309.3 48.5 311.9 49.1C314.5 49.7 316.2 51.7 315.8 53.5Z" fill="#AABDEF"/>
<path d="M315.8 53.5C315.6 54.3 315.1 54.9 314.3 55.3C314.7 55 314.9 54.6 315 54.1C315.3 52.5 313.7 50.7 311.3 50.1C309.1 49.6 307 50.3 306.4 51.8C306.4 51.7 306.4 51.5 306.4 51.4C306.8 49.7 309.1 48.7 311.7 49.3C314.4 49.8 316.2 51.7 315.8 53.5Z" fill="#2A59D8"/>
<path d="M313.7 54.9C312.7 55.3 311.7 55.3 310.7 55.1C309.7 54.9 308.8 54.3 308 53.6C307.7 52.8 309.6 52.6 311.1 52.9C312.6 53.2 314.3 54.5 313.7 54.9Z" fill="#2A59D8"/>
<path d="M176 36.1H242.9V42.6L176 36.6C175.9 36.6 175.9 36.1 176 36.1Z" fill="#557AE0"/>
<path d="M235.7 3.80005H232.9C232.3 3.80005 231.9 4.30005 231.9 4.90005V29.4C231.9 30 232.4 30.5 232.9 30.5H235.7C236.3 30.5 236.7 30 236.7 29.4V4.90005C236.7 4.30005 236.3 3.80005 235.7 3.80005Z" fill="#F9FAFB"/>
<path d="M235.7 30.8H232.9C232.2 30.8 231.6 30.2 231.6 29.4V4.9C231.6 4.2 232.2 3.5 232.9 3.5H235.7C236.4 3.5 237 4.1 237 4.9V29.4C237 30.2 236.4 30.8 235.7 30.8ZM232.9 4.1C232.5 4.1 232.1 4.5 232.1 5V29.5C232.1 30 232.5 30.4 232.9 30.4H235.7C236.1 30.4 236.5 30 236.5 29.5V4.9C236.5 4.4 236.1 4 235.7 4H232.9V4.1Z" fill="#2A59D8"/>
<path d="M230.6 6.09998H227.2C226.6 6.09998 226.2 6.59998 226.2 7.19998V30C226.2 30.6 226.7 31.1 227.2 31.1H230.6C231.2 31.1 231.6 30.6 231.6 30V7.19998C231.6 6.59998 231.1 6.09998 230.6 6.09998Z" fill="#2A59D8"/>
<path d="M225.2 0H224.3C223.8 0 223.4 0.4 223.4 1V30.1C223.4 30.7 223.8 31.1 224.3 31.1H225.2C225.7 31.1 226.1 30.7 226.1 30.1V1C226.2 0.5 225.8 0 225.2 0Z" fill="#D6EAF2"/>
<path d="M222.2 7.8999H219.8C219.2 7.8999 218.8 8.3999 218.8 8.9999V29.6999C218.8 30.2999 219.3 30.7999 219.8 30.7999H222.2C222.8 30.7999 223.2 30.2999 223.2 29.6999V8.9999C223.2 8.3999 222.7 7.8999 222.2 7.8999Z" fill="#F9FAFB"/>
<path d="M222.2 31H219.8C219.1 31 218.5 30.4 218.5 29.7V8.99995C218.5 8.29995 219.1 7.69995 219.8 7.69995H222.2C222.9 7.69995 223.5 8.29995 223.5 8.99995V29.7C223.4 30.4 222.9 31 222.2 31ZM219.8 8.09995C219.4 8.09995 219 8.49995 219 8.89995V29.6C219 30.1 219.4 30.4 219.8 30.4H222.2C222.6 30.4 223 30 223 29.6V8.99995C223 8.49995 222.6 8.19995 222.2 8.19995H219.8V8.09995Z" fill="#2A59D8"/>
<path d="M210.4 31.1H206.5L216.3 3.20005C216.3 3.10005 216.4 3.00005 216.5 2.90005C216.6 2.80005 216.7 2.80005 216.8 2.80005H219.6C219.7 2.80005 219.8 2.80005 219.8 2.90005C219.9 2.90005 219.9 3.00005 220 3.10005C220 3.20005 220.1 3.30005 220.1 3.40005C220.1 3.50005 220.1 3.60005 220.1 3.70005L210.4 31.1Z" fill="#2A59D8"/>
<path d="M242.7 31.1001H176.2V35.8001H242.7V31.1001Z" fill="#F9FAFB"/>
<path d="M243 36H176V30.8H243V36ZM176.4 35.5H242.4V31.3H176.4V35.5Z" fill="#7F9BE8"/>
<path d="M182.9 20.7H199.7V22.7C199.7 24.9 198.9 27.1 197.4 28.6C195.9 30.2 193.9 31.1 191.8 31.1H190.8C188.7 31.1 186.7 30.2 185.2 28.6C183.7 27 182.9 24.9 182.9 22.7V20.7Z" fill="#2A59D8"/>
<path d="M198 20.7H185.6C185.6 20.7 182 23.9 179.9 21.3C178.4 19.4 185.6 19.3 185.6 19.3L185.8 19.2C185.8 19.2 182.7 12.3 185.6 11.1C187.6 10.3 188.1 16.2 188.2 18.1C189.3 17.6 191.3 16.9 191.5 18.7C191.5 18.7 191.7 11.3 194.6 12C197 12.6 193.4 19.5 193.4 19.5L193.6 19.7C193.6 19.7 200.2 14.5 201.9 15.7C203.3 16.7 198 20.7 198 20.7Z" fill="#A1CBE2"/>
<path d="M187.5 20.7C187.5 20.7 187.6 14.3 189.9 14.5C192.2 14.7 189 20.7 189 20.7H187.5Z" fill="#D6EAF2"/>
<path d="M187.5 20.7C187.5 20.7 185.2 14.7 182.2 16.2C179.2 17.7 185.6 20.7 185.6 20.7H187.5Z" fill="#D6EAF2"/>
<path d="M192.1 20.7C192.1 20.7 194.1 15.3 197.3 15.8C200.5 16.3 193.3 20.7 193.3 20.7H192.1Z" fill="#D6EAF2"/>
<path d="M195.4 20.7C195.4 20.7 201.7 17.3 202.8 19.4C204 21.4 195.4 20.7 195.4 20.7Z" fill="#D6EAF2"/>
<path d="M269.9 49.6C269.8 49.6 269.8 49.6 269.7 49.6C269.6 49.6 269.5 49.5 269.5 49.3C269.5 49.2 269.6 49.1 269.8 49.1C269.9 49.1 271.3 49.2 272.5 47.3C272.6 47.2 272.7 47.1 272.8 47.2C272.9 47.3 273 47.4 272.9 47.5C271.8 49.5 270.4 49.6 269.9 49.6Z" fill="#3A1A3F"/>
<path d="M276.4 43.5999C276.3 43.5999 276.2 43.5 276.2 43.4C276.2 43.4 276.2 42.3 276.8 41.7C277.1 41.4 277.5 41.2 278 41.2C278.1 41.2 278.2 41.3 278.2 41.5C278.2 41.6 278.1 41.7 278 41.7C277.7 41.7 277.4 41.8 277.2 42C276.7 42.5 276.7 43.4 276.7 43.4C276.7 43.5 276.5 43.5999 276.4 43.5999Z" fill="#E2564B"/>
<path d="M277.8 43.1H277.7L276.6 42.6C276.5 42.5 276.4 42.4 276.5 42.3C276.6 42.2 276.7 42.1 276.8 42.2L277.9 42.7C278 42.8 278.1 42.9 278 43C278 43 277.9 43.1 277.8 43.1Z" fill="#E2564B"/>
<path d="M279.3 45.4C279.7 45.4 280.1 45 280.1 44.5C280.1 44 279.7 43.6 279.3 43.6C278.9 43.6 278.5 44 278.5 44.5C278.5 45 278.8 45.4 279.3 45.4Z" fill="#FFCDC5"/>
<path d="M269.6 47.6C269.5 47.6 269.5 47.6 269.6 47.6L268.7 47.2C268.6 47.2 268.5 47.1 268.5 47V43.7C268.5 43.6 268.6 43.5 268.7 43.5C268.8 43.5 268.9 43.6 268.9 43.7V46.9L269.6 47.2C269.7 47.3 269.8 47.4 269.7 47.5C269.7 47.5 269.7 47.6 269.6 47.6Z" fill="#E2564B"/>
<path d="M272.6 41H272.5C271.1 40.3 270.3 40.9 270.3 41C270.2 41.1 270 41.1 269.9 41C269.8 40.9 269.8 40.7 269.9 40.7C269.9 40.7 271 39.9 272.7 40.7C272.8 40.8 272.9 40.9 272.8 41C272.8 40.9 272.7 41 272.6 41Z" fill="#3A1A3F"/>
<path d="M271.7 43.9C272 43.8 272.2 43.5 272.1 43C272 42.6 271.7 42.3 271.4 42.4C271.1 42.5 270.9 42.8 271 43.3C271.1 43.8 271.4 43.9 271.7 43.9Z" fill="#242854"/>
<path d="M266.6 45.3C266.9 45.2 267.1 44.8 267 44.4C266.9 44 266.6 43.7 266.3 43.8C266 43.9 265.8 44.3 265.9 44.7C266 45.1 266.3 45.3 266.6 45.3Z" fill="#242854"/>
<path d="M241.1 174C241 173.7 231.8 141 231.1 131.8C230.1 120.1 264 112.5 265.4 112.2L265.5 112.7C265.2 112.8 230.6 120.6 231.5 131.8C232.2 140.9 241.4 173.5 241.5 173.9L241.1 174Z" fill="#639AD6"/>
</svg>
