<svg width="495" height="202" viewBox="0 0 495 202" fill="none" xmlns="http://www.w3.org/2000/svg">
<g clip-path="url(#clip0)">
<path d="M326.7 20.5099H318.2V29.6099H326.7V20.5099Z" fill="#557AE0"/>
<path d="M322.9 19.4099H322V21.7099H322.9V19.4099Z" fill="#2A59D8"/>
<path d="M312.8 20.5099V39.0099C312.8 39.8099 312.5 40.6099 311.9 41.2099C311.4 41.8099 310.6 42.1099 309.8 42.1099H294.8C295.5 42.1099 296.3 41.7099 296.8 41.1099C297.3 40.5099 297.6 39.8099 297.6 39.0099V20.5099H312.8Z" fill="#D6EAF2"/>
<path d="M305.3 19.4099H304.4V21.7099H305.3V19.4099Z" fill="#2A59D8"/>
<path d="M309.6 24.7098H300.6V25.2098H309.6V24.7098Z" fill="#639AD6"/>
<path d="M309.6 27.1099H300.6V27.6099H309.6V27.1099Z" fill="#639AD6"/>
<path d="M309.6 29.4099H300.6V29.9099H309.6V29.4099Z" fill="#639AD6"/>
<path d="M309.6 31.8099H300.6V32.3099H309.6V31.8099Z" fill="#639AD6"/>
<path d="M309.6 34.2098H300.6V34.7098H309.6V34.2098Z" fill="#639AD6"/>
<path d="M256.1 139.71L244.8 198.21H245.9L261 139.71" fill="#D6EAF2"/>
<path d="M296.2 138.31L307.7 198.21H306.7L291.6 139.71" fill="#D6EAF2"/>
<path d="M280.5 139.71L291.8 198.21H290.7L275.6 139.71" fill="#D6EAF2"/>
<path d="M308.5 111.01L301.7 132.61C301 134.81 299.7 136.71 297.9 138.01C296.1 139.31 294 140.11 291.8 140.11H253.2C251 140.11 248.9 139.41 247.1 138.01C245.3 136.71 244 134.71 243.3 132.61L237.7 114.81C237.5 114.11 237.4 113.31 237.5 112.61C237.6 111.81 237.9 111.11 238.3 110.51C238.7 109.91 239.3 109.41 239.9 109.01C240.5 108.71 241.2 108.51 241.9 108.51H246.2C247.2 108.51 248.1 108.11 248.9 107.41C249.6 106.71 250.1 105.81 250.3 104.71L252.8 85.7098C253.1 83.5098 254.1 81.5098 255.7 80.0098C257.3 78.5098 259.3 77.7098 261.4 77.7098H296.2C297.4 77.7098 298.7 78.0098 299.8 78.5098C300.9 79.0098 301.9 79.8098 302.7 80.8098C303.5 81.8098 304.1 83.0098 304.5 84.2098C304.9 85.4098 304.9 86.8098 304.8 88.1098L302.6 104.51C302.5 105.01 302.6 105.51 302.7 105.91C302.8 106.41 303 106.81 303.3 107.11C303.6 107.51 304 107.71 304.4 107.91C304.8 108.11 305.2 108.21 305.7 108.21H306.7C307 108.21 307.3 108.31 307.5 108.41C307.7 108.51 308 108.71 308.1 109.01C308.3 109.21 308.4 109.51 308.4 109.81C308.7 110.41 308.6 110.71 308.5 111.01Z" fill="#D6EAF2"/>
<path d="M280.5 136.21H244.9V135.71H280.5C282.4 135.71 284.3 135.11 285.8 133.91C287.4 132.71 288.5 131.01 289.1 129.11L294 114.61C294.6 112.71 295.8 111.01 297.4 109.81C299 108.61 300.8 108.01 302.8 108.01H305.7V108.51H302.8C302.8 108.51 302.8 108.51 302.7 108.51C300.9 108.51 299.2 109.11 297.7 110.21C296.2 111.31 295.1 112.91 294.5 114.71L289.6 129.21C289 131.21 287.7 133.01 286.1 134.21C284.5 135.51 282.5 136.21 280.5 136.21Z" fill="white"/>
<path d="M290 77.1099C289.8 77.1099 289.6 77.1099 289.4 77.1099V76.6099C294.9 76.8099 298.9 74.4099 300.1 70.2099C301.1 66.8099 299.9 63.3099 297.1 61.6099C293 59.1099 293 58.0099 293.1 53.3099C293.1 52.8099 293.1 52.2099 293.1 51.6099C293.2 44.0099 288.5 42.4099 285.4 41.3099C283.2 40.5099 282.6 38.3099 282 36.0099C281.1 32.9099 280.3 29.7099 275.3 29.5099V29.0099C280.6 29.1099 281.6 32.7099 282.4 35.8099C283 38.0099 283.6 40.1099 285.5 40.8099C289.6 42.2099 293.6 44.2099 293.5 51.6099C293.5 52.2099 293.5 52.8099 293.5 53.3099C293.4 58.0099 293.4 58.8099 297.3 61.2099C300.3 63.0099 301.6 66.7099 300.5 70.4099C299.3 74.6099 295.4 77.1099 290 77.1099Z" fill="#41465A"/>
<path d="M261.9 36.4098C262.1 35.8098 263.9 27.5098 275.6 29.0098C284.3 30.1098 280.8 40.6098 284.9 42.1098C288 43.2098 292.8 44.9098 292.3 52.5098C291.9 58.7098 291.3 59.5098 295.6 62.5098C301.5 66.5098 299.2 78.6098 286.9 77.4098C274.6 76.2098 256.3 76.7098 255.4 74.1098C254.8 72.2098 249.6 61.2098 257.2 56.5098C259.5 55.1098 263.7 53.3098 263.2 50.5098C262.4 44.8098 259.6 42.9098 261.9 36.4098Z" fill="#252954"/>
<path d="M276.6 48.0099C276.6 48.0099 276 56.9099 279.3 59.7099L270.2 59.5099C270.2 59.5099 270.4 49.6099 270.2 48.0099H276.6Z" fill="#FFB3A4"/>
<path d="M272.2 55.2099C275.7 55.2099 278.5 53.0099 278.5 50.3099C278.5 47.6099 275.7 45.4099 272.2 45.4099C268.7 45.4099 265.9 47.6099 265.9 50.3099C265.9 53.0099 268.7 55.2099 272.2 55.2099Z" fill="#242854"/>
<path d="M278.9 44.7099C278.9 44.7099 277.1 53.2099 270.5 52.9099C266.1 52.7099 263.9 44.7099 263.5 40.8099C263.2 37.6099 267.2 35.1099 270.1 35.8099C273.7 36.6099 273.8 42.9099 277.6 42.5099L278.9 44.7099Z" fill="#FFB3A4"/>
<path d="M268.2 41.4099C266.7 41.8099 265.2 42.4099 263.8 43.1099C263.6 42.3099 263.4 41.5099 263.3 40.7099C263.1 38.3099 265.1 36.4099 267.4 35.8099C267.6 35.9099 267.9 36.0099 268.1 36.1099C269.3 36.4099 267.5 38.8099 268.2 41.4099Z" fill="#EA786C"/>
<path d="M269.6 35.6099C270.8 36.1099 268.1 38.6099 268.7 41.4099C266.1 42.0099 263.6 42.7099 261.1 43.6099C261.1 43.6099 258.8 39.8099 260.6 37.3099C262.4 34.8099 265.7 34.1099 269.6 35.6099Z" fill="#252954"/>
<path d="M277.6 45.1099C278.8 45.1099 279.8 44.0099 279.8 42.7099C279.8 41.4099 278.8 40.3099 277.6 40.3099C276.4 40.3099 275.4 41.4099 275.4 42.7099C275.4 44.0099 276.3 45.1099 277.6 45.1099Z" fill="#FFB3A4"/>
<path d="M259 64.0099C262 62.4099 265.3 64.6099 263.6 69.6099C262.4 73.3099 252 94.9099 250.8 96.8099C243.6 101.11 215.4 96.2099 215.4 96.2099C215.4 96.2099 211.5 98.0099 210.3 98.0099C209.8 98.0099 206.8 97.4099 206.8 97.4099C206.8 97.4099 206.7 97.0099 207.2 96.6099C207.7 96.1099 210.9 96.7099 209.8 95.5099C209.3 95.0099 206.6 96.0099 205.4 97.1099C204.2 98.2099 203.7 97.3099 203.7 97.3099C203.7 97.3099 204.9 95.2099 205.3 94.8099C205.7 94.4099 208.4 92.8099 210.2 92.7099C211.5 92.6099 214.6 93.0099 216.2 93.5099C222.5 92.2099 235.4 90.4099 243.7 90.9099C243.7 90.9099 252.3 67.6099 259 64.0099Z" fill="#FFB3A4"/>
<path d="M278.8 56.5099C278.8 56.5099 280.7 60.2099 291.3 64.1099C291.3 64.1099 291.3 68.9099 289.5 75.3099C286.8 85.4099 283.3 99.5099 283.3 105.01C283.3 105.01 271.9 108.51 260.1 105.01C260.1 105.01 260.2 88.2099 259.2 87.4099C258.2 86.6099 255.6 79.6099 256.5 76.1099C257.4 72.6099 260.8 63.5099 260.8 63.5099C260.8 63.5099 267.8 61.3099 268.4 56.9099C271.9 57.2099 275.4 57.1099 278.8 56.5099Z" fill="#FFF4DE"/>
<path d="M219.6 169.51C217.8 176.71 211.9 183.61 212.2 185.21C212.6 186.81 214.8 188.71 214.2 191.11C213.8 192.81 210.4 192.01 207.9 193.41C205.3 194.81 206.2 196.21 202 196.41C197.8 196.61 194.3 196.41 194.3 196.41C194.3 196.41 194.4 194.71 196.3 194.31C198.2 193.91 204.4 190.01 206.3 182.21C208.1 174.91 208.6 169.61 208.6 169.61H219.6V169.51Z" fill="#FFB3A4"/>
<path d="M219.6 169.51C219.1 171.61 218.1 173.71 217.2 175.71C213 175.41 210.1 174.31 208.1 173.31C208.5 170.91 208.6 169.51 208.6 169.51H219.6Z" fill="#3A193F"/>
<path d="M260.3 103.01L257.3 106.21C256.2 106.51 226.5 116.51 222.5 122.41C218.5 128.21 205.4 170.61 205.4 170.61C205.4 170.61 210.9 174.71 224.4 173.21C224.4 173.21 232.1 156.21 233.2 132.81C233.2 132.81 267.1 135.31 272.1 126.61C277.1 117.91 272.8 104.81 272.8 104.81C272.8 104.81 264.1 104.21 260.3 103.01Z" fill="#A1CBE2"/>
<path d="M213.9 196.41H192.3C191.8 196.41 191.3 196.91 191.3 197.41V197.51C191.3 198.11 191.7 198.51 192.3 198.51H213.9C214.4 198.51 214.9 198.01 214.9 197.51V197.41C214.8 196.81 214.4 196.41 213.9 196.41Z" fill="#2A59D8"/>
<path d="M205.3 196.41C205.3 196.41 202.6 193.01 202.1 189.71C201.9 188.51 198.5 190.21 196.5 191.11C191.2 193.41 192.3 196.51 192.3 196.51H205.3V196.41Z" fill="#2A59D8"/>
<path d="M244.5 169.81C245.8 172.81 249.6 182.91 249.7 186.31C249.8 191.31 241.5 195.61 241 196.11C240.1 196.91 241.2 197.61 241.2 197.61C241.2 197.61 256.7 195.71 258.5 194.91C260.2 194.01 256.2 189.31 255.8 185.91C255.4 182.41 256 172.81 255.3 168.51L244.5 169.81Z" fill="#FFB3A4"/>
<path d="M255.6 174.71C253.2 175.51 250.1 176.41 247.2 176.81C246.2 173.91 245.1 171.11 244.5 169.81L255.2 168.41C255.5 170.01 255.6 172.31 255.6 174.71Z" fill="#3A193F"/>
<path d="M283.4 103.01C283.4 103.01 293 121.11 285.9 130.11C278.3 139.81 246.4 136.21 246.4 136.21C246.4 136.21 256.7 148.11 258.2 173.71C258.2 173.71 247.7 175.81 241.3 174.01C241.3 174.01 232.1 141.11 231.3 131.91C230.4 120.31 265.5 112.51 265.5 112.51L266.9 104.21C266.9 104.11 274.2 105.21 283.4 103.01Z" fill="#A1CBE2"/>
<path d="M259.6 194.91L238.1 197.71C237.6 197.81 237.2 198.31 237.2 198.91V199.01C237.3 199.61 237.8 200.01 238.3 199.91L259.8 197.11C260.3 197.01 260.7 196.51 260.6 195.91V195.81C260.6 195.21 260.1 194.81 259.6 194.91Z" fill="#557AE0"/>
<path d="M251 196.01C251 196.01 249 190.91 244.1 191.51C239.2 192.11 238.1 197.71 238.1 197.71L251 196.01Z" fill="#557AE0"/>
<path d="M299.4 99.0099C293.9 102.71 267.3 91.2099 267.3 91.2099C267.3 91.2099 265.7 93.7099 263.9 93.7099C262.1 93.7099 260.5 93.0099 259.6 93.7099C258.7 94.5099 257.7 95.7099 257 95.8099C256.2 95.9099 255.3 95.9099 254.5 95.6099C254.5 95.6099 255.1 94.5099 255.7 93.4099C255.1 93.8099 254.4 94.7099 253.9 95.1099C253.7 95.2099 253.5 95.3099 253.3 95.3099C253.1 95.3099 252.9 95.2099 252.7 95.1099C252.7 95.1099 253.9 93.3099 254.4 92.8099C254.9 92.3099 256.2 91.7099 257.1 91.4099C258 91.0099 263.5 88.7099 266.2 88.4099C269.1 88.0099 292.3 90.5099 292.3 90.5099C292.3 90.5099 287 76.4099 286.7 72.8099C286.2 67.4099 288.3 64.2099 290.9 64.2099C295.5 64.0099 303.9 96.0099 299.4 99.0099Z" fill="#FFB3A4"/>
<path d="M255.3 95.8098C255.2 95.8098 255.2 95.7098 255.3 95.8098C255.2 95.7098 255.2 95.7098 255.2 95.7098C255.4 95.4098 257 92.7098 257.6 92.4098C258.6 91.9098 259.9 91.2098 259.9 91.2098L260 91.4098L257.7 92.6098C257.3 92.7098 255.9 94.9098 255.3 95.8098C255.4 95.8098 255.4 95.7098 255.3 95.8098Z" fill="#DB7800"/>
<path d="M256.5 95.8099C256.4 95.8099 256.4 95.8099 256.5 95.8099C256.4 95.8099 256.4 95.7099 256.5 95.8099C256.4 95.7099 256.4 95.7099 256.4 95.7099C256.4 95.7099 256.4 95.7099 256.4 95.6099C256.5 95.5099 258 93.1099 258.6 92.8099C259.6 92.3099 260.9 91.6099 260.9 91.6099L261 91.8099C261 91.8099 259.7 92.5099 258.7 93.0099C258.2 93.3099 257 95.1099 256.5 95.8099Z" fill="#DB7800"/>
<path d="M349 100.01H146V104.61H349V100.01Z" fill="#7F9BE8"/>
<path d="M343.4 182.51H318.1V185.71H343.4V182.51Z" fill="#D4DEF7"/>
<path d="M339.9 104.81H321.6V109.11H339.9V104.81Z" fill="#7F9BE8"/>
<path d="M346.9 198.51C346.5 198.51 346 198.31 345.7 198.01C345.4 197.71 345.1 197.31 345.1 196.81L331.1 115.91C331.1 115.81 331 115.71 331 115.61C330.9 115.51 330.8 115.51 330.7 115.51C330.6 115.51 330.5 115.51 330.4 115.61C330.3 115.71 330.3 115.81 330.3 115.91L316.3 196.81C316.2 197.31 316 197.71 315.7 198.01C315.4 198.31 314.9 198.51 314.5 198.51C314.2 198.51 314 198.41 313.7 198.31C313.5 198.21 313.2 198.01 313.1 197.81C313 197.61 312.8 197.31 312.7 197.01C312.6 196.71 312.6 196.41 312.7 196.11L327.8 108.81H333.8L348.9 196.11C348.9 196.41 348.9 196.71 348.9 197.01C348.8 197.31 348.7 197.51 348.5 197.81C348.3 198.01 348.1 198.21 347.9 198.31C347.5 198.51 347.2 198.51 346.9 198.51Z" fill="#7F9BE8"/>
<path d="M176.9 182.51H151.7V185.71H177V182.51H176.9Z" fill="#D4DEF7"/>
<path d="M173.4 104.81H155.1V109.11H173.4V104.81V104.81Z" fill="#7F9BE8"/>
<path d="M180.5 198.51C180.1 198.51 179.6 198.31 179.3 198.01C179 197.71 178.7 197.31 178.7 196.81L164.7 115.91C164.7 115.81 164.6 115.71 164.6 115.61C164.5 115.51 164.4 115.51 164.3 115.51C164.2 115.51 164.1 115.51 164 115.61C163.9 115.71 163.9 115.81 163.9 115.91L149.9 196.81C149.8 197.31 149.6 197.71 149.3 198.01C149 198.31 148.5 198.51 148.1 198.51C147.8 198.51 147.6 198.41 147.3 198.31C147.1 198.21 146.8 198.01 146.7 197.81C146.5 197.61 146.4 197.31 146.3 197.01C146.2 196.71 146.2 196.41 146.3 196.11L161.4 108.81H167.4L182.5 196.11C182.5 196.41 182.5 196.71 182.5 197.01C182.4 197.31 182.3 197.51 182.1 197.81C181.9 198.11 181.7 198.21 181.5 198.31C181 198.51 180.8 198.51 180.5 198.51Z" fill="#7F9BE8"/>
<path d="M202.5 61.2099C203.6 61.2099 204.3 60.1099 204.3 58.9099V52.4099C204.3 52.1099 204.2 51.8099 204.1 51.5099C204 51.2099 203.8 51.0099 203.6 50.8099C203.4 50.6099 203.2 50.4099 202.9 50.3099C202.6 50.2099 202.4 50.1099 202.1 50.1099H188.2C187.9 50.1099 187.6 50.2099 187.4 50.3099C187.1 50.4099 186.9 50.6099 186.7 50.8099C186.5 51.0099 186.3 51.3099 186.2 51.5099C186.1 51.8099 186 52.1099 186 52.4099V58.9099C186 59.5099 186.2 60.1099 186.6 60.5099C187 60.9099 187.5 61.2099 188.1 61.2099H196.3C198.3 61.2099 199.4 64.6099 199.4 64.6099C199.4 64.6099 200.1 61.2099 202.5 61.2099Z" fill="#AABDEF"/>
<path d="M191.2 56.5098C191.6 56.5098 192 56.1098 192 55.6098C192 55.1098 191.6 54.7098 191.2 54.7098C190.8 54.7098 190.4 55.1098 190.4 55.6098C190.4 56.1098 190.7 56.5098 191.2 56.5098Z" fill="#7F9BE8"/>
<path d="M195.1 56.5098C195.5 56.5098 195.9 56.1098 195.9 55.6098C195.9 55.1098 195.5 54.7098 195.1 54.7098C194.7 54.7098 194.3 55.1098 194.3 55.6098C194.3 56.2098 194.7 56.5098 195.1 56.5098Z" fill="#7F9BE8"/>
<path d="M199.1 56.5098C199.5 56.5098 199.9 56.1098 199.9 55.6098C199.9 55.1098 199.5 54.7098 199.1 54.7098C198.7 54.7098 198.3 55.1098 198.3 55.6098C198.3 56.2098 198.7 56.5098 199.1 56.5098Z" fill="#7F9BE8"/>
<path d="M229.8 69.3099H197.2C196.8 69.3099 196.5 69.4099 196.2 69.6099C195.9 69.8099 195.6 70.0099 195.4 70.3099C195.2 70.6099 195.1 71.0099 195 71.4099C195 71.8099 195 72.2099 195.1 72.5099L203.3 96.3099H241.5L233 71.6099C232.8 70.9099 232.3 70.3099 231.7 69.9099C231.1 69.5099 230.5 69.3099 229.8 69.3099Z" fill="#7F9BE8"/>
<path d="M229.1 70.5099H197.3C197 70.5099 196.6 70.6099 196.3 70.8099C196 71.0099 195.7 71.2099 195.5 71.5099C195.3 71.8099 195.2 72.2099 195.1 72.5099C195.1 72.9099 195.1 73.2099 195.2 73.6099L203.2 96.8099H240.4L232.1 72.8099C231.9 72.1099 231.4 71.5099 230.9 71.1099C230.5 70.7099 229.8 70.5099 229.1 70.5099Z" fill="#2A59D8"/>
<path d="M203.2 96.3099H265.8C266.2 96.3099 266.6 96.4099 267 96.6099C267.4 96.8099 267.7 97.0099 268 97.3099C268.3 97.6099 268.5 98.0099 268.7 98.4099C268.9 98.8099 268.9 99.3099 268.9 99.7099V99.8099H206.3C205.5 99.8099 204.6 99.4099 204 98.8099C203.5 98.1099 203.2 97.3099 203.2 96.3099Z" fill="#2A59D8"/>
<path d="M219.7 86.4099C220.9 85.0099 220.5 82.7099 218.9 81.1099C217.3 79.6099 215.1 79.4099 213.9 80.8099C212.7 82.2099 213.1 84.5099 214.7 86.1099C216.3 87.7099 218.6 87.8099 219.7 86.4099Z" fill="#D4DEF7"/>
<path d="M249.6 97.5099H246.9V98.5099H249.6V97.5099Z" fill="#3A193F"/>
<path d="M254.6 97.5099H252V98.5099H254.7V97.5099H254.6Z" fill="#557AE0"/>
<path d="M318.4 90.2099H317.4V88.0099H308V98.1099C308 98.3099 308 98.6099 308.1 98.8099C308.2 99.0099 308.3 99.2099 308.5 99.4099C308.7 99.6099 308.9 99.7099 309.1 99.8099C309.3 99.9099 309.5 99.9099 309.8 99.9099H315.6C316.1 99.9099 316.5 99.7099 316.9 99.3099C317.2 98.9099 317.4 98.5099 317.4 98.0099V94.5099H318.4C319 94.5099 319.5 94.3099 319.9 93.8099C320.3 93.4099 320.5 92.8099 320.5 92.2099C320.5 91.6099 320.3 91.0099 319.9 90.6099C319.5 90.2099 319 90.2099 318.4 90.2099ZM319.1 93.2099C319 93.3099 318.9 93.4099 318.7 93.5099C318.6 93.6099 318.4 93.6099 318.3 93.6099H317.3V91.3099H318.3C318.5 91.3099 318.7 91.4099 318.9 91.5099C319.1 91.6099 319.2 91.8099 319.3 92.0099C319.4 92.2099 319.4 92.4099 319.4 92.7099C319.4 92.9099 319.3 93.1099 319.1 93.2099Z" fill="white"/>
<path d="M309.7 100.21C309.4 100.21 309.2 100.11 308.9 100.01C308.7 99.9098 308.4 99.7098 308.2 99.5098C308 99.3098 307.9 99.1098 307.8 98.8098C307.7 98.5098 307.6 98.3098 307.6 98.0098V87.7098H317.5V89.9098H318.3C318.9 89.9098 319.5 90.2098 320 90.6098C320.4 91.1098 320.7 91.7098 320.7 92.3098C320.7 93.0098 320.5 93.6098 320 94.0098C319.6 94.5098 319 94.7098 318.3 94.7098H317.5V97.9098C317.5 98.5098 317.3 99.0098 316.9 99.4098C316.5 99.8098 316 100.01 315.5 100.01H309.7C309.7 100.21 309.7 100.21 309.7 100.21ZM308.2 88.2098V98.1098C308.2 98.3098 308.2 98.5098 308.3 98.7098C308.4 98.9098 308.5 99.1098 308.6 99.2098C308.7 99.4098 308.9 99.5098 309.1 99.6098C309.3 99.7098 309.5 99.7098 309.7 99.7098H315.5C315.9 99.7098 316.3 99.5098 316.6 99.2098C316.9 98.9098 317.1 98.5098 317.1 98.0098V94.3098H318.4C318.9 94.3098 319.3 94.1098 319.7 93.7098C320.1 93.3098 320.2 92.8098 320.2 92.3098C320.2 91.8098 320 91.3098 319.7 90.9098C319.4 90.5098 318.9 90.3098 318.4 90.3098H317.1V88.1098H308.2V88.2098ZM317.4 93.8098H317.2V91.0098H318.4C318.7 91.0098 318.9 91.1098 319.2 91.2098C319.4 91.4098 319.6 91.6098 319.7 91.8098C319.8 92.0098 319.8 92.3098 319.8 92.6098C319.8 92.8098 319.7 93.1098 319.5 93.2098L319.4 93.3098C319.3 93.4098 319.1 93.5098 319 93.6098C318.9 93.7098 318.7 93.7098 318.5 93.7098H317.4V93.8098ZM317.6 93.3098H318.3C318.4 93.3098 318.5 93.3098 318.6 93.2098C318.7 93.2098 318.7 93.1098 318.8 93.1098L318.9 93.0098C319 92.9098 319.1 92.7098 319.1 92.5098C319.1 92.3098 319.1 92.1098 319.1 92.0098C319 91.8098 318.9 91.7098 318.8 91.6098C318.7 91.5098 318.5 91.4098 318.3 91.4098H317.6V93.3098V93.3098Z" fill="#2A59D8"/>
<path d="M313.4 87.0099C312.9 86.5099 310.3 84.7099 310.9 82.0099C311.5 79.4099 315.2 80.0099 315 77.1099C314.9 74.6099 312.9 75.6099 312.4 76.5099C312.4 76.5099 312.7 73.2099 315.5 74.3099C320.2 76.1099 314.7 81.3099 313.2 82.8099C311.7 84.2099 313.4 87.0099 313.4 87.0099Z" fill="#D4DEF7"/>
<path d="M316.7 80.0099C316.7 80.0099 316.1 82.2099 313.6 83.3099C313.6 83.3099 317.4 83.3099 316.7 80.0099Z" fill="#FFF4DE"/>
<path d="M344 100.01L343.5 99.9099C343.5 99.7099 346.8 79.7099 337 65.9099C332.1 59.1099 324.9 54.9099 315.5 53.3099L315.6 52.8099C325.2 54.4099 332.5 58.7099 337.5 65.6099C347.4 79.6099 344.1 99.8099 344 100.01Z" fill="#2A59D8"/>
<path d="M343.9 99.8098H325.1C326.4 96.6098 330.1 94.2098 334.5 94.2098C338.9 94.2098 342.6 96.5098 343.9 99.8098Z" fill="#2A59D8"/>
<path d="M343.9 99.8098H341.5C340.3 96.7098 336.7 94.5098 332.6 94.5098C332.3 94.5098 332 94.5098 331.7 94.5098C332.6 94.3098 333.5 94.2098 334.5 94.2098C338.9 94.2098 342.6 96.5098 343.9 99.8098Z" fill="#2247AD"/>
<path d="M315.8 53.5099C315.6 54.3099 315 55.0099 314.2 55.3099C313.2 55.7099 311.9 55.9099 310.5 55.5099C309.1 55.2099 308 54.5099 307.3 53.6099C306.7 52.9099 306.4 52.0099 306.6 51.2099C307 49.5099 309.3 48.5099 311.9 49.1099C314.5 49.7099 316.2 51.7099 315.8 53.5099Z" fill="#AABDEF"/>
<path d="M315.8 53.5099C315.6 54.3099 315.1 54.9099 314.3 55.3099C314.7 55.0099 314.9 54.6099 315 54.1099C315.3 52.5099 313.7 50.7099 311.3 50.1099C309.1 49.6099 307 50.3099 306.4 51.8099C306.4 51.7099 306.4 51.5099 306.4 51.4099C306.8 49.7099 309.1 48.7099 311.7 49.3099C314.4 49.8099 316.2 51.7099 315.8 53.5099Z" fill="#2A59D8"/>
<path d="M313.7 54.9099C312.7 55.3099 311.7 55.3099 310.7 55.1099C309.7 54.9099 308.8 54.3099 308 53.6099C307.7 52.8099 309.6 52.6099 311.1 52.9099C312.6 53.2099 314.3 54.5099 313.7 54.9099Z" fill="#2A59D8"/>
<path d="M176 36.1099H242.9V42.6099L176 36.6099C175.9 36.6099 175.9 36.1099 176 36.1099Z" fill="#557AE0"/>
<path d="M235.7 3.80994H232.9C232.3 3.80994 231.9 4.30994 231.9 4.90994V29.4099C231.9 30.0099 232.4 30.5099 232.9 30.5099H235.7C236.3 30.5099 236.7 30.0099 236.7 29.4099V4.90994C236.7 4.30994 236.3 3.80994 235.7 3.80994Z" fill="#F9FAFB"/>
<path d="M235.7 30.8099H232.9C232.2 30.8099 231.6 30.2099 231.6 29.4099V4.90989C231.6 4.20989 232.2 3.50989 232.9 3.50989H235.7C236.4 3.50989 237 4.10989 237 4.90989V29.4099C237 30.2099 236.4 30.8099 235.7 30.8099ZM232.9 4.10989C232.5 4.10989 232.1 4.50989 232.1 5.00989V29.5099C232.1 30.0099 232.5 30.4099 232.9 30.4099H235.7C236.1 30.4099 236.5 30.0099 236.5 29.5099V4.90989C236.5 4.40989 236.1 4.00989 235.7 4.00989H232.9V4.10989Z" fill="#2A59D8"/>
<path d="M230.6 6.10986H227.2C226.6 6.10986 226.2 6.60986 226.2 7.20986V30.0099C226.2 30.6099 226.7 31.1099 227.2 31.1099H230.6C231.2 31.1099 231.6 30.6099 231.6 30.0099V7.20986C231.6 6.60986 231.1 6.10986 230.6 6.10986Z" fill="#2A59D8"/>
<path d="M225.2 0.0098877H224.3C223.8 0.0098877 223.4 0.409888 223.4 1.00989V30.1099C223.4 30.7099 223.8 31.1099 224.3 31.1099H225.2C225.7 31.1099 226.1 30.7099 226.1 30.1099V1.00989C226.2 0.509888 225.8 0.0098877 225.2 0.0098877Z" fill="#D6EAF2"/>
<path d="M222.2 7.90979H219.8C219.2 7.90979 218.8 8.40979 218.8 9.00979V29.7098C218.8 30.3098 219.3 30.8098 219.8 30.8098H222.2C222.8 30.8098 223.2 30.3098 223.2 29.7098V9.00979C223.2 8.40979 222.7 7.90979 222.2 7.90979Z" fill="#F9FAFB"/>
<path d="M222.2 31.0098H219.8C219.1 31.0098 218.5 30.4098 218.5 29.7098V9.00984C218.5 8.30984 219.1 7.70984 219.8 7.70984H222.2C222.9 7.70984 223.5 8.30984 223.5 9.00984V29.7098C223.4 30.4098 222.9 31.0098 222.2 31.0098ZM219.8 8.10984C219.4 8.10984 219 8.50984 219 8.90984V29.6098C219 30.1098 219.4 30.4098 219.8 30.4098H222.2C222.6 30.4098 223 30.0098 223 29.6098V9.00984C223 8.50984 222.6 8.20984 222.2 8.20984H219.8V8.10984Z" fill="#2A59D8"/>
<path d="M210.4 31.1099H206.5L216.3 3.20994C216.3 3.10994 216.4 3.00994 216.5 2.90994C216.6 2.80994 216.7 2.80994 216.8 2.80994H219.6C219.7 2.80994 219.8 2.80994 219.8 2.90994C219.9 2.90994 219.9 3.00994 220 3.10994C220 3.20994 220.1 3.30994 220.1 3.40994C220.1 3.50994 220.1 3.60994 220.1 3.70994L210.4 31.1099Z" fill="#2A59D8"/>
<path d="M242.7 31.11H176.2V35.81H242.7V31.11Z" fill="#F9FAFB"/>
<path d="M243 36.0099H176V30.8099H243V36.0099ZM176.4 35.5099H242.4V31.3099H176.4V35.5099Z" fill="#7F9BE8"/>
<path d="M182.9 20.7098H199.7V22.7098C199.7 24.9098 198.9 27.1098 197.4 28.6098C195.9 30.2098 193.9 31.1098 191.8 31.1098H190.8C188.7 31.1098 186.7 30.2098 185.2 28.6098C183.7 27.0098 182.9 24.9098 182.9 22.7098V20.7098Z" fill="#2A59D8"/>
<path d="M198 20.7099H185.6C185.6 20.7099 182 23.9099 179.9 21.3099C178.4 19.4099 185.6 19.3099 185.6 19.3099L185.8 19.2099C185.8 19.2099 182.7 12.3099 185.6 11.1099C187.6 10.3099 188.1 16.2099 188.2 18.1099C189.3 17.6099 191.3 16.9099 191.5 18.7099C191.5 18.7099 191.7 11.3099 194.6 12.0099C197 12.6099 193.4 19.5099 193.4 19.5099L193.6 19.7099C193.6 19.7099 200.2 14.5099 201.9 15.7099C203.3 16.7099 198 20.7099 198 20.7099Z" fill="#A1CBE2"/>
<path d="M187.5 20.7098C187.5 20.7098 187.6 14.3098 189.9 14.5098C192.2 14.7098 189 20.7098 189 20.7098H187.5Z" fill="#D6EAF2"/>
<path d="M187.5 20.7099C187.5 20.7099 185.2 14.7099 182.2 16.2099C179.2 17.7099 185.6 20.7099 185.6 20.7099H187.5Z" fill="#D6EAF2"/>
<path d="M192.1 20.7099C192.1 20.7099 194.1 15.3099 197.3 15.8099C200.5 16.3099 193.3 20.7099 193.3 20.7099H192.1Z" fill="#D6EAF2"/>
<path d="M195.4 20.7099C195.4 20.7099 201.7 17.3099 202.8 19.4099C204 21.4099 195.4 20.7099 195.4 20.7099Z" fill="#D6EAF2"/>
<path d="M269.9 49.6099C269.8 49.6099 269.8 49.6099 269.7 49.6099C269.6 49.6099 269.5 49.5099 269.5 49.3099C269.5 49.2099 269.6 49.1099 269.8 49.1099C269.9 49.1099 271.3 49.2099 272.5 47.3099C272.6 47.2099 272.7 47.1099 272.8 47.2099C272.9 47.3099 273 47.4099 272.9 47.5099C271.8 49.5099 270.4 49.6099 269.9 49.6099Z" fill="#3A1A3F"/>
<path d="M276.4 43.6098C276.3 43.6098 276.2 43.5098 276.2 43.4098C276.2 43.4098 276.2 42.3098 276.8 41.7098C277.1 41.4098 277.5 41.2098 278 41.2098C278.1 41.2098 278.2 41.3098 278.2 41.5098C278.2 41.6098 278.1 41.7098 278 41.7098C277.7 41.7098 277.4 41.8098 277.2 42.0098C276.7 42.5098 276.7 43.4098 276.7 43.4098C276.7 43.5098 276.5 43.6098 276.4 43.6098Z" fill="#E2564B"/>
<path d="M277.8 43.1099H277.7L276.6 42.6099C276.5 42.5099 276.4 42.4099 276.5 42.3099C276.6 42.2099 276.7 42.1099 276.8 42.2099L277.9 42.7099C278 42.8099 278.1 42.9099 278 43.0099C278 43.0099 277.9 43.1099 277.8 43.1099Z" fill="#E2564B"/>
<path d="M279.3 45.4099C279.7 45.4099 280.1 45.0099 280.1 44.5099C280.1 44.0099 279.7 43.6099 279.3 43.6099C278.9 43.6099 278.5 44.0099 278.5 44.5099C278.5 45.0099 278.8 45.4099 279.3 45.4099Z" fill="#FFCDC5"/>
<path d="M269.6 47.6099C269.5 47.6099 269.5 47.6099 269.6 47.6099L268.7 47.2099C268.6 47.2099 268.5 47.1099 268.5 47.0099V43.7099C268.5 43.6099 268.6 43.5099 268.7 43.5099C268.8 43.5099 268.9 43.6099 268.9 43.7099V46.9099L269.6 47.2099C269.7 47.3099 269.8 47.4099 269.7 47.5099C269.7 47.5099 269.7 47.6099 269.6 47.6099Z" fill="#E2564B"/>
<path d="M272.6 41.0099H272.5C271.1 40.3099 270.3 40.9099 270.3 41.0099C270.2 41.1099 270 41.1099 269.9 41.0099C269.8 40.9099 269.8 40.7099 269.9 40.7099C269.9 40.7099 271 39.9099 272.7 40.7099C272.8 40.8099 272.9 40.9099 272.8 41.0099C272.8 40.9099 272.7 41.0099 272.6 41.0099Z" fill="#3A1A3F"/>
<path d="M271.7 43.9099C272 43.8099 272.2 43.5099 272.1 43.0099C272 42.6099 271.7 42.3099 271.4 42.4099C271.1 42.5099 270.9 42.8099 271 43.3099C271.1 43.8099 271.4 43.9099 271.7 43.9099Z" fill="#242854"/>
<path d="M266.6 45.3099C266.9 45.2099 267.1 44.8099 267 44.4099C266.9 44.0099 266.6 43.7099 266.3 43.8099C266 43.9099 265.8 44.3099 265.9 44.7099C266 45.1099 266.3 45.3099 266.6 45.3099Z" fill="#242854"/>
<path d="M241.1 174.01C241 173.71 231.8 141.01 231.1 131.81C230.1 120.11 264 112.51 265.4 112.21L265.5 112.71C265.2 112.81 230.6 120.61 231.5 131.81C232.2 140.91 241.4 173.51 241.5 173.91L241.1 174.01Z" fill="#639AD6"/>
</g>
<defs>
<clipPath id="clip0">
<rect width="327" height="201" fill="white" transform="translate(84 0.0098877)"/>
</clipPath>
</defs>
</svg>
