<svg width="18" height="18" viewBox="0 0 18 18" fill="none" xmlns="http://www.w3.org/2000/svg">
<path d="M17.0917 15.9318L14 12.8651C15.2001 11.3688 15.7813 9.46951 15.6241 7.55785C15.4668 5.64618 14.5831 3.86742 13.1546 2.5873C11.7262 1.30719 9.86155 0.623024 7.94414 0.675491C6.02674 0.727958 4.20231 1.51307 2.84599 2.86938C1.48968 4.2257 0.704568 6.05013 0.652101 7.96753C0.599634 9.88494 1.2838 11.7496 2.56391 13.178C3.84403 14.6065 5.62279 15.4902 7.53446 15.6474C9.44612 15.8047 11.3454 15.2235 12.8417 14.0234L15.9084 17.0901C15.9858 17.1682 16.078 17.2302 16.1796 17.2725C16.2811 17.3148 16.39 17.3366 16.5 17.3366C16.6101 17.3366 16.719 17.3148 16.8205 17.2725C16.9221 17.2302 17.0142 17.1682 17.0917 17.0901C17.2419 16.9347 17.3259 16.727 17.3259 16.5109C17.3259 16.2948 17.2419 16.0872 17.0917 15.9318V15.9318ZM8.16671 14.0234C7.01298 14.0234 5.88517 13.6813 4.92588 13.0403C3.9666 12.3994 3.21892 11.4883 2.77741 10.4224C2.3359 9.35652 2.22038 8.18363 2.44546 7.05207C2.67054 5.92052 3.22611 4.88112 4.04192 4.06531C4.85773 3.2495 5.89713 2.69393 7.02868 2.46885C8.16024 2.24377 9.33313 2.35929 10.399 2.8008C11.4649 3.24231 12.376 3.98999 13.0169 4.94927C13.6579 5.90856 14 7.03637 14 8.1901C14 9.7372 13.3855 11.2209 12.2915 12.3149C11.1975 13.4089 9.71381 14.0234 8.16671 14.0234V14.0234Z" fill="#9CA3AF"/>
</svg>
