<svg width="19" height="21" viewBox="0 0 19 21" fill="none" xmlns="http://www.w3.org/2000/svg">
<path d="M17.5 6.51197L11.5 1.25197C10.95 0.760014 10.238 0.488037 9.50003 0.488037C8.7621 0.488037 8.05006 0.760014 7.50003 1.25197L1.50003 6.51197C1.1824 6.79604 0.928934 7.14453 0.756506 7.53421C0.584077 7.9239 0.496646 8.34585 0.500034 8.77197V17.512C0.500034 18.3076 0.816104 19.0707 1.37871 19.6333C1.94132 20.1959 2.70438 20.512 3.50003 20.512H15.5C16.2957 20.512 17.0587 20.1959 17.6214 19.6333C18.184 19.0707 18.5 18.3076 18.5 17.512V8.76197C18.502 8.33753 18.4139 7.91751 18.2415 7.52965C18.0691 7.14179 17.8164 6.79493 17.5 6.51197V6.51197ZM11.5 18.512H7.50003V13.512C7.50003 13.2468 7.60539 12.9924 7.79293 12.8049C7.98046 12.6173 8.23482 12.512 8.50003 12.512H10.5C10.7652 12.512 11.0196 12.6173 11.2071 12.8049C11.3947 12.9924 11.5 13.2468 11.5 13.512V18.512ZM16.5 17.512C16.5 17.7772 16.3947 18.0315 16.2071 18.2191C16.0196 18.4066 15.7652 18.512 15.5 18.512H13.5V13.512C13.5 12.7163 13.184 11.9533 12.6214 11.3906C12.0587 10.828 11.2957 10.512 10.5 10.512H8.50003C7.70438 10.512 6.94132 10.828 6.37871 11.3906C5.8161 11.9533 5.50003 12.7163 5.50003 13.512V18.512H3.50003C3.23482 18.512 2.98046 18.4066 2.79293 18.2191C2.60539 18.0315 2.50003 17.7772 2.50003 17.512V8.76197C2.50021 8.61998 2.53063 8.47967 2.58925 8.35035C2.64787 8.22103 2.73337 8.10568 2.84003 8.01197L8.84003 2.76197C9.02252 2.60165 9.25713 2.51323 9.50003 2.51323C9.74294 2.51323 9.97754 2.60165 10.16 2.76197L16.16 8.01197C16.2667 8.10568 16.3522 8.22103 16.4108 8.35035C16.4694 8.47967 16.4999 8.61998 16.5 8.76197V17.512Z" fill="#2A59D8"/>
</svg>
