<svg width="23" height="19" viewBox="0 0 23 19" fill="none" xmlns="http://www.w3.org/2000/svg">
<path d="M0.5 10V15C0.5 15.2652 0.605357 15.5196 0.792893 15.7071C0.98043 15.8946 1.23478 16 1.5 16H2.5C2.5 16.7956 2.81607 17.5587 3.37868 18.1213C3.94129 18.6839 4.70435 19 5.5 19C6.29565 19 7.05871 18.6839 7.62132 18.1213C8.18393 17.5587 8.5 16.7956 8.5 16H14.5C14.5 16.7956 14.8161 17.5587 15.3787 18.1213C15.9413 18.6839 16.7044 19 17.5 19C18.2956 19 19.0587 18.6839 19.6213 18.1213C20.1839 17.5587 20.5 16.7956 20.5 16H21.5C21.7652 16 22.0196 15.8946 22.2071 15.7071C22.3946 15.5196 22.5 15.2652 22.5 15V3C22.5 2.20435 22.1839 1.44129 21.6213 0.87868C21.0587 0.316071 20.2956 0 19.5 0H10.5C9.70435 0 8.94129 0.316071 8.37868 0.87868C7.81607 1.44129 7.5 2.20435 7.5 3V5H5.5C5.03426 5 4.57493 5.10844 4.15836 5.31672C3.74179 5.525 3.37944 5.82741 3.1 6.2L0.7 9.4C0.670751 9.44347 0.647224 9.49052 0.63 9.54L0.57 9.65C0.525866 9.76152 0.502155 9.88008 0.5 10V10ZM16.5 16C16.5 15.8022 16.5586 15.6089 16.6685 15.4444C16.7784 15.28 16.9346 15.1518 17.1173 15.0761C17.3 15.0004 17.5011 14.9806 17.6951 15.0192C17.8891 15.0578 18.0673 15.153 18.2071 15.2929C18.347 15.4327 18.4422 15.6109 18.4808 15.8049C18.5194 15.9989 18.4996 16.2 18.4239 16.3827C18.3482 16.5654 18.22 16.7216 18.0556 16.8315C17.8911 16.9414 17.6978 17 17.5 17C17.2348 17 16.9804 16.8946 16.7929 16.7071C16.6054 16.5196 16.5 16.2652 16.5 16ZM9.5 3C9.5 2.73478 9.60536 2.48043 9.79289 2.29289C9.98043 2.10536 10.2348 2 10.5 2H19.5C19.7652 2 20.0196 2.10536 20.2071 2.29289C20.3946 2.48043 20.5 2.73478 20.5 3V14H19.72C19.4388 13.6906 19.0961 13.4435 18.7138 13.2743C18.3315 13.1052 17.918 13.0178 17.5 13.0178C17.082 13.0178 16.6685 13.1052 16.2862 13.2743C15.9039 13.4435 15.5612 13.6906 15.28 14H9.5V3ZM7.5 9H3.5L4.7 7.4C4.79315 7.2758 4.91393 7.175 5.05279 7.10557C5.19164 7.03614 5.34475 7 5.5 7H7.5V9ZM4.5 16C4.5 15.8022 4.55865 15.6089 4.66853 15.4444C4.77841 15.28 4.93459 15.1518 5.11732 15.0761C5.30004 15.0004 5.50111 14.9806 5.69509 15.0192C5.88907 15.0578 6.06725 15.153 6.20711 15.2929C6.34696 15.4327 6.4422 15.6109 6.48079 15.8049C6.51937 15.9989 6.49957 16.2 6.42388 16.3827C6.34819 16.5654 6.22002 16.7216 6.05557 16.8315C5.89112 16.9414 5.69778 17 5.5 17C5.23478 17 4.98043 16.8946 4.79289 16.7071C4.60536 16.5196 4.5 16.2652 4.5 16ZM2.5 11H7.5V13.78C6.90983 13.2526 6.13513 12.9797 5.34469 13.0209C4.55425 13.0621 3.81212 13.414 3.28 14H2.5V11Z" fill="#6B7280"/>
</svg>
