<svg width="21" height="21" viewBox="0 0 21 21" fill="none" xmlns="http://www.w3.org/2000/svg">
<path d="M14.1952 11.2098C15.1756 10.4384 15.8912 9.38068 16.2424 8.1837C16.5937 6.98672 16.5631 5.71002 16.155 4.53123C15.7468 3.35243 14.9814 2.33015 13.9652 1.60661C12.9491 0.883078 11.7326 0.494263 10.4852 0.494263C9.23771 0.494263 8.02128 0.883078 7.0051 1.60661C5.98891 2.33015 5.22351 3.35243 4.81538 4.53123C4.40725 5.71002 4.37668 6.98672 4.72793 8.1837C5.07917 9.38068 5.79477 10.4384 6.77517 11.2098C5.09524 11.8828 3.62945 12.9991 2.53406 14.4397C1.43866 15.8802 0.754728 17.5911 0.555165 19.3898C0.54072 19.5211 0.552282 19.654 0.589191 19.7808C0.626099 19.9077 0.687632 20.026 0.770277 20.1291C0.937184 20.3372 1.17995 20.4706 1.44517 20.4998C1.71038 20.5289 1.97632 20.4516 2.18449 20.2846C2.39266 20.1177 2.52599 19.875 2.55517 19.6098C2.77475 17.655 3.70685 15.8496 5.17338 14.5386C6.63992 13.2275 8.53806 12.5028 10.5052 12.5028C12.4723 12.5028 14.3704 13.2275 15.8369 14.5386C17.3035 15.8496 18.2356 17.655 18.4552 19.6098C18.4824 19.8555 18.5996 20.0824 18.7843 20.2468C18.9689 20.4111 19.2079 20.5013 19.4552 20.4998H19.5652C19.8273 20.4696 20.0669 20.3371 20.2317 20.131C20.3966 19.925 20.4733 19.6621 20.4452 19.3998C20.2447 17.596 19.557 15.8807 18.456 14.438C17.355 12.9952 15.8821 11.8792 14.1952 11.2098V11.2098ZM10.4852 10.4998C9.69404 10.4998 8.92068 10.2652 8.26288 9.82564C7.60509 9.38611 7.0924 8.7614 6.78965 8.03049C6.4869 7.29959 6.40768 6.49532 6.56202 5.7194C6.71636 4.94347 7.09733 4.23074 7.65674 3.67133C8.21615 3.11192 8.92888 2.73096 9.7048 2.57662C10.4807 2.42228 11.285 2.50149 12.0159 2.80424C12.7468 3.10699 13.3715 3.61968 13.811 4.27748C14.2506 4.93527 14.4852 5.70863 14.4852 6.49976C14.4852 7.56062 14.0637 8.57804 13.3136 9.32819C12.5634 10.0783 11.546 10.4998 10.4852 10.4998Z" fill="#6B7280"/>
</svg>
