<svg width="24" height="25" viewBox="0 0 24 25" fill="none" xmlns="http://www.w3.org/2000/svg">
<path d="M16.995 11.0041H9.40501L12.705 7.71409C12.8933 7.52579 12.9991 7.27039 12.9991 7.00409C12.9991 6.73779 12.8933 6.4824 12.705 6.29409C12.5167 6.10579 12.2613 6 11.995 6C11.7287 6 11.4733 6.10579 11.285 6.29409L6.28501 11.2941C6.19397 11.3892 6.12261 11.5013 6.07501 11.6241C5.975 11.8676 5.975 12.1406 6.07501 12.3841C6.12261 12.5068 6.19397 12.619 6.28501 12.7141L11.285 17.7141C11.378 17.8078 11.4886 17.8822 11.6104 17.933C11.7323 17.9838 11.863 18.0099 11.995 18.0099C12.127 18.0099 12.2577 17.9838 12.3796 17.933C12.5014 17.8822 12.6121 17.8078 12.705 17.7141C12.7987 17.6211 12.8731 17.5105 12.9239 17.3887C12.9747 17.2668 13.0008 17.1361 13.0008 17.0041C13.0008 16.8721 12.9747 16.7414 12.9239 16.6195C12.8731 16.4977 12.7987 16.3871 12.705 16.2941L9.40501 13.0041H16.995C17.2602 13.0041 17.5146 12.8987 17.7021 12.7112C17.8897 12.5237 17.995 12.2693 17.995 12.0041C17.995 11.7389 17.8897 11.4845 17.7021 11.297C17.5146 11.1094 17.2602 11.0041 16.995 11.0041Z" fill="#111827"/>
</svg>
