<svg width="18" height="21" viewBox="0 0 18 21" fill="none" xmlns="http://www.w3.org/2000/svg">
<path d="M17 4.5H13V3.5C13 2.70435 12.6839 1.94129 12.1213 1.37868C11.5587 0.816071 10.7956 0.5 10 0.5H8C7.20435 0.5 6.44129 0.816071 5.87868 1.37868C5.31607 1.94129 5 2.70435 5 3.5V4.5H1C0.734784 4.5 0.48043 4.60536 0.292893 4.79289C0.105357 4.98043 0 5.23478 0 5.5C0 5.76522 0.105357 6.01957 0.292893 6.20711C0.48043 6.39464 0.734784 6.5 1 6.5H2V17.5C2 18.2956 2.31607 19.0587 2.87868 19.6213C3.44129 20.1839 4.20435 20.5 5 20.5H13C13.7956 20.5 14.5587 20.1839 15.1213 19.6213C15.6839 19.0587 16 18.2956 16 17.5V6.5H17C17.2652 6.5 17.5196 6.39464 17.7071 6.20711C17.8946 6.01957 18 5.76522 18 5.5C18 5.23478 17.8946 4.98043 17.7071 4.79289C17.5196 4.60536 17.2652 4.5 17 4.5ZM7 3.5C7 3.23478 7.10536 2.98043 7.29289 2.79289C7.48043 2.60536 7.73478 2.5 8 2.5H10C10.2652 2.5 10.5196 2.60536 10.7071 2.79289C10.8946 2.98043 11 3.23478 11 3.5V4.5H7V3.5ZM14 17.5C14 17.7652 13.8946 18.0196 13.7071 18.2071C13.5196 18.3946 13.2652 18.5 13 18.5H5C4.73478 18.5 4.48043 18.3946 4.29289 18.2071C4.10536 18.0196 4 17.7652 4 17.5V6.5H14V17.5Z" fill="#7F9BE8"/>
</svg>
