<svg width="91" height="23" viewBox="0 0 91 23" fill="none" xmlns="http://www.w3.org/2000/svg">
<rect x="0.5" y="4" width="15" height="15" rx="3.5" stroke="#6B7280"/>
<path d="M4 12H12.5V11H4V12Z" fill="#111827"/>
<path d="M39.3943 7.54V6.378H42.0263V16.5H40.7383V7.54H39.3943ZM44.2147 11.334C44.2147 9.72867 44.476 8.478 44.9987 7.582C45.5213 6.67667 46.436 6.224 47.7427 6.224C49.04 6.224 49.95 6.67667 50.4727 7.582C50.9953 8.478 51.2567 9.72867 51.2567 11.334C51.2567 12.9673 50.9953 14.2367 50.4727 15.142C49.95 16.0473 49.04 16.5 47.7427 16.5C46.436 16.5 45.5213 16.0473 44.9987 15.142C44.476 14.2367 44.2147 12.9673 44.2147 11.334ZM49.9967 11.334C49.9967 10.522 49.9407 9.836 49.8287 9.276C49.726 8.70667 49.5067 8.24933 49.1707 7.904C48.844 7.55867 48.368 7.386 47.7427 7.386C47.108 7.386 46.6227 7.55867 46.2867 7.904C45.96 8.24933 45.7407 8.70667 45.6287 9.276C45.526 9.836 45.4747 10.522 45.4747 11.334C45.4747 12.174 45.526 12.8787 45.6287 13.448C45.7407 14.0173 45.96 14.4747 46.2867 14.82C46.6227 15.1653 47.108 15.338 47.7427 15.338C48.368 15.338 48.844 15.1653 49.1707 14.82C49.5067 14.4747 49.726 14.0173 49.8287 13.448C49.9407 12.8787 49.9967 12.174 49.9967 11.334Z" fill="#6B7280"/>
<rect x="75.5" y="4" width="15" height="15" rx="3.5" stroke="#6B7280"/>
<path d="M79 12H87.5V11H79V12Z" fill="#111827"/>
<path d="M83.5 16V7.5H82.5V16H83.5Z" fill="#111827"/>
</svg>
