<svg width="379" height="201" viewBox="0 0 379 201" fill="none" xmlns="http://www.w3.org/2000/svg">
<path d="M268.7 20.5H260.2V29.6H268.7V20.5Z" fill="#F7A849"/>
<path d="M264.9 19.4H264V21.7H264.9V19.4Z" fill="#F84D11"/>
<path d="M254.8 20.5V39C254.8 39.8 254.5 40.6 253.9 41.2C253.4 41.8 252.6 42.1 251.8 42.1H236.8C237.5 42.1 238.3 41.7 238.8 41.1C239.3 40.5 239.6 39.8 239.6 39V20.5H254.8Z" fill="#D6EAF2"/>
<path d="M247.3 19.4H246.4V21.7H247.3V19.4Z" fill="#F84D11"/>
<path d="M251.6 24.7H242.6V25.2H251.6V24.7Z" fill="#639AD6"/>
<path d="M251.6 27.1H242.6V27.6H251.6V27.1Z" fill="#639AD6"/>
<path d="M251.6 29.4H242.6V29.9H251.6V29.4Z" fill="#639AD6"/>
<path d="M251.6 31.8H242.6V32.3H251.6V31.8Z" fill="#639AD6"/>
<path d="M251.6 34.2H242.6V34.7H251.6V34.2Z" fill="#639AD6"/>
<path d="M198.1 139.7L186.8 198.2H187.9L203 139.7" fill="#D6EAF2"/>
<path d="M238.2 138.3L249.7 198.2H248.7L233.6 139.7" fill="#D6EAF2"/>
<path d="M222.5 139.7L233.8 198.2H232.7L217.6 139.7" fill="#D6EAF2"/>
<path d="M250.5 111L243.7 132.6C243 134.8 241.7 136.7 239.9 138C238.1 139.3 236 140.1 233.8 140.1H195.2C193 140.1 190.9 139.4 189.1 138C187.3 136.7 186 134.7 185.3 132.6L179.7 114.8C179.5 114.1 179.4 113.3 179.5 112.6C179.6 111.8 179.9 111.1 180.3 110.5C180.7 109.9 181.3 109.4 181.9 109C182.5 108.7 183.2 108.5 183.9 108.5H188.2C189.2 108.5 190.1 108.1 190.9 107.4C191.6 106.7 192.1 105.8 192.3 104.7L194.8 85.7C195.1 83.5 196.1 81.5 197.7 80C199.3 78.5 201.3 77.7 203.4 77.7H238.2C239.4 77.7 240.7 78 241.8 78.5C242.9 79 243.9 79.8 244.7 80.8C245.5 81.8 246.1 83 246.5 84.2C246.9 85.4 246.9 86.8 246.8 88.1L244.6 104.5C244.5 105 244.6 105.5 244.7 105.9C244.8 106.4 245 106.8 245.3 107.1C245.6 107.5 246 107.7 246.4 107.9C246.8 108.1 247.2 108.2 247.7 108.2H248.7C249 108.2 249.3 108.3 249.5 108.4C249.7 108.5 250 108.7 250.1 109C250.3 109.2 250.4 109.5 250.4 109.8C250.7 110.4 250.6 110.7 250.5 111Z" fill="#D6EAF2"/>
<path d="M222.5 136.2H186.9V135.7H222.5C224.4 135.7 226.3 135.1 227.8 133.9C229.4 132.7 230.5 131 231.1 129.1L236 114.6C236.6 112.7 237.8 111 239.4 109.8C241 108.6 242.8 108 244.8 108H247.7V108.5H244.8C244.8 108.5 244.8 108.5 244.7 108.5C242.9 108.5 241.2 109.1 239.7 110.2C238.2 111.3 237.1 112.9 236.5 114.7L231.6 129.2C231 131.2 229.7 133 228.1 134.2C226.5 135.5 224.5 136.2 222.5 136.2Z" fill="white"/>
<path d="M232 77.1C231.8 77.1 231.6 77.1 231.4 77.1V76.6C236.9 76.8 240.9 74.4 242.1 70.2C243.1 66.8 241.9 63.3 239.1 61.6C235 59.1 235 58 235.1 53.3C235.1 52.8 235.1 52.2 235.1 51.6C235.2 44 230.5 42.4 227.4 41.3C225.2 40.5 224.6 38.3 224 36C223.1 32.9 222.3 29.7 217.3 29.5V29C222.6 29.1 223.6 32.7 224.4 35.8C225 38 225.6 40.1 227.5 40.8C231.6 42.2 235.6 44.2 235.5 51.6C235.5 52.2 235.5 52.8 235.5 53.3C235.4 58 235.4 58.8 239.3 61.2C242.3 63 243.6 66.7 242.5 70.4C241.3 74.6 237.4 77.1 232 77.1Z" fill="#41465A"/>
<path d="M203.9 36.4C204.1 35.8 205.9 27.5 217.6 29C226.3 30.1 222.8 40.6 226.9 42.1C230 43.2 234.8 44.9 234.3 52.5C233.9 58.7 233.3 59.5 237.6 62.5C243.5 66.5 241.2 78.6 228.9 77.4C216.6 76.2 198.3 76.7 197.4 74.1C196.8 72.2 191.6 61.2 199.2 56.5C201.5 55.1 205.7 53.3 205.2 50.5C204.4 44.8 201.6 42.9 203.9 36.4Z" fill="#252954"/>
<path d="M218.6 48C218.6 48 218 56.9 221.3 59.7L212.2 59.5C212.2 59.5 212.4 49.6 212.2 48H218.6Z" fill="#FFB3A4"/>
<path d="M214.2 55.2C217.7 55.2 220.5 53 220.5 50.3C220.5 47.6 217.7 45.4 214.2 45.4C210.7 45.4 207.9 47.6 207.9 50.3C207.9 53 210.7 55.2 214.2 55.2Z" fill="#242854"/>
<path d="M220.9 44.7C220.9 44.7 219.1 53.2 212.5 52.9C208.1 52.7 205.9 44.7 205.5 40.8C205.2 37.6 209.2 35.1 212.1 35.8C215.7 36.6 215.8 42.9 219.6 42.5L220.9 44.7Z" fill="#FFB3A4"/>
<path d="M210.2 41.4C208.7 41.8 207.2 42.4 205.8 43.1C205.6 42.3 205.4 41.5 205.3 40.7C205.1 38.3 207.1 36.4 209.4 35.8C209.6 35.9 209.9 36 210.1 36.1C211.3 36.4 209.5 38.8 210.2 41.4Z" fill="#EA786C"/>
<path d="M211.6 35.6C212.8 36.1 210.1 38.6 210.7 41.4C208.1 42 205.6 42.7 203.1 43.6C203.1 43.6 200.8 39.8 202.6 37.3C204.4 34.8 207.7 34.1 211.6 35.6Z" fill="#252954"/>
<path d="M219.6 45.1C220.8 45.1 221.8 44 221.8 42.7C221.8 41.4 220.8 40.3 219.6 40.3C218.4 40.3 217.4 41.4 217.4 42.7C217.4 44 218.3 45.1 219.6 45.1Z" fill="#FFB3A4"/>
<path d="M201 64C204 62.4 207.3 64.6 205.6 69.6C204.4 73.3 194 94.9 192.8 96.8C185.6 101.1 157.4 96.2 157.4 96.2C157.4 96.2 153.5 98 152.3 98C151.8 98 148.8 97.4 148.8 97.4C148.8 97.4 148.7 97 149.2 96.6C149.7 96.1 152.9 96.7 151.8 95.5C151.3 95 148.6 96 147.4 97.1C146.2 98.2 145.7 97.3 145.7 97.3C145.7 97.3 146.9 95.2 147.3 94.8C147.7 94.4 150.4 92.8 152.2 92.7C153.5 92.6 156.6 93 158.2 93.5C164.5 92.2 177.4 90.4 185.7 90.9C185.7 90.9 194.3 67.6 201 64Z" fill="#FFB3A4"/>
<path d="M220.8 56.5C220.8 56.5 222.7 60.2 233.3 64.1C233.3 64.1 233.3 68.9 231.5 75.3C228.8 85.4 225.3 99.5 225.3 105C225.3 105 213.9 108.5 202.1 105C202.1 105 202.2 88.2 201.2 87.4C200.2 86.6 197.6 79.6 198.5 76.1C199.4 72.6 202.8 63.5 202.8 63.5C202.8 63.5 209.8 61.3 210.4 56.9C213.9 57.2 217.4 57.1 220.8 56.5Z" fill="#FFF4DE"/>
<path d="M161.6 169.5C159.8 176.7 153.9 183.6 154.2 185.2C154.6 186.8 156.8 188.7 156.2 191.1C155.8 192.8 152.4 192 149.9 193.4C147.3 194.8 148.2 196.2 144 196.4C139.8 196.6 136.3 196.4 136.3 196.4C136.3 196.4 136.4 194.7 138.3 194.3C140.2 193.9 146.4 190 148.3 182.2C150.1 174.9 150.6 169.6 150.6 169.6H161.6V169.5Z" fill="#FFB3A4"/>
<path d="M161.6 169.5C161.1 171.6 160.1 173.7 159.2 175.7C155 175.4 152.1 174.3 150.1 173.3C150.5 170.9 150.6 169.5 150.6 169.5H161.6Z" fill="#3A193F"/>
<path d="M202.3 103L199.3 106.2C198.2 106.5 168.5 116.5 164.5 122.4C160.5 128.2 147.4 170.6 147.4 170.6C147.4 170.6 152.9 174.7 166.4 173.2C166.4 173.2 174.1 156.2 175.2 132.8C175.2 132.8 209.1 135.3 214.1 126.6C219.1 117.9 214.8 104.8 214.8 104.8C214.8 104.8 206.1 104.2 202.3 103Z" fill="#A1CBE2"/>
<path d="M155.9 196.4H134.3C133.8 196.4 133.3 196.9 133.3 197.4V197.5C133.3 198.1 133.7 198.5 134.3 198.5H155.9C156.4 198.5 156.9 198 156.9 197.5V197.4C156.8 196.8 156.4 196.4 155.9 196.4Z" fill="#F5921B"/>
<path d="M147.3 196.4C147.3 196.4 144.6 193 144.1 189.7C143.9 188.5 140.5 190.2 138.5 191.1C133.2 193.4 134.3 196.5 134.3 196.5H147.3V196.4Z" fill="#F5921B"/>
<path d="M186.5 169.8C187.8 172.8 191.6 182.9 191.7 186.3C191.8 191.3 183.5 195.6 183 196.1C182.1 196.9 183.2 197.6 183.2 197.6C183.2 197.6 198.7 195.7 200.5 194.9C202.2 194 198.2 189.3 197.8 185.9C197.4 182.4 198 172.8 197.3 168.5L186.5 169.8Z" fill="#FFB3A4"/>
<path d="M197.6 174.7C195.2 175.5 192.1 176.4 189.2 176.8C188.2 173.9 187.1 171.1 186.5 169.8L197.2 168.4C197.5 170 197.6 172.3 197.6 174.7Z" fill="#3A193F"/>
<path d="M225.4 103C225.4 103 235 121.1 227.9 130.1C220.3 139.8 188.4 136.2 188.4 136.2C188.4 136.2 198.7 148.1 200.2 173.7C200.2 173.7 189.7 175.8 183.3 174C183.3 174 174.1 141.1 173.3 131.9C172.4 120.3 207.5 112.5 207.5 112.5L208.9 104.2C208.9 104.1 216.2 105.2 225.4 103Z" fill="#A1CBE2"/>
<path d="M201.6 194.9L180.1 197.7C179.6 197.8 179.2 198.3 179.2 198.9V199C179.3 199.6 179.8 200 180.3 199.9L201.8 197.1C202.3 197 202.7 196.5 202.6 195.9V195.8C202.6 195.2 202.1 194.8 201.6 194.9Z" fill="#F7A849"/>
<path d="M193 196C193 196 191 190.9 186.1 191.5C181.2 192.1 180.1 197.7 180.1 197.7L193 196Z" fill="#F7A849"/>
<path d="M241.4 99C235.9 102.7 209.3 91.2 209.3 91.2C209.3 91.2 207.7 93.7 205.9 93.7C204.1 93.7 202.5 93 201.6 93.7C200.7 94.5 199.7 95.7 199 95.8C198.2 95.9 197.3 95.9 196.5 95.6C196.5 95.6 197.1 94.5 197.7 93.4C197.1 93.8 196.4 94.7 195.9 95.1C195.7 95.2 195.5 95.3 195.3 95.3C195.1 95.3 194.9 95.2 194.7 95.1C194.7 95.1 195.9 93.3 196.4 92.8C196.9 92.3 198.2 91.7 199.1 91.4C200 91 205.5 88.7 208.2 88.4C211.1 88 234.3 90.5 234.3 90.5C234.3 90.5 229 76.4 228.7 72.8C228.2 67.4 230.3 64.2 232.9 64.2C237.5 64 245.9 96 241.4 99Z" fill="#FFB3A4"/>
<path d="M197.3 95.8C197.2 95.8 197.2 95.7 197.3 95.8C197.2 95.7 197.2 95.7 197.2 95.7C197.4 95.4 199 92.7 199.6 92.4C200.6 91.9 201.9 91.2 201.9 91.2L202 91.4L199.7 92.6C199.3 92.7 197.9 94.9 197.3 95.8C197.4 95.8 197.4 95.7 197.3 95.8Z" fill="#DB7800"/>
<path d="M198.5 95.8C198.4 95.8 198.4 95.8 198.5 95.8C198.4 95.8 198.4 95.7 198.5 95.8C198.4 95.7 198.4 95.7 198.4 95.7C198.4 95.7 198.4 95.7 198.4 95.6C198.5 95.5 200 93.1 200.6 92.8C201.6 92.3 202.9 91.6 202.9 91.6L203 91.8C203 91.8 201.7 92.5 200.7 93C200.2 93.3 199 95.1 198.5 95.8Z" fill="#DB7800"/>
<path d="M291 100H88V104.6H291V100Z" fill="#F9BE76"/>
<path d="M285.4 182.5H260.1V185.7H285.4V182.5Z" fill="#F4E8CE"/>
<path d="M281.9 104.8H263.6V109.1H281.9V104.8Z" fill="#F9BE76"/>
<path d="M288.9 198.5C288.5 198.5 288 198.3 287.7 198C287.4 197.7 287.1 197.3 287.1 196.8L273.1 115.9C273.1 115.8 273 115.7 273 115.6C272.9 115.5 272.8 115.5 272.7 115.5C272.6 115.5 272.5 115.5 272.4 115.6C272.3 115.7 272.3 115.8 272.3 115.9L258.3 196.8C258.2 197.3 258 197.7 257.7 198C257.4 198.3 256.9 198.5 256.5 198.5C256.2 198.5 256 198.4 255.7 198.3C255.5 198.2 255.2 198 255.1 197.8C255 197.6 254.8 197.3 254.7 197C254.6 196.7 254.6 196.4 254.7 196.1L269.8 108.8H275.8L290.9 196.1C290.9 196.4 290.9 196.7 290.9 197C290.8 197.3 290.7 197.5 290.5 197.8C290.3 198 290.1 198.2 289.9 198.3C289.5 198.5 289.2 198.5 288.9 198.5Z" fill="#F9BE76"/>
<path d="M118.9 182.5H93.7V185.7H119V182.5H118.9Z" fill="#F4E8CE"/>
<path d="M115.4 104.8H97.1V109.1H115.4V104.8V104.8Z" fill="#F9BE76"/>
<path d="M122.5 198.5C122.1 198.5 121.6 198.3 121.3 198C121 197.7 120.7 197.3 120.7 196.8L106.7 115.9C106.7 115.8 106.6 115.7 106.6 115.6C106.5 115.5 106.4 115.5 106.3 115.5C106.2 115.5 106.1 115.5 106 115.6C105.9 115.7 105.9 115.8 105.9 115.9L91.9 196.8C91.8 197.3 91.6 197.7 91.3 198C91 198.3 90.5 198.5 90.1 198.5C89.8 198.5 89.6 198.4 89.3 198.3C89.1 198.2 88.8 198 88.7 197.8C88.5 197.6 88.4 197.3 88.3 197C88.2 196.7 88.2 196.4 88.3 196.1L103.4 108.8H109.4L124.5 196.1C124.5 196.4 124.5 196.7 124.5 197C124.4 197.3 124.3 197.5 124.1 197.8C123.9 198.1 123.7 198.2 123.5 198.3C123 198.5 122.8 198.5 122.5 198.5Z" fill="#F9BE76"/>
<path d="M144.5 61.2C145.6 61.2 146.3 60.1 146.3 58.9V52.4C146.3 52.1 146.2 51.8 146.1 51.5C146 51.2 145.8 51 145.6 50.8C145.4 50.6 145.2 50.4 144.9 50.3C144.6 50.2 144.4 50.1 144.1 50.1H130.2C129.9 50.1 129.6 50.2 129.4 50.3C129.1 50.4 128.9 50.6 128.7 50.8C128.5 51 128.3 51.3 128.2 51.5C128.1 51.8 128 52.1 128 52.4V58.9C128 59.5 128.2 60.1 128.6 60.5C129 60.9 129.5 61.2 130.1 61.2H138.3C140.3 61.2 141.4 64.6 141.4 64.6C141.4 64.6 142.1 61.2 144.5 61.2Z" fill="#FEDBCF"/>
<path d="M133.2 56.5C133.6 56.5 134 56.1 134 55.6C134 55.1 133.6 54.7 133.2 54.7C132.8 54.7 132.4 55.1 132.4 55.6C132.4 56.1 132.7 56.5 133.2 56.5Z" fill="#FB9470"/>
<path d="M137.1 56.5C137.5 56.5 137.9 56.1 137.9 55.6C137.9 55.1 137.5 54.7 137.1 54.7C136.7 54.7 136.3 55.1 136.3 55.6C136.3 56.2 136.7 56.5 137.1 56.5Z" fill="#FB9470"/>
<path d="M141.1 56.5C141.5 56.5 141.9 56.1 141.9 55.6C141.9 55.1 141.5 54.7 141.1 54.7C140.7 54.7 140.3 55.1 140.3 55.6C140.3 56.2 140.7 56.5 141.1 56.5Z" fill="#FB9470"/>
<path d="M171.8 69.3H139.2C138.8 69.3 138.5 69.4 138.2 69.6C137.9 69.8 137.6 70 137.4 70.3C137.2 70.6 137.1 71 137 71.4C137 71.8 137 72.2 137.1 72.5L145.3 96.3H183.5L175 71.6C174.8 70.9 174.3 70.3 173.7 69.9C173.1 69.5 172.5 69.3 171.8 69.3Z" fill="#F97141"/>
<path d="M171.1 70.5H139.3C139 70.5 138.6 70.6 138.3 70.8C138 71 137.7 71.2 137.5 71.5C137.3 71.8 137.2 72.2 137.1 72.5C137.1 72.9 137.1 73.2 137.2 73.6L145.2 96.8H182.4L174.1 72.8C173.9 72.1 173.4 71.5 172.9 71.1C172.5 70.7 171.8 70.5 171.1 70.5Z" fill="#F5921B"/>
<path d="M145.2 96.3H207.8C208.2 96.3 208.6 96.4 209 96.6C209.4 96.8 209.7 97 210 97.3C210.3 97.6 210.5 98 210.7 98.4C210.9 98.8 210.9 99.3 210.9 99.7V99.8H148.3C147.5 99.8 146.6 99.4 146 98.8C145.5 98.1 145.2 97.3 145.2 96.3Z" fill="#F5921B"/>
<path d="M161.7 86.4C162.9 85 162.5 82.7 160.9 81.1C159.3 79.6 157.1 79.4 155.9 80.8C154.7 82.2 155.1 84.5 156.7 86.1C158.3 87.7 160.6 87.8 161.7 86.4Z" fill="#FFD473"/>
<path d="M191.6 97.5H188.9V98.5H191.6V97.5Z" fill="#3A193F"/>
<path d="M196.6 97.5H194V98.5H196.7V97.5H196.6Z" fill="#952E0A"/>
<path d="M260.4 90.2H259.4V88H250V98.1C250 98.3 250 98.6 250.1 98.8C250.2 99 250.3 99.2 250.5 99.4C250.7 99.6 250.9 99.7 251.1 99.8C251.3 99.9 251.5 99.9 251.8 99.9H257.6C258.1 99.9 258.5 99.7 258.9 99.3C259.2 98.9 259.4 98.5 259.4 98V94.5H260.4C261 94.5 261.5 94.3 261.9 93.8C262.3 93.4 262.5 92.8 262.5 92.2C262.5 91.6 262.3 91 261.9 90.6C261.5 90.2 261 90.2 260.4 90.2ZM261.1 93.2C261 93.3 260.9 93.4 260.7 93.5C260.6 93.6 260.4 93.6 260.3 93.6H259.3V91.3H260.3C260.5 91.3 260.7 91.4 260.9 91.5C261.1 91.6 261.2 91.8 261.3 92C261.4 92.2 261.4 92.4 261.4 92.7C261.4 92.9 261.3 93.1 261.1 93.2Z" fill="white"/>
<path d="M251.7 100.2C251.4 100.2 251.2 100.1 250.9 100C250.7 99.9 250.4 99.7 250.2 99.5C250 99.3 249.9 99.1 249.8 98.8C249.7 98.5 249.6 98.3 249.6 98V87.7H259.5V89.9H260.3C260.9 89.9 261.5 90.2 262 90.6C262.4 91.1 262.7 91.7 262.7 92.3C262.7 93 262.5 93.6 262 94C261.6 94.5 261 94.7 260.3 94.7H259.5V97.9C259.5 98.5 259.3 99 258.9 99.4C258.5 99.8 258 100 257.5 100H251.7C251.7 100.2 251.7 100.2 251.7 100.2ZM250.2 88.2V98.1C250.2 98.3 250.2 98.5 250.3 98.7C250.4 98.9 250.5 99.1 250.6 99.2C250.7 99.4 250.9 99.5 251.1 99.6C251.3 99.7 251.5 99.7 251.7 99.7H257.5C257.9 99.7 258.3 99.5 258.6 99.2C258.9 98.9 259.1 98.5 259.1 98V94.3H260.4C260.9 94.3 261.3 94.1 261.7 93.7C262.1 93.3 262.2 92.8 262.2 92.3C262.2 91.8 262 91.3 261.7 90.9C261.4 90.5 260.9 90.3 260.4 90.3H259.1V88.1H250.2V88.2ZM259.4 93.8H259.2V91H260.4C260.7 91 260.9 91.1 261.2 91.2C261.4 91.4 261.6 91.6 261.7 91.8C261.8 92 261.8 92.3 261.8 92.6C261.8 92.8 261.7 93.1 261.5 93.2L261.4 93.3C261.3 93.4 261.1 93.5 261 93.6C260.9 93.7 260.7 93.7 260.5 93.7H259.4V93.8ZM259.6 93.3H260.3C260.4 93.3 260.5 93.3 260.6 93.2C260.7 93.2 260.7 93.1 260.8 93.1L260.9 93C261 92.9 261.1 92.7 261.1 92.5C261.1 92.3 261.1 92.1 261.1 92C261 91.8 260.9 91.7 260.8 91.6C260.7 91.5 260.5 91.4 260.3 91.4H259.6V93.3V93.3Z" fill="#F1B104"/>
<path d="M255.4 87C254.9 86.5 252.3 84.7 252.9 82C253.5 79.4 257.2 80 257 77.1C256.9 74.6 254.9 75.6 254.4 76.5C254.4 76.5 254.7 73.2 257.5 74.3C262.2 76.1 256.7 81.3 255.2 82.8C253.7 84.2 255.4 87 255.4 87Z" fill="#FFF4DE"/>
<path d="M258.7 80C258.7 80 258.1 82.2 255.6 83.3C255.6 83.3 259.4 83.3 258.7 80Z" fill="#FFF4DE"/>
<path d="M286 100L285.5 99.9C285.5 99.7 288.8 79.7 279 65.9C274.1 59.1 266.9 54.9 257.5 53.3L257.6 52.8C267.2 54.4 274.5 58.7 279.5 65.6C289.4 79.6 286.1 99.8 286 100Z" fill="#F5921B"/>
<path d="M285.9 99.8H267.1C268.4 96.6 272.1 94.2 276.5 94.2C280.9 94.2 284.6 96.5 285.9 99.8Z" fill="#F5921B"/>
<path d="M285.9 99.8H283.5C282.3 96.7 278.7 94.5 274.6 94.5C274.3 94.5 274 94.5 273.7 94.5C274.6 94.3 275.5 94.2 276.5 94.2C280.9 94.2 284.6 96.5 285.9 99.8Z" fill="#C47516"/>
<path d="M257.8 53.5C257.6 54.3 257 55 256.2 55.3C255.2 55.7 253.9 55.9 252.5 55.5C251.1 55.2 250 54.5 249.3 53.6C248.7 52.9 248.4 52 248.6 51.2C249 49.5 251.3 48.5 253.9 49.1C256.5 49.7 258.2 51.7 257.8 53.5Z" fill="#F7A849"/>
<path d="M257.8 53.5C257.6 54.3 257.1 54.9 256.3 55.3C256.7 55 256.9 54.6 257 54.1C257.3 52.5 255.7 50.7 253.3 50.1C251.1 49.6 249 50.3 248.4 51.8C248.4 51.7 248.4 51.5 248.4 51.4C248.8 49.7 251.1 48.7 253.7 49.3C256.4 49.8 258.2 51.7 257.8 53.5Z" fill="#F5921B"/>
<path d="M255.7 54.9C254.7 55.3 253.7 55.3 252.7 55.1C251.7 54.9 250.8 54.3 250 53.6C249.7 52.8 251.6 52.6 253.1 52.9C254.6 53.2 256.3 54.5 255.7 54.9Z" fill="#F5921B"/>
<path d="M118 36.1H184.9V42.6L118 36.6C117.9 36.6 117.9 36.1 118 36.1Z" fill="#F7A849"/>
<path d="M177.7 3.79999H174.9C174.3 3.79999 173.9 4.29999 173.9 4.89999V29.4C173.9 30 174.4 30.5 174.9 30.5H177.7C178.3 30.5 178.7 30 178.7 29.4V4.89999C178.7 4.29999 178.3 3.79999 177.7 3.79999Z" fill="#F9FAFB"/>
<path d="M177.7 30.8H174.9C174.2 30.8 173.6 30.2 173.6 29.4V4.9C173.6 4.2 174.2 3.5 174.9 3.5H177.7C178.4 3.5 179 4.1 179 4.9V29.4C179 30.2 178.4 30.8 177.7 30.8ZM174.9 4.1C174.5 4.1 174.1 4.5 174.1 5V29.5C174.1 30 174.5 30.4 174.9 30.4H177.7C178.1 30.4 178.5 30 178.5 29.5V4.9C178.5 4.4 178.1 4 177.7 4H174.9V4.1Z" fill="#F5921B"/>
<path d="M172.6 6.10001H169.2C168.6 6.10001 168.2 6.60001 168.2 7.20001V30C168.2 30.6 168.7 31.1 169.2 31.1H172.6C173.2 31.1 173.6 30.6 173.6 30V7.20001C173.6 6.60001 173.1 6.10001 172.6 6.10001Z" fill="#F5921B"/>
<path d="M167.2 0H166.3C165.8 0 165.4 0.4 165.4 1V30.1C165.4 30.7 165.8 31.1 166.3 31.1H167.2C167.7 31.1 168.1 30.7 168.1 30.1V1C168.2 0.5 167.8 0 167.2 0Z" fill="#D6EAF2"/>
<path d="M164.2 7.90002H161.8C161.2 7.90002 160.8 8.40002 160.8 9.00002V29.7C160.8 30.3 161.3 30.8 161.8 30.8H164.2C164.8 30.8 165.2 30.3 165.2 29.7V9.00002C165.2 8.40002 164.7 7.90002 164.2 7.90002Z" fill="#F9FAFB"/>
<path d="M164.2 31H161.8C161.1 31 160.5 30.4 160.5 29.7V9.00001C160.5 8.30001 161.1 7.70001 161.8 7.70001H164.2C164.9 7.70001 165.5 8.30001 165.5 9.00001V29.7C165.4 30.4 164.9 31 164.2 31ZM161.8 8.10001C161.4 8.10001 161 8.50001 161 8.90001V29.6C161 30.1 161.4 30.4 161.8 30.4H164.2C164.6 30.4 165 30 165 29.6V9.00001C165 8.50001 164.6 8.20001 164.2 8.20001H161.8V8.10001Z" fill="#F5921B"/>
<path d="M152.4 31.1H148.5L158.3 3.19999C158.3 3.09999 158.4 2.99999 158.5 2.89999C158.6 2.79999 158.7 2.79999 158.8 2.79999H161.6C161.7 2.79999 161.8 2.79999 161.8 2.89999C161.9 2.89999 161.9 2.99999 162 3.09999C162 3.19999 162.1 3.29999 162.1 3.39999C162.1 3.49999 162.1 3.59999 162.1 3.69999L152.4 31.1Z" fill="#F5921B"/>
<path d="M184.7 31.1H118.2V35.8H184.7V31.1Z" fill="#F9FAFB"/>
<path d="M185 36H118V30.8H185V36ZM118.4 35.5H184.4V31.3H118.4V35.5Z" fill="#F9BE76"/>
<path d="M124.9 20.7H141.7V22.7C141.7 24.9 140.9 27.1 139.4 28.6C137.9 30.2 135.9 31.1 133.8 31.1H132.8C130.7 31.1 128.7 30.2 127.2 28.6C125.7 27 124.9 24.9 124.9 22.7V20.7Z" fill="#F5921B"/>
<path d="M140 20.7H127.6C127.6 20.7 124 23.9 121.9 21.3C120.4 19.4 127.6 19.3 127.6 19.3L127.8 19.2C127.8 19.2 124.7 12.3 127.6 11.1C129.6 10.3 130.1 16.2 130.2 18.1C131.3 17.6 133.3 16.9 133.5 18.7C133.5 18.7 133.7 11.3 136.6 12C139 12.6 135.4 19.5 135.4 19.5L135.6 19.7C135.6 19.7 142.2 14.5 143.9 15.7C145.3 16.7 140 20.7 140 20.7Z" fill="#A1CBE2"/>
<path d="M129.5 20.7C129.5 20.7 129.6 14.3 131.9 14.5C134.2 14.7 131 20.7 131 20.7H129.5Z" fill="#D6EAF2"/>
<path d="M129.5 20.7C129.5 20.7 127.2 14.7 124.2 16.2C121.2 17.7 127.6 20.7 127.6 20.7H129.5Z" fill="#D6EAF2"/>
<path d="M134.1 20.7C134.1 20.7 136.1 15.3 139.3 15.8C142.5 16.3 135.3 20.7 135.3 20.7H134.1Z" fill="#D6EAF2"/>
<path d="M137.4 20.7C137.4 20.7 143.7 17.3 144.8 19.4C146 21.4 137.4 20.7 137.4 20.7Z" fill="#D6EAF2"/>
<path d="M211.9 49.6C211.8 49.6 211.8 49.6 211.7 49.6C211.6 49.6 211.5 49.5 211.5 49.3C211.5 49.2 211.6 49.1 211.8 49.1C211.9 49.1 213.3 49.2 214.5 47.3C214.6 47.2 214.7 47.1 214.8 47.2C214.9 47.3 215 47.4 214.9 47.5C213.8 49.5 212.4 49.6 211.9 49.6Z" fill="#3A1A3F"/>
<path d="M218.4 43.6C218.3 43.6 218.2 43.5 218.2 43.4C218.2 43.4 218.2 42.3 218.8 41.7C219.1 41.4 219.5 41.2 220 41.2C220.1 41.2 220.2 41.3 220.2 41.5C220.2 41.6 220.1 41.7 220 41.7C219.7 41.7 219.4 41.8 219.2 42C218.7 42.5 218.7 43.4 218.7 43.4C218.7 43.5 218.5 43.6 218.4 43.6Z" fill="#E2564B"/>
<path d="M219.8 43.1H219.7L218.6 42.6C218.5 42.5 218.4 42.4 218.5 42.3C218.6 42.2 218.7 42.1 218.8 42.2L219.9 42.7C220 42.8 220.1 42.9 220 43C220 43 219.9 43.1 219.8 43.1Z" fill="#E2564B"/>
<path d="M221.3 45.4C221.7 45.4 222.1 45 222.1 44.5C222.1 44 221.7 43.6 221.3 43.6C220.9 43.6 220.5 44 220.5 44.5C220.5 45 220.8 45.4 221.3 45.4Z" fill="#FFCDC5"/>
<path d="M211.6 47.6C211.5 47.6 211.5 47.6 211.6 47.6L210.7 47.2C210.6 47.2 210.5 47.1 210.5 47V43.7C210.5 43.6 210.6 43.5 210.7 43.5C210.8 43.5 210.9 43.6 210.9 43.7V46.9L211.6 47.2C211.7 47.3 211.8 47.4 211.7 47.5C211.7 47.5 211.7 47.6 211.6 47.6Z" fill="#E2564B"/>
<path d="M214.6 41H214.5C213.1 40.3 212.3 40.9 212.3 41C212.2 41.1 212 41.1 211.9 41C211.8 40.9 211.8 40.7 211.9 40.7C211.9 40.7 213 39.9 214.7 40.7C214.8 40.8 214.9 40.9 214.8 41C214.8 40.9 214.7 41 214.6 41Z" fill="#3A1A3F"/>
<path d="M213.7 43.9C214 43.8 214.2 43.5 214.1 43C214 42.6 213.7 42.3 213.4 42.4C213.1 42.5 212.9 42.8 213 43.3C213.1 43.8 213.4 43.9 213.7 43.9Z" fill="#242854"/>
<path d="M208.6 45.3C208.9 45.2 209.1 44.8 209 44.4C208.9 44 208.6 43.7 208.3 43.8C208 43.9 207.8 44.3 207.9 44.7C208 45.1 208.3 45.3 208.6 45.3Z" fill="#242854"/>
<path d="M183.1 174C183 173.7 173.8 141 173.1 131.8C172.1 120.1 206 112.5 207.4 112.2L207.5 112.7C207.2 112.8 172.6 120.6 173.5 131.8C174.2 140.9 183.4 173.5 183.5 173.9L183.1 174Z" fill="#639AD6"/>
</svg>
