<svg width="24" height="14" viewBox="0 0 24 14" fill="none" xmlns="http://www.w3.org/2000/svg">
<path fill-rule="evenodd" clip-rule="evenodd" d="M0 3.5C0 2.94772 0.447715 2.5 1 2.5H18.5C19.0523 2.5 19.5 2.94772 19.5 3.5C19.5 4.05228 19.0523 4.5 18.5 4.5H1C0.447715 4.5 0 4.05228 0 3.5ZM0 10.5C0 9.94772 0.447715 9.5 1 9.5H18.5C19.0523 9.5 19.5 9.94772 19.5 10.5C19.5 11.0523 19.0523 11.5 18.5 11.5H1C0.447715 11.5 0 11.0523 0 10.5Z" fill="#6B7280"/>
<path d="M8 3.5C8 4.88071 6.88071 6 5.5 6C4.11929 6 3 4.88071 3 3.5C3 2.11929 4.11929 1 5.5 1C6.88071 1 8 2.11929 8 3.5Z" fill="white"/>
<path fill-rule="evenodd" clip-rule="evenodd" d="M5.5 2C4.67157 2 4 2.67157 4 3.5C4 4.32843 4.67157 5 5.5 5C6.32843 5 7 4.32843 7 3.5C7 2.67157 6.32843 2 5.5 2ZM2 3.5C2 1.567 3.567 0 5.5 0C7.433 0 9 1.567 9 3.5C9 5.433 7.433 7 5.5 7C3.567 7 2 5.433 2 3.5Z" fill="#6B7280"/>
<path d="M16 10.5C16 11.8807 14.8807 13 13.5 13C12.1193 13 11 11.8807 11 10.5C11 9.11929 12.1193 8 13.5 8C14.8807 8 16 9.11929 16 10.5Z" fill="white"/>
<path fill-rule="evenodd" clip-rule="evenodd" d="M13.5 9C12.6716 9 12 9.67157 12 10.5C12 11.3284 12.6716 12 13.5 12C14.3284 12 15 11.3284 15 10.5C15 9.67157 14.3284 9 13.5 9ZM10 10.5C10 8.567 11.567 7 13.5 7C15.433 7 17 8.567 17 10.5C17 12.433 15.433 14 13.5 14C11.567 14 10 12.433 10 10.5Z" fill="#6B7280"/>
</svg>
