<svg width="24" height="24" viewBox="0 0 24 24" fill="none" xmlns="http://www.w3.org/2000/svg">
<path d="M20.16 15.36H6.72004C6.46543 15.36 6.22126 15.2589 6.04122 15.0789C5.86119 14.8989 5.76004 14.6546 5.76004 14.4C5.76004 14.1455 5.86119 13.9012 6.04122 13.7212C6.22126 13.5412 6.46543 13.44 6.72004 13.44H16.7424C17.3844 13.44 18.0079 13.2257 18.514 12.8308C19.0201 12.4361 19.3799 11.8835 19.536 11.2608L21.12 5.03044C21.156 4.88876 21.1591 4.74073 21.1292 4.59765C21.0992 4.45457 21.037 4.32022 20.9472 4.20484C20.8538 4.0865 20.7339 3.99182 20.5972 3.92844C20.4604 3.86506 20.3107 3.83478 20.16 3.84004H6.48964C6.29159 3.27984 5.9251 2.7946 5.44043 2.45087C4.95576 2.10713 4.37663 1.92171 3.78244 1.92004H2.88004C2.62543 1.92004 2.38126 2.02119 2.20122 2.20122C2.02119 2.38126 1.92004 2.62543 1.92004 2.88004C1.92004 3.13466 2.02119 3.37883 2.20122 3.55887C2.38126 3.7389 2.62543 3.84004 2.88004 3.84004H3.78244C4.00174 3.83365 4.21661 3.90257 4.39129 4.03532C4.56595 4.16807 4.68988 4.35664 4.74244 4.56964L4.80004 5.03044L6.46084 11.52C5.69702 11.5544 4.97813 11.8908 4.46234 12.4552C3.94654 13.0197 3.67608 13.7659 3.71044 14.5296C3.74481 15.2934 4.08121 16.0124 4.64562 16.5282C5.21003 17.044 5.95622 17.3144 6.72004 17.28H6.89284C6.73496 17.715 6.68423 18.1817 6.74494 18.6405C6.80565 19.0992 6.97603 19.5366 7.24163 19.9156C7.50723 20.2945 7.86025 20.6039 8.27078 20.8175C8.68131 21.0311 9.13728 21.1426 9.60004 21.1426C10.0629 21.1426 10.5188 21.0311 10.9293 20.8175C11.3399 20.6039 11.6928 20.2945 11.9585 19.9156C12.2241 19.5366 12.3944 19.0992 12.4552 18.6405C12.5159 18.1817 12.4652 17.715 12.3072 17.28H14.5728C14.4149 17.715 14.3642 18.1817 14.4249 18.6405C14.4857 19.0992 14.656 19.5366 14.9216 19.9156C15.1872 20.2945 15.5402 20.6039 15.9508 20.8175C16.3613 21.0311 16.8172 21.1426 17.28 21.1426C17.7429 21.1426 18.1988 21.0311 18.6093 20.8175C19.0199 20.6039 19.3728 20.2945 19.6385 19.9156C19.9041 19.5366 20.0744 19.0992 20.1352 18.6405C20.1959 18.1817 20.1452 17.715 19.9872 17.28H20.16C20.4146 17.28 20.6589 17.1789 20.8389 16.9989C21.0189 16.8189 21.12 16.5746 21.12 16.32C21.12 16.0655 21.0189 15.8212 20.8389 15.6412C20.6589 15.4612 20.4146 15.36 20.16 15.36ZM18.9312 5.76004L17.6736 10.7904C17.621 11.0035 17.4972 11.192 17.3225 11.3248C17.1479 11.4575 16.9329 11.5265 16.7136 11.52H8.42884L6.98884 5.76004H18.9312ZM9.60004 19.2C9.41017 19.2 9.22457 19.1438 9.0667 19.0383C8.90882 18.9328 8.78578 18.7828 8.71312 18.6074C8.64046 18.432 8.62145 18.239 8.65849 18.0527C8.69553 17.8665 8.78696 17.6954 8.92122 17.5612C9.05548 17.4269 9.22654 17.3355 9.41276 17.2985C9.59898 17.2614 9.79204 17.2804 9.96744 17.3531C10.1428 17.4258 10.2928 17.5488 10.3983 17.7067C10.5038 17.8646 10.56 18.0502 10.56 18.24C10.56 18.4946 10.4589 18.7389 10.2789 18.9189C10.0989 19.0989 9.85464 19.2 9.60004 19.2ZM17.28 19.2C17.0902 19.2 16.9046 19.1438 16.7467 19.0383C16.5888 18.9328 16.4658 18.7828 16.3931 18.6074C16.3204 18.432 16.3014 18.239 16.3385 18.0527C16.3755 17.8665 16.4669 17.6954 16.6012 17.5612C16.7354 17.4269 16.9065 17.3355 17.0927 17.2985C17.279 17.2614 17.472 17.2804 17.6474 17.3531C17.8228 17.4258 17.9728 17.5488 18.0783 17.7067C18.1838 17.8646 18.24 18.0502 18.24 18.24C18.24 18.4946 18.1389 18.7389 17.9589 18.9189C17.7789 19.0989 17.5346 19.2 17.28 19.2Z" fill="#111827"/>
<path d="M18.72 8.64C21.1059 8.64 23.04 6.70587 23.04 4.32C23.04 1.93413 21.1059 0 18.72 0C16.3342 0 14.4 1.93413 14.4 4.32C14.4 6.70587 16.3342 8.64 18.72 8.64Z" fill="#2A59D8"/>
<path d="M16.3199 4.31997C16.3199 4.05487 16.5349 3.83997 16.7999 3.83997H20.6399C20.905 3.83997 21.1199 4.05487 21.1199 4.31997C21.1199 4.58506 20.905 4.79997 20.6399 4.79997H16.7999C16.5349 4.79997 16.3199 4.58506 16.3199 4.31997Z" fill="#F9FAFB"/>
<path d="M18.72 6.72004C18.4549 6.72004 18.24 6.50514 18.24 6.24004V2.40004C18.24 2.13495 18.4549 1.92004 18.72 1.92004C18.985 1.92004 19.2 2.13495 19.2 2.40004V6.24004C19.2 6.50514 18.985 6.72004 18.72 6.72004Z" fill="#F9FAFB"/>
</svg>
